<svg width="444" height="313" fill="none" xmlns="http://www.w3.org/2000/svg"><g filter="url(#filter0_f)"><path fill-rule="evenodd" clip-rule="evenodd" d="M375.682 51.904a6.864 6.864 0 00-4.209-6.368 6.868 6.868 0 00-2.627-.536H63.836A6.874 6.874 0 0057 51.904v204.747a6.833 6.833 0 006.836 6.835H177.93L174.5 293H257l-4.508-29.514H366c6.432.005 9.686-2.615 9.682-9.486V51.904z" fill="#3D3C40" fill-opacity=".08"/></g><path d="M211.507 300.921c81.744 0 148.011-2.27 148.011-5.072 0-2.801-66.267-5.072-148.011-5.072-81.745 0-148.012 2.271-148.012 5.072 0 2.802 66.267 5.072 148.012 5.072z" fill="#3D3C40" fill-opacity=".08"/><path opacity=".1" d="M253.208 293.482h-41.073l-41.156-.527.245-2.11h81.578l.406 2.637z" fill="#3D3C40"/><path d="M253.287 294.008l-82.308-1.053.245-2.11 3.977-34.819h72.284l5.317 34.819.406 2.637.079.526zM370.682 46.904a6.864 6.864 0 00-4.209-6.368 6.868 6.868 0 00-2.627-.536H58.836A6.874 6.874 0 0052 46.904v184.857h318.682V46.904z" fill="#fff"/><path d="M253.287 294.008l-82.308-1.053.245-2.11 3.977-34.819h72.284l5.317 34.819.406 2.637.079.526z" fill="#3D3C40" fill-opacity=".24"/><path d="M266.479 291.371H157.26v2.637h109.219v-2.637z" fill="#fff"/><path d="M266.479 291.371H157.26v2.637h109.219v-2.637z" fill="#3D3C40" fill-opacity=".24"/><path opacity=".1" d="M220.048 258.4l32.837 32.971-5.039-32.971h-27.798z" fill="#3D3C40"/><path d="M370.682 46.904a6.864 6.864 0 00-4.209-6.368 6.868 6.868 0 00-2.627-.536H58.836A6.874 6.874 0 0052 46.904v184.857h318.682V46.904z" fill="#3D3C40" fill-opacity=".72"/><path d="M52 229.914v21.651a6.833 6.833 0 006.836 6.835h305.01a6.823 6.823 0 006.836-6.835v-21.651H52z" fill="#fff"/><path d="M52 230v21.651a6.833 6.833 0 006.836 6.835h305.01a6.823 6.823 0 006.836-6.835V230H52z" fill="#3D3C40" fill-opacity=".24"/><path d="M359.074 51.606H65.192v166.176h293.882V51.606z" fill="#fff"/><circle cx="211.5" cy="244.5" r="7.5" fill="#3D3C40" fill-opacity=".16"/><path d="M142 297.109c8.284 0 15-.671 15-1.5 0-.828-6.716-1.5-15-1.5-8.284 0-15 .672-15 1.5 0 .829 6.716 1.5 15 1.5z" fill="#3D3C40" fill-opacity=".24"/><path d="M141.665 296.388c.96 0 1.737-1.017 1.737-2.272s-.777-2.272-1.737-2.272c-.959 0-1.736 1.017-1.736 2.272s.777 2.272 1.736 2.272z" fill="#3D3C40"/><path d="M141.665 293.613c.96 0 1.737-1.017 1.737-2.272s-.777-2.273-1.737-2.273c-.959 0-1.736 1.018-1.736 2.273 0 1.255.777 2.272 1.736 2.272z" fill="#3D3C40"/><path d="M141.665 290.832c.96 0 1.737-1.018 1.737-2.273 0-1.255-.777-2.272-1.737-2.272-.959 0-1.736 1.017-1.736 2.272s.777 2.273 1.736 2.273z" fill="#3D3C40"/><path d="M141.665 288.056c.96 0 1.737-1.017 1.737-2.272s-.777-2.272-1.737-2.272c-.959 0-1.736 1.017-1.736 2.272s.777 2.272 1.736 2.272z" fill="#3D3C40"/><path d="M141.665 285.276c.96 0 1.737-1.017 1.737-2.272s-.777-2.273-1.737-2.273c-.959 0-1.736 1.018-1.736 2.273 0 1.255.777 2.272 1.736 2.272z" fill="#3D3C40"/><path d="M141.665 282.501c.96 0 1.737-1.018 1.737-2.273 0-1.255-.777-2.272-1.737-2.272-.959 0-1.736 1.017-1.736 2.272s.777 2.273 1.736 2.273z" fill="#3D3C40"/><path d="M141.665 279.72c.96 0 1.737-1.017 1.737-2.272s-.777-2.272-1.737-2.272c-.959 0-1.736 1.017-1.736 2.272s.777 2.272 1.736 2.272z" fill="#3D3C40"/><path d="M148.165 258.438c.237-.301.453-.619.646-.951l-4.563-.748 4.933.037a8.335 8.335 0 00.161-6.591l-6.623 3.436 6.106-4.489a8.314 8.314 0 10-13.732 9.306c-.37.472-.689.981-.952 1.52l5.926 3.076-6.319-2.12a8.383 8.383 0 00-.438 2.669 8.255 8.255 0 001.783 5.141 8.306 8.306 0 00-.94 8.769 8.313 8.313 0 0011.888 3.413 8.308 8.308 0 002.128-12.182 8.311 8.311 0 00-.004-10.286z" fill="#06D6A0"/><path opacity=".1" d="M133.31 263.578a8.255 8.255 0 001.783 5.141 8.306 8.306 0 00-.94 8.769 8.313 8.313 0 0011.888 3.413 8.308 8.308 0 002.128-12.182c1.113-1.413-14.859-6.073-14.859-5.141z" fill="#3D3C40"/><path d="M443.193 16.055s-42.825-2.57-37.78 27.276c0 0-1.017 5.276 3.805 7.669 0 0 .076-2.21 4.394-1.457a20.2 20.2 0 004.654.222 9.725 9.725 0 005.686-2.311s12.039-4.948 16.718-24.514c0 0 3.463-4.27 3.326-5.367l-7.227 3.07s2.472 5.185.509 9.493c0 0-.234-9.308-1.623-9.105-.279.04-3.753 1.795-3.753 1.795s4.247 9.03 1.042 15.596c0 0 1.216-11.128-2.37-14.943l-5.086 2.954s4.964 9.329 1.597 16.942c0 0 .864-11.676-2.67-16.223l-4.608 3.576s4.664 9.191 1.821 15.505c0 0-.372-13.587-2.818-14.614 0 0-4.034 3.541-4.649 4.988 0 0 3.194 6.677 1.21 10.198 0 0-1.215-9.055-2.212-9.105 0 0-4.018 5.999-4.435 10.117 0 0 .173-6.116 3.463-10.684 0 0-3.886.663-6.154 3.164 0 0 .625-4.238 7.146-4.613 0 0 3.321-4.552 4.206-4.825 0 0-6.48-.543-10.411 1.193 0 0 3.458-4 11.601-2.18l4.552-3.698s-8.534-1.158-12.155.122c0 0 4.165-3.541 13.381-.961l4.954-2.944s-7.278-1.559-11.611-1.012c0 0 4.577-2.453 13.066.207l3.56-1.582s-5.33-1.042-6.892-1.209c-1.562-.166-1.642-.591-1.642-.591a18.58 18.58 0 0110.014 1.108s7.518-2.786 7.391-3.257zM384.646.025s-18.648-1.172-16.469 12.47c0 0-.438 2.41 1.659 3.505 0 0 .034-1.023 1.918-.67.67.117 1.35.152 2.027.102a4.111 4.111 0 002.478-1.065s5.251-2.261 7.292-11.205c0 0 1.507-1.95 1.447-2.451l-3.15 1.402s1.075 2.369.23 4.339c0 0-.103-4.253-.706-4.155-.123 0-1.639.823-1.639.823s1.855 4.13.456 7.128c0 0 .53-5.086-1.035-6.831l-2.218 1.372s2.164 4.262.696 7.742c0 0 .379-5.337-1.163-7.415l-2.007 1.638s2.032 4.2.795 7.088c0 0-.166-6.212-1.232-6.683 0 0-1.756 1.617-2.026 2.282 0 0 1.393 3.07.53 4.662 0 0-.53-4.14-.982-4.161 0 0-1.752 2.743-1.933 4.605.087-1.737.609-3.42 1.511-4.882a5.208 5.208 0 00-2.684 1.449s.275-1.94 3.116-2.108c0 0 1.473-2.083 1.836-2.21 0 0-2.827-.246-4.54.548 0 0 1.507-1.827 5.055-.998l1.963-1.689s-3.723-.516-5.302.053c0 0 1.815-1.617 5.835-.44l2.159-1.345s-3.175-.711-5.064-.458c0 0 1.997-1.12 5.697.092l1.546-.722s-2.324-.476-3.008-.552c-.684-.077-.717-.272-.717-.272a7.74 7.74 0 014.368.512s3.319-1.287 3.261-1.5zm-384.292 32s18.648-1.172 16.469 12.47c0 0 .439 2.41-1.659 3.505 0 0-.034-1.023-1.918-.67-.67.117-1.35.151-2.027.102a4.112 4.112 0 01-2.478-1.065s-5.25-2.261-7.292-11.205c0 0-1.507-1.95-1.447-2.451l3.15 1.402s-1.075 2.369-.23 4.339c0 0 .103-4.253.706-4.155.123 0 1.64.823 1.64.823s-1.856 4.13-.457 7.128c0 0-.53-5.086 1.035-6.831l2.218 1.372S5.9 41.05 7.367 44.53c0 0-.378-5.337 1.164-7.414l2.007 1.637s-2.032 4.2-.795 7.088c0 0 .166-6.212 1.232-6.683 0 0 1.756 1.617 2.027 2.282 0 0-1.394 3.07-.53 4.662 0 0 .53-4.14.98-4.161 0 0 1.753 2.743 1.934 4.605a10.285 10.285 0 00-1.511-4.882 5.21 5.21 0 012.684 1.449s-.275-1.94-3.116-2.108c0 0-1.473-2.083-1.836-2.21 0 0 2.827-.246 4.54.548 0 0-1.507-1.827-5.055-.998L9.13 36.657s3.723-.516 5.302.053c0 0-1.815-1.617-5.835-.44l-2.16-1.345s3.176-.711 5.065-.457c0 0-1.997-1.121-5.697.09l-1.546-.72s2.324-.477 3.008-.553c.684-.077.717-.272.717-.272a7.738 7.738 0 00-4.368.512s-3.319-1.287-3.261-1.5z" fill="#06D6A0"/><ellipse cx="212" cy="135.5" rx="44" ry="43.5" fill="#fff"/><path d="M258 136.001a45.994 45.994 0 01-28.398 42.498 46.005 46.005 0 01-50.13-9.973 45.997 45.997 0 01-9.97-50.131A46.001 46.001 0 01258 136.001zm-51.316 24.349l34.122-34.122a2.954 2.954 0 00.872-2.099 2.958 2.958 0 00-.872-2.1l-4.198-4.167a2.977 2.977 0 00-.961-.645 2.97 2.97 0 00-2.27 0 2.97 2.97 0 00-.962.645l-27.83 27.831-12.995-13.026a2.978 2.978 0 00-4.198 0l-4.198 4.223a2.978 2.978 0 000 4.199l19.293 19.286a2.97 2.97 0 002.099.871 2.97 2.97 0 002.099-.871l-.001-.025z" fill="#06D6A0"/><defs><filter id="filter0_f" x="53" y="41" width="326.682" height="256" filterUnits="userSpaceOnUse" color-interpolation-filters="sRGB"><feFlood flood-opacity="0" result="BackgroundImageFix"/><feBlend in="SourceGraphic" in2="BackgroundImageFix" result="shape"/><feGaussianBlur stdDeviation="2" result="effect1_foregroundBlur"/></filter></defs></svg>