<svg width="168" height="119" fill="none" xmlns="http://www.w3.org/2000/svg"><g clip-path="url(#clip0)"><g filter="url(#filter0_f)"><path fill-rule="evenodd" clip-rule="evenodd" d="M139.733 5.43a3.293 3.293 0 00-.22-1.201 3.15 3.15 0 00-.638-1.02 2.963 2.963 0 00-.959-.684 2.83 2.83 0 00-1.134-.245H5.109a2.891 2.891 0 00-2.092.93 3.228 3.228 0 00-.859 2.22v93.378c0 .827.311 1.62.865 2.205a2.876 2.876 0 002.086.913h49.255l-1.481 13.46h35.615l-1.946-13.46h49.001c2.777.002 4.182-1.193 4.18-4.327V5.43z" fill="#3D3C40" fill-opacity=".08"/></g><path d="M68.86 119c35.288 0 63.896-1.036 63.896-2.313 0-1.278-28.608-2.313-63.897-2.313s-63.896 1.035-63.896 2.313c0 1.277 28.607 2.313 63.896 2.313z" fill="#3D3C40" fill-opacity=".08"/><path opacity=".1" d="M86.862 115.607H69.13l-17.767-.24.106-.963h35.217l.176 1.203z" fill="#3D3C40"/><path d="M86.896 115.847l-35.533-.48.106-.963 1.717-15.88H84.39l2.295 15.88.176 1.203.034.24zM137.575 3.149a3.293 3.293 0 00-.22-1.2 3.15 3.15 0 00-.638-1.02 2.963 2.963 0 00-.959-.685A2.834 2.834 0 00134.624 0H2.951A2.89 2.89 0 00.86.93 3.228 3.228 0 000 3.148v84.309h137.575V3.149z" fill="#fff"/><path d="M86.896 115.847l-35.533-.48.106-.963 1.717-15.88H84.39l2.295 15.88.176 1.203.034.24z" fill="#3D3C40" fill-opacity=".24"/><path d="M92.591 114.645h-47.15v1.202h47.15v-1.202z" fill="#fff"/><path d="M92.591 114.645h-47.15v1.202h47.15v-1.202z" fill="#3D3C40" fill-opacity=".24"/><path opacity=".1" d="M72.547 99.607l14.176 15.037-2.176-15.037h-12z" fill="#3D3C40"/><path d="M137.575 3.149a3.293 3.293 0 00-.22-1.2 3.15 3.15 0 00-.638-1.02 2.963 2.963 0 00-.959-.685A2.834 2.834 0 00134.624 0H2.951A2.89 2.89 0 00.86.93 3.228 3.228 0 000 3.148v84.309h137.575V3.149z" fill="#3D3C40" fill-opacity=".72"/><path d="M0 86.615v9.875c0 .827.31 1.62.864 2.204a2.873 2.873 0 002.087.913h131.673c.387 0 .771-.08 1.129-.236.358-.157.684-.387.958-.676.274-.29.491-.634.64-1.012.148-.378.224-.784.224-1.193v-9.875H0z" fill="#fff"/><path d="M0 86.654v9.875c0 .827.31 1.62.864 2.204a2.874 2.874 0 002.087.913h131.673c.387 0 .771-.08 1.129-.237.358-.156.684-.386.958-.675.274-.29.491-.633.64-1.012.148-.378.224-.784.224-1.193v-9.875H0z" fill="#3D3C40" fill-opacity=".24"/><path d="M132.564 5.293H5.695v75.789h126.869V5.293z" fill="#fff"/><ellipse cx="68.857" cy="93.268" rx="3.238" ry="3.421" fill="#3D3C40" fill-opacity=".16"/><g filter="url(#filter1_f)"><path fill-rule="evenodd" clip-rule="evenodd" d="M130.426 38.837h28.666c2.064 0 3.737 1.76 3.737 3.93v13.59h.035c.255 0 .461.218.461.486v8.391a.473.473 0 01-.461.486h-.035v46.419c0 2.171-1.673 3.93-3.737 3.93h-28.666c-2.064 0-3.737-1.759-3.737-3.93V67.317a.328.328 0 01-.028.001h-.002a.334.334 0 01-.325-.341v-4.729c0-.188.146-.341.325-.341h.002l.028.001V60.03l-.022.001h-.002a.35.35 0 01-.341-.358v-4.648a.35.35 0 01.341-.359h.002l.022.001v-11.9c0-2.17 1.673-3.93 3.737-3.93z" fill="#3D3C40" fill-opacity=".16"/></g><path fill-rule="evenodd" clip-rule="evenodd" d="M130.426 39.533h28.666c2.064 0 3.737 1.76 3.737 3.93v13.59h.035c.255 0 .461.218.461.486v8.391a.473.473 0 01-.461.486h-.035v46.419c0 2.171-1.673 3.93-3.737 3.93h-28.666c-2.064 0-3.737-1.759-3.737-3.93V68.013a.328.328 0 01-.028 0h-.002a.334.334 0 01-.325-.34v-4.73c0-.188.146-.34.325-.34h.03v-1.877h-.024a.35.35 0 01-.341-.357V55.72a.35.35 0 01.341-.358h.024v-11.9c0-2.17 1.673-3.93 3.737-3.93z" fill="#fff"/><path fill-rule="evenodd" clip-rule="evenodd" d="M130.426 39.533h28.666c2.064 0 3.737 1.76 3.737 3.93v13.59h.035c.255 0 .461.218.461.486v8.391a.473.473 0 01-.461.486h-.035v46.419c0 2.171-1.673 3.93-3.737 3.93h-28.666c-2.064 0-3.737-1.759-3.737-3.93V68.013a.328.328 0 01-.028 0h-.002a.334.334 0 01-.325-.34v-4.73c0-.188.146-.34.325-.34h.03v-1.877h-.024a.35.35 0 01-.341-.357V55.72a.35.35 0 01.341-.358h.024v-11.9c0-2.17 1.673-3.93 3.737-3.93z" fill="#3D3C40" fill-opacity=".72"/><path d="M145.809 41.839h-4.024a.526.526 0 00-.512.538c0 .298.23.539.512.539h4.024a.526.526 0 00.512-.539.525.525 0 00-.512-.538zm1.854 1.151c.32 0 .58-.273.58-.61 0-.338-.26-.611-.58-.611-.321 0-.581.273-.581.61 0 .338.26.61.581.61z" fill="#E6E8EC"/><path d="M157.725 41.546h-4.136v.524a2.551 2.551 0 01-.692 1.754 2.306 2.306 0 01-1.667.73h-13.195a2.308 2.308 0 01-1.672-.728 2.554 2.554 0 01-.692-1.758v-.522h-3.881c-.761 0-1.491.32-2.029.885a3.1 3.1 0 00-.841 2.134v67.17c0 .397.074.789.218 1.155.145.366.356.699.623.979.266.281.583.503.931.655.348.151.721.23 1.098.23h25.935c.377 0 .75-.078 1.099-.23.348-.151.665-.374.931-.654.267-.28.478-.613.622-.979.145-.367.219-.759.218-1.156V44.563c0-.8-.303-1.568-.841-2.133a2.8 2.8 0 00-2.029-.884z" fill="#fff"/><path d="M144.849 119c12.785 0 23.149-.935 23.149-2.088s-10.364-2.088-23.149-2.088-23.15.935-23.15 2.088S132.064 119 144.849 119z" fill="#3D3C40" fill-opacity=".08"/><path fill-rule="evenodd" clip-rule="evenodd" d="M130.432 39.666h28.666c2.064 0 3.737 1.76 3.737 3.93v13.591h.035c.254 0 .461.218.461.486v8.391a.474.474 0 01-.461.486h-.035v46.419c0 2.17-1.673 3.93-3.737 3.93h-28.666c-2.064 0-3.737-1.76-3.737-3.93V68.146a.291.291 0 01-.028.002h-.002a.333.333 0 01-.325-.341v-4.73c0-.188.145-.34.325-.34h.03V60.86h-.024a.35.35 0 01-.341-.358v-4.648a.35.35 0 01.341-.358h.024v-11.9c0-2.17 1.673-3.93 3.737-3.93z" fill="#fff"/><path fill-rule="evenodd" clip-rule="evenodd" d="M130.432 39.666h28.666c2.064 0 3.737 1.76 3.737 3.93v13.591h.035c.254 0 .461.218.461.486v8.391a.474.474 0 01-.461.486h-.035v46.419c0 2.17-1.673 3.93-3.737 3.93h-28.666c-2.064 0-3.737-1.76-3.737-3.93V68.146a.291.291 0 01-.028.002h-.002a.333.333 0 01-.325-.341v-4.73c0-.188.145-.34.325-.34h.03V60.86h-.024a.35.35 0 01-.341-.358v-4.648a.35.35 0 01.341-.358h.024v-11.9c0-2.17 1.673-3.93 3.737-3.93z" fill="#3D3C40" fill-opacity=".72"/><path d="M145.815 41.973h-4.024a.526.526 0 00-.512.538c0 .297.23.538.512.538h4.024a.526.526 0 00.512-.538.525.525 0 00-.512-.538zm1.853 1.151c.321 0 .581-.274.581-.61 0-.338-.26-.611-.581-.611-.32 0-.58.273-.58.61 0 .337.26.61.58.61z" fill="#E6E8EC"/><path d="M157.731 41.68h-4.137v.524a2.55 2.55 0 01-.691 1.754 2.306 2.306 0 01-1.667.73h-13.195a2.307 2.307 0 01-1.672-.728 2.554 2.554 0 01-.692-1.758v-.522h-3.881a2.8 2.8 0 00-2.029.885 3.1 3.1 0 00-.841 2.134v67.17c0 .396.074.789.218 1.155.145.366.356.699.623.979.266.281.582.503.931.655.348.151.721.229 1.098.229h25.935a2.73 2.73 0 001.099-.229c.348-.151.664-.374.931-.654s.478-.613.622-.98c.144-.366.218-.759.218-1.155V44.696c0-.8-.303-1.567-.841-2.133a2.8 2.8 0 00-2.029-.883z" fill="#fff"/><g clip-path="url(#clip1)"><path fill="#145DBF" d="M5.291 10.439h26.457v76.55H5.291z"/><path fill="#1153AB" d="M5.291 10.439h26.457v7.655H5.291z"/><path fill="#fff" d="M31.748 10.439h101.197v7.655H31.748z"/><path stroke="#3D3C40" stroke-opacity=".16" d="M31.748 17.594h101.197"/><ellipse opacity=".32" cx="9.26" cy="14.614" rx="1.984" ry="2.088" fill="#fff"/><rect opacity=".32" x="13.229" y="12.526" width="16.535" height="2.088" rx="1.044" fill="#fff"/><rect opacity=".32" x="8.598" y="21.573" width="20.504" height="1.392" rx=".696" fill="#fff"/><rect opacity=".32" x="8.598" y="25.748" width="13.228" height="1.392" rx=".696" fill="#fff"/><rect opacity=".32" x="8.598" y="29.924" width="19.181" height="1.392" rx=".696" fill="#fff"/><rect opacity=".32" x="8.598" y="34.1" width="15.213" height="1.392" rx=".696" fill="#fff"/><rect opacity=".32" x="8.598" y="38.275" width="20.504" height="1.392" rx=".696" fill="#fff"/><rect opacity=".32" x="8.598" y="42.451" width="9.921" height="1.392" rx=".696" fill="#fff"/><rect opacity=".32" x="8.598" y="46.626" width="20.504" height="1.392" rx=".696" fill="#fff"/><rect opacity=".32" x="8.598" y="50.801" width="15.213" height="1.392" rx=".696" fill="#fff"/><rect opacity=".32" x="13.229" y="16.006" width="16.535" height=".696" rx=".348" fill="#fff"/><rect x="35.055" y="13.223" width="16.535" height="1.392" rx=".696" fill="#3D3C40" fill-opacity=".24"/><ellipse cx="37.039" cy="22.965" rx="1.984" ry="2.088" fill="#3D3C40" fill-opacity=".24"/><rect x="41.008" y="22.269" width="16.535" height="1.392" rx=".696" fill="#3D3C40" fill-opacity=".24"/><rect x="41.008" y="25.053" width="58.205" height="1.392" rx=".696" fill="#3D3C40" fill-opacity=".24"/><rect x="41.008" y="27.836" width="47.622" height="1.392" rx=".696" fill="#3D3C40" fill-opacity=".24"/><ellipse cx="37.039" cy="34.796" rx="1.984" ry="2.088" fill="#3D3C40" fill-opacity=".24"/><rect x="41.008" y="34.1" width="16.535" height="1.392" rx=".696" fill="#3D3C40" fill-opacity=".24"/><rect x="41.008" y="36.883" width="58.205" height="1.392" rx=".696" fill="#3D3C40" fill-opacity=".24"/><rect x="41.008" y="39.667" width="47.622" height="1.392" rx=".696" fill="#3D3C40" fill-opacity=".24"/><ellipse cx="37.039" cy="46.626" rx="1.984" ry="2.088" fill="#3D3C40" fill-opacity=".24"/><rect x="41.008" y="45.93" width="16.535" height="1.392" rx=".696" fill="#3D3C40" fill-opacity=".24"/><rect x="41.008" y="48.713" width="58.205" height="1.392" rx=".696" fill="#3D3C40" fill-opacity=".24"/><rect x="41.008" y="51.497" width="47.622" height="1.392" rx=".696" fill="#3D3C40" fill-opacity=".24"/><ellipse cx="37.039" cy="58.456" rx="1.984" ry="2.088" fill="#3D3C40" fill-opacity=".24"/><rect x="41.008" y="57.76" width="16.535" height="1.392" rx=".696" fill="#3D3C40" fill-opacity=".24"/><rect x="41.008" y="60.544" width="58.205" height="1.392" rx=".696" fill="#3D3C40" fill-opacity=".24"/><rect x="41.008" y="63.328" width="47.622" height="1.392" rx=".696" fill="#3D3C40" fill-opacity=".24"/><rect x="101.857" y="12.526" width="17.858" height="2.784" rx="1.392" fill="#3D3C40" fill-opacity=".16"/><rect x="122.361" y="12.526" width="2.646" height="2.784" rx="1.323" fill="#3D3C40" fill-opacity=".16"/><rect x="127.652" y="12.526" width="2.646" height="2.784" rx="1.323" fill="#3D3C40" fill-opacity=".16"/><rect x="96.566" y="12.526" width="2.646" height="2.784" rx="1.323" fill="#3D3C40" fill-opacity=".16"/><rect x="91.275" y="12.526" width="2.646" height="2.784" rx="1.323" fill="#3D3C40" fill-opacity=".16"/><path fill="#3D3C40" fill-opacity=".08" d="M5.291 4.872h127.654v5.567H5.291z"/><ellipse cx="8.268" cy="8.003" rx=".992" ry="1.044" fill="#F74343"/><ellipse cx="12.236" cy="8.003" rx=".992" ry="1.044" fill="#FFBC42"/><ellipse cx="16.205" cy="8.003" rx=".992" ry="1.044" fill="#06D6A0"/><rect x="34.393" y="73.07" width="94.583" height="4.871" rx="2" fill="#3D3C40" fill-opacity=".16"/></g><mask id="a" maskUnits="userSpaceOnUse" x="128" y="41" width="33" height="74"><path d="M157.782 41.754h-4.137v.524a2.55 2.55 0 01-.691 1.754 2.306 2.306 0 01-1.667.73h-13.195a2.307 2.307 0 01-1.672-.728 2.55 2.55 0 01-.693-1.758v-.522h-3.88a2.808 2.808 0 00-2.029.885 3.1 3.1 0 00-.841 2.134v67.17c0 .397.074.789.218 1.155.144.366.356.699.622.979.267.281.583.503.932.655.348.151.721.23 1.098.23h25.935c.377 0 .75-.078 1.098-.23.349-.151.665-.374.932-.654.266-.28.478-.613.622-.979.144-.367.218-.759.218-1.156V44.771a3.102 3.102 0 00-.841-2.133 2.802 2.802 0 00-2.029-.884z" fill="#fff"/></mask><g mask="url(#a)"><path d="M129.639 110.417c0-1.025.831-1.855 1.855-1.855h26.714c1.025 0 1.856.83 1.856 1.855a3.712 3.712 0 01-3.712 3.712H133.35a3.711 3.711 0 01-3.711-3.712z" fill="#3D3C40" fill-opacity=".16"/><ellipse cx="132.283" cy="55.673" rx="1.984" ry="2.088" fill="#3D3C40" fill-opacity=".24"/><rect x="136.252" y="54.977" width="16.535" height="1.392" rx=".696" fill="#3D3C40" fill-opacity=".24"/><rect x="136.252" y="57.76" width="21.827" height="1.392" rx=".696" fill="#3D3C40" fill-opacity=".24"/><rect x="136.252" y="60.544" width="17.858" height="1.392" rx=".696" fill="#3D3C40" fill-opacity=".24"/><rect x="136.252" y="63.328" width="19.843" height="1.392" rx=".696" fill="#3D3C40" fill-opacity=".24"/><ellipse cx="132.283" cy="68.895" rx="1.984" ry="2.088" fill="#3D3C40" fill-opacity=".24"/><rect x="136.252" y="68.199" width="16.535" height="1.392" rx=".696" fill="#3D3C40" fill-opacity=".24"/><rect x="136.252" y="70.982" width="21.827" height="1.392" rx=".696" fill="#3D3C40" fill-opacity=".24"/><rect x="136.252" y="73.766" width="17.858" height="1.392" rx=".696" fill="#3D3C40" fill-opacity=".24"/><rect x="136.252" y="76.55" width="19.843" height="1.392" rx=".696" fill="#3D3C40" fill-opacity=".24"/><ellipse cx="132.283" cy="82.117" rx="1.984" ry="2.088" fill="#3D3C40" fill-opacity=".24"/><rect x="136.252" y="81.421" width="16.535" height="1.392" rx=".696" fill="#3D3C40" fill-opacity=".24"/><rect x="136.252" y="84.205" width="21.827" height="1.392" rx=".696" fill="#3D3C40" fill-opacity=".24"/><rect x="136.252" y="86.988" width="17.858" height="1.392" rx=".696" fill="#3D3C40" fill-opacity=".24"/><rect x="136.252" y="89.772" width="19.843" height="1.392" rx=".696" fill="#3D3C40" fill-opacity=".24"/><ellipse cx="132.283" cy="95.339" rx="1.984" ry="2.088" fill="#3D3C40" fill-opacity=".24"/><rect x="136.252" y="94.643" width="16.535" height="1.392" rx=".696" fill="#3D3C40" fill-opacity=".24"/><rect x="136.252" y="97.427" width="21.827" height="1.392" rx=".696" fill="#3D3C40" fill-opacity=".24"/><rect x="136.252" y="100.21" width="17.858" height="1.392" rx=".696" fill="#3D3C40" fill-opacity=".24"/><rect x="136.252" y="102.994" width="19.843" height="1.392" rx=".696" fill="#3D3C40" fill-opacity=".24"/><path fill="#145DBF" d="M126.992 40.363h34.394v11.134h-34.394z"/><rect opacity=".48" x="134.93" y="47.322" width="11.244" height="1.392" rx=".696" fill="#fff"/><rect opacity=".48" x="156.094" y="46.626" width="2.646" height="2.784" rx="1.323" fill="#fff"/><rect opacity=".48" x="130.961" y="46.626" width="2.646" height="2.784" rx="1.323" fill="#fff"/></g></g><defs><clipPath id="clip0"><path fill="#fff" d="M0 0h168v119H0z"/></clipPath><clipPath id="clip1"><path fill="#fff" transform="translate(5.291 4.872)" d="M0 0h127.272v76.55H0z"/></clipPath><filter id="filter0_f" x="-1.842" y="-1.72" width="145.575" height="121.107" filterUnits="userSpaceOnUse" color-interpolation-filters="sRGB"><feFlood flood-opacity="0" result="BackgroundImageFix"/><feBlend in="SourceGraphic" in2="BackgroundImageFix" result="shape"/><feGaussianBlur stdDeviation="2" result="effect1_foregroundBlur"/></filter><filter id="filter1_f" x="122.324" y="34.837" width="45.001" height="85.232" filterUnits="userSpaceOnUse" color-interpolation-filters="sRGB"><feFlood flood-opacity="0" result="BackgroundImageFix"/><feBlend in="SourceGraphic" in2="BackgroundImageFix" result="shape"/><feGaussianBlur stdDeviation="2" result="effect1_foregroundBlur"/></filter></defs></svg>