<svg width="255" height="409" fill="none" xmlns="http://www.w3.org/2000/svg"><path d="M5.597 408.423l-2.49-2.24 2.494-2.244 2.49 2.24zm134.678-121.157l-2.49-2.24 2.494-2.244 2.49 2.24zM5.796 166.288l-2.49-2.24 2.494-2.244 2.49 2.24zM28.044 388.23l-2.491-2.24 2.494-2.244 2.49 2.24zm134.677-121.157l-2.49-2.24 2.494-2.244 2.49 2.24zM28.243 146.096l-2.49-2.24 2.493-2.244 2.49 2.24zM50.49 368.037l-2.49-2.24 2.493-2.244 2.49 2.24zM185.167 246.88l-2.49-2.24 2.494-2.244 2.49 2.24zM50.689 125.902l-2.49-2.24 2.494-2.244 2.49 2.24zm22.247 221.943l-2.49-2.24 2.494-2.244 2.49 2.24zm134.677-121.157l-2.49-2.24 2.494-2.244 2.49 2.24zM73.135 105.71l-2.49-2.24 2.494-2.244 2.49 2.24zm22.247 221.941l-2.49-2.24 2.494-2.244 2.49 2.24zM230.06 206.494l-2.49-2.24 2.494-2.244 2.49 2.24zM95.581 85.517l-2.49-2.24 2.494-2.245 2.49 2.24zm22.247 221.942l-2.49-2.24 2.494-2.244 2.49 2.24zm134.678-121.157l-2.49-2.24 2.494-2.244 2.49 2.24zM118.028 65.324l-2.49-2.24 2.494-2.244 2.49 2.24zm-.166 201.779l-2.49-2.24 2.494-2.244 2.49 2.24zM5.63 368.067l-2.49-2.24 2.494-2.244 2.49 2.24zM140.308 246.91l-2.49-2.24 2.494-2.244 2.49 2.24zM5.83 125.933l-2.49-2.24 2.493-2.244 2.49 2.24zm22.247 221.941l-2.49-2.24 2.493-2.244 2.49 2.24zm134.677-121.157l-2.49-2.24 2.494-2.244 2.49 2.24zM28.276 105.739l-2.49-2.24 2.494-2.244 2.49 2.24zm22.247 221.943l-2.49-2.24 2.494-2.244 2.49 2.24zM185.2 206.524l-2.49-2.24 2.494-2.244 2.49 2.24zM50.722 85.547l-2.49-2.24 2.494-2.244 2.49 2.24zM72.97 307.488l-2.491-2.24 2.494-2.244 2.49 2.24zm134.677-121.157l-2.49-2.24 2.494-2.244 2.49 2.24zM73.168 65.353l-2.49-2.24 2.494-2.244 2.49 2.24zm22.247 221.943l-2.49-2.24 2.494-2.244 2.49 2.24zm134.678-121.157l-2.49-2.24 2.494-2.244 2.49 2.24zM95.615 45.161l-2.49-2.24 2.493-2.244 2.49 2.24zm-.166 201.778l-2.49-2.24 2.493-2.244 2.49 2.24zm22.446-20.192l-2.49-2.24 2.494-2.244 2.49 2.24zM5.664 327.711l-2.49-2.24 2.493-2.244 2.49 2.24zm134.677-121.156l-2.49-2.24 2.494-2.244 2.49 2.24zM5.863 85.576l-2.49-2.24 2.494-2.244 2.49 2.24zM28.11 307.519l-2.49-2.24 2.494-2.244 2.49 2.24zm134.677-121.158l-2.49-2.24 2.494-2.244 2.49 2.24zM28.31 65.384l-2.491-2.24 2.494-2.245 2.49 2.241zm22.246 221.941l-2.49-2.24 2.494-2.244 2.49 2.24zm134.678-121.156l-2.49-2.24 2.494-2.244 2.49 2.24zM50.755 45.19l-2.49-2.24 2.494-2.244 2.49 2.24zm22.247 221.943l-2.49-2.24 2.494-2.244 2.49 2.24zM207.68 145.976l-2.49-2.24 2.494-2.244 2.49 2.24zM73.202 24.998l-2.49-2.24 2.493-2.244 2.49 2.24zm-.166 201.779l-2.49-2.24 2.493-2.244 2.49 2.24zm22.446-20.193l-2.49-2.24 2.494-2.244 2.49 2.24zm22.446-20.192l-2.49-2.24 2.494-2.244 2.49 2.24zM5.697 287.355l-2.49-2.24L5.7 282.87l2.49 2.24zm134.677-121.157l-2.49-2.24 2.494-2.244 2.49 2.24zM5.896 45.22l-2.49-2.24L5.9 40.736l2.49 2.24zm22.247 221.943l-2.49-2.24 2.494-2.244 2.49 2.24zm134.678-121.157l-2.49-2.24 2.494-2.244 2.49 2.24zM28.342 25.027l-2.49-2.24 2.494-2.244 2.49 2.24zM50.59 246.97l-2.491-2.24 2.494-2.244 2.49 2.24zm134.677-121.158l-2.49-2.24 2.494-2.244 2.49 2.24zM50.788 4.835l-2.49-2.24L50.792.35l2.49 2.24zm-.165 201.779l-2.491-2.24 2.494-2.244 2.49 2.24zm22.446-20.193l-2.49-2.24 2.494-2.244 2.49 2.24zm22.446-20.192l-2.49-2.24 2.494-2.244 2.49 2.24zm22.446-20.194l-2.49-2.24 2.494-2.244 2.49 2.24zM5.73 247l-2.49-2.24 2.494-2.244 2.49 2.24zm134.677-121.157l-2.49-2.24 2.494-2.244 2.49 2.24zM5.93 4.865l-2.491-2.24L5.933.38l2.49 2.24zm22.246 221.942l-2.49-2.24 2.494-2.244 2.49 2.24zm134.678-121.158l-2.49-2.24 2.494-2.244 2.49 2.24zM28.21 186.451l-2.491-2.24 2.494-2.244 2.49 2.24zm22.446-20.193l-2.49-2.24 2.493-2.244 2.49 2.24zm22.446-20.193l-2.49-2.24 2.494-2.244 2.49 2.24zm22.446-20.193l-2.49-2.24 2.494-2.244 2.49 2.24zm22.446-20.192l-2.49-2.24 2.494-2.244 2.49 2.24zM5.763 206.644l-2.49-2.24 2.494-2.244 2.49 2.24zM140.441 85.487l-2.49-2.24 2.494-2.244 2.49 2.24z" opacity=".16" fill="#166DE0"/></svg>