<svg width="73" height="61" fill="none" xmlns="http://www.w3.org/2000/svg"><path d="M45.903 7.273c-4.818 2.492-9.594 5.068-14.366 7.646-1.298.701-2.877 1.086-3.837 2.205-.194.226.398.444.59.671 2.327 2.75 13.764 15.844 12.821 14.116-2.043-3.748-4.744-6.68-7.44-9.943-1.41-1.708-4.166-5.441-4.166-5.441" stroke="#06D6A0" stroke-width="2" stroke-linecap="round" stroke-linejoin="round"/><path d="M28 17c25.5 0 49.5 12 41.5 42.5" stroke="#06D6A0" stroke-width="3" stroke-linecap="round"/><path d="M27.852 8.466C21.801 2.356 10.5-2 3.285 7.65-.75 13.046 1 21.5 6.34 25.892 12.494 30.953 20.228 30.201 25 25c6.706-7.309 1.072-19.731-9.1-19.731" stroke="#06D6A0" stroke-width="2" stroke-linecap="round" stroke-linejoin="round"/></svg>