<svg width="18" height="18" fill="none" xmlns="http://www.w3.org/2000/svg"><g clip-path="url(#clip0)"><path d="M9 0C7.38 0 5.868.414 4.464 1.242a8.826 8.826 0 00-3.222 3.222A8.777 8.777 0 000 9c0 1.62.414 3.132 1.242 4.536a8.826 8.826 0 003.222 3.222A8.777 8.777 0 009 18c1.62 0 3.132-.414 4.536-1.242a8.826 8.826 0 003.222-3.222A8.777 8.777 0 0018 9c0-1.62-.414-3.132-1.242-4.536a8.826 8.826 0 00-3.222-3.222A8.777 8.777 0 009 0zm0 16.2a6.984 6.984 0 01-3.618-.99 7.066 7.066 0 01-2.592-2.592A6.984 6.984 0 011.8 9c0-1.296.33-2.502.99-3.618A7.066 7.066 0 015.382 2.79 6.984 6.984 0 019 1.8c1.296 0 2.502.33 3.618.99a7.066 7.066 0 012.592 2.592c.66 1.116.99 2.322.99 3.618 0 1.296-.33 2.502-.99 3.618a7.066 7.066 0 01-2.592 2.592A6.984 6.984 0 019 16.2zm.45-6.3h-.9L8.1 4.5h1.8l-.45 5.4zm.45 2.7c0 .252-.09.468-.27.648A.855.855 0 019 13.5a.916.916 0 01-.648-.252.916.916 0 01-.252-.648c0-.252.084-.462.252-.63.18-.18.396-.27.648-.27s.462.09.63.27c.18.168.27.378.27.63z" fill="#fff"/></g><defs><clipPath id="clip0"><path d="M0 0h18v18H0V0z" fill="#fff"/></clipPath></defs></svg>