<svg width="1366" height="410" fill="none" xmlns="http://www.w3.org/2000/svg"><g opacity=".5" fill-rule="evenodd" clip-rule="evenodd"><path opacity=".08" d="M2042.89-1138.01L-286-473.27l227.038 580.664S-14.636 64.03 111.112 64.03c103.475 0 262.072 29.344 496.548 136.36 77.926 35.566 149.719 50.7 216.206 50.7 376.694 0 583.234-485.766 771.624-493.794 221.64-9.444 517.32-689.824 517.32-689.824l-69.92-205.482z" fill="url(#paint0_linear)"/><path opacity=".08" d="M2059.8-1054.32L-269.095-391.774l227.038 578.756s44.326-43.221 170.074-43.221c103.475 0 262.072 29.247 496.548 135.911 77.926 35.45 149.719 50.534 216.206 50.534 376.699 0 583.229-484.17 771.619-492.171 221.64-9.413 517.32-687.558 517.32-687.558l-69.91-204.797z" fill="url(#paint1_linear)"/><path opacity=".08" d="M2080.08-979.773L-248.81-315.038l227.039 580.665s44.326-43.364 170.074-43.364c103.475 0 262.072 29.343 496.548 136.359 77.926 35.566 149.719 50.701 216.206 50.701 376.693 0 583.233-485.767 771.623-493.794C1854.32-93.916 2150-774.296 2150-774.296l-69.92-205.477z" fill="url(#paint2_linear)"/></g><defs><linearGradient id="paint0_linear" x1="913.404" y1="-363.541" x2="913.405" y2="251.09" gradientUnits="userSpaceOnUse"><stop stop-color="#0058CC" stop-opacity="0"/><stop offset="1" stop-color="#0058CC"/></linearGradient><linearGradient id="paint1_linear" x1="930.309" y1="-282.405" x2="930.309" y2="330.206" gradientUnits="userSpaceOnUse"><stop stop-color="#0058CC" stop-opacity="0"/><stop offset="1" stop-color="#0058CC"/></linearGradient><linearGradient id="paint2_linear" x1="950.595" y1="-205.308" x2="950.595" y2="409.323" gradientUnits="userSpaceOnUse"><stop stop-color="#0058CC" stop-opacity="0"/><stop offset="1" stop-color="#0058CC"/></linearGradient></defs></svg>