<svg width="152" height="207" fill="none" xmlns="http://www.w3.org/2000/svg"><g opacity=".08" fill="#166DE0"><circle transform="matrix(-.74294 .66935 -.74294 -.66935 136.903 24.492)" r="2.951"/><circle transform="matrix(-.74294 .66935 -.74294 -.66935 114.976 4.736)" r="2.951"/><circle transform="matrix(-.74294 .66935 -.74294 -.66935 136.903 64.003)" r="2.951"/><circle transform="matrix(-.74294 .66935 -.74294 -.66935 114.975 44.248)" r="2.951"/><circle transform="matrix(-.74294 .66935 -.74294 -.66935 93.048 24.492)" r="2.951"/><circle r="2.951" transform="matrix(-.74294 .66935 -.74294 -.66935 136.904 103.515)"/><circle transform="matrix(-.74294 .66935 -.74294 -.66935 114.976 83.758)" r="2.951"/><circle transform="matrix(-.74294 .66935 -.74294 -.66935 93.048 64.003)" r="2.951"/><circle r="2.951" transform="matrix(-.74294 .66935 -.74294 -.66935 71.12 44.248)"/><circle transform="matrix(-.74294 .66935 -.74294 -.66935 136.904 143.024)" r="2.951"/><circle transform="matrix(-.74294 .66935 -.74294 -.66935 114.976 123.27)" r="2.951"/><circle r="2.951" transform="matrix(-.74294 .66935 -.74294 -.66935 93.048 103.515)"/><circle transform="matrix(-.74294 .66935 -.74294 -.66935 71.12 83.759)" r="2.951"/><circle transform="matrix(-.74294 .66935 -.74294 -.66935 49.193 64.003)" r="2.951"/><circle transform="matrix(-.74294 .66935 -.74294 -.66935 136.904 182.536)" r="2.951"/><circle transform="matrix(-.74294 .66935 -.74294 -.66935 114.976 162.78)" r="2.951"/><circle transform="matrix(-.74294 .66935 -.74294 -.66935 93.048 143.024)" r="2.951"/><circle transform="matrix(-.74294 .66935 -.74294 -.66935 71.12 123.27)" r="2.951"/><circle r="2.951" transform="matrix(-.74294 .66935 -.74294 -.66935 49.193 103.514)"/><circle transform="matrix(-.74294 .66935 -.74294 -.66935 27.265 83.758)" r="2.951"/><circle transform="matrix(-.74294 .66935 -.74294 -.66935 114.975 202.292)" r="2.951"/><circle transform="matrix(-.74294 .66935 -.74294 -.66935 93.048 182.536)" r="2.951"/><circle transform="matrix(-.74294 .66935 -.74294 -.66935 71.12 162.78)" r="2.951"/><circle transform="matrix(-.74294 .66935 -.74294 -.66935 49.193 143.024)" r="2.951"/><circle transform="matrix(-.74294 .66935 -.74294 -.66935 27.265 123.27)" r="2.951"/><circle r="2.951" transform="matrix(-.74294 .66935 -.74294 -.66935 5.337 103.515)"/></g></svg>