<svg width="32" height="40" fill="none" xmlns="http://www.w3.org/2000/svg"><path d="M1.595 10.357l8.898-8.78A2 2 0 0111.898 1H28a3 3 0 013 3v32a3 3 0 01-3 3H4a3 3 0 01-3-3V11.78a2 2 0 01.595-1.423z" stroke="#338AFF" stroke-width="2"/><path d="M11 2v9a1 1 0 01-1 1H2" stroke="#338AFF" stroke-width="2"/><path d="M14.524 31.992a.222.222 0 00.275-.15l3.91-13.254a.22.22 0 00-.152-.27l-1.078-.31a.225.225 0 00-.275.15l-3.91 13.254a.22.22 0 00.152.27l1.078.31zm-2.311-3.312l.755-.793a.219.219 0 00-.014-.314L10.007 25l2.947-2.573a.217.217 0 00.014-.314l-.755-.793a.226.226 0 00-.314-.011L8.07 24.84a.216.216 0 000 .32l3.828 3.53a.226.226 0 00.314-.01zm7.891.011a.226.226 0 01-.314-.01l-.755-.794a.217.217 0 01.014-.314L21.996 25l-2.947-2.573a.219.219 0 01-.014-.314l.755-.793a.223.223 0 01.314-.011l3.825 3.532a.216.216 0 010 .32l-3.825 3.53z" fill="#338AFF" stroke="#338AFF" stroke-width=".5"/></svg>