<svg width="250" height="28" fill="none" xmlns="http://www.w3.org/2000/svg"><path fill-rule="evenodd" clip-rule="evenodd" d="M65.007 13.91c0-.425-.07-.77-.213-1.036a1.587 1.587 0 00-.585-.623 2.43 2.43 0 00-.917-.305 8.421 8.421 0 00-1.21-.08c-.959 0-1.978.186-3.06.558a7.145 7.145 0 01-.558-1.3c-.125-.407-.187-.894-.187-1.46.78-.265 1.56-.46 2.341-.583.78-.124 1.508-.186 2.181-.186 1.845 0 3.286.442 4.323 1.327 1.038.884 1.556 2.299 1.556 4.244v7.959c-.62.194-1.374.38-2.26.557-.887.177-1.89.265-3.007.265-.904 0-1.733-.08-2.487-.238-.754-.16-1.401-.425-1.942-.796a3.748 3.748 0 01-1.25-1.433c-.293-.584-.44-1.3-.44-2.149s.183-1.56.546-2.135a4.2 4.2 0 011.41-1.38 6.252 6.252 0 011.929-.743 10.26 10.26 0 012.128-.225c.514 0 1.082.027 1.702.08v-.319zm0 2.732a11.712 11.712 0 00-.692-.093 6.353 6.353 0 00-.664-.04c-.87 0-1.557.155-2.062.464-.505.31-.758.81-.758 1.5 0 .46.097.813.292 1.06.195.248.43.43.705.544.275.115.568.186.878.212.31.027.581.04.811.04.267 0 .533-.022.798-.066.267-.044.497-.084.692-.12v-3.501zm6.19-4.563h-1.73l-.133-.531 4.975-6.34h.612v4.005h3.219a6.539 6.539 0 01.132 1.38 7.338 7.338 0 01-.133 1.485h-3.218v5.386c0 .548.044.99.133 1.327.088.335.217.6.385.795.17.195.378.328.626.398.248.071.541.107.877.107.267 0 .528-.023.786-.067.257-.044.483-.084.678-.12.124.337.212.686.266 1.049a6.724 6.724 0 01.066 1.459 4.95 4.95 0 01-.04.385 10.84 10.84 0 01-2.527.291c-1.614 0-2.846-.376-3.697-1.127-.852-.752-1.277-1.977-1.277-3.674v-6.208zm9.98 0h-1.729l-.133-.531 4.975-6.34h.611v4.005h3.22a6.49 6.49 0 01.132 1.38 7.285 7.285 0 01-.133 1.485h-3.219v5.386c0 .548.045.99.134 1.327.088.335.217.6.385.795.169.195.377.328.626.398.248.071.54.107.877.107.266 0 .528-.023.785-.067.257-.044.483-.084.678-.12.124.337.213.686.266 1.049a6.699 6.699 0 01.067 1.459 5 5 0 01-.04.385c-.816.194-1.658.291-2.527.291-1.614 0-2.847-.376-3.698-1.127-.851-.752-1.277-1.977-1.277-3.674v-6.208zm17.474 2.52c-.035-.85-.27-1.534-.705-2.056-.434-.522-1.041-.783-1.822-.783-.887 0-1.56.248-2.022.743-.46.495-.736 1.194-.824 2.096h5.373zm-5.4 2.626c.071 1.061.444 1.83 1.117 2.308.674.478 1.561.717 2.66.717.604 0 1.22-.058 1.85-.173a10.5 10.5 0 001.795-.49c.195.353.363.778.505 1.273.142.495.222 1.026.24 1.591-1.384.531-2.944.796-4.682.796-1.277 0-2.372-.176-3.286-.53-.913-.354-1.658-.845-2.234-1.472a5.905 5.905 0 01-1.277-2.242c-.275-.867-.412-1.813-.412-2.839 0-1.008.142-1.954.426-2.838a6.616 6.616 0 011.263-2.308 5.974 5.974 0 012.075-1.553c.825-.38 1.787-.57 2.886-.57.958 0 1.81.168 2.554.504a5.623 5.623 0 011.902 1.38 5.807 5.807 0 011.184 2.082c.266.805.399 1.667.399 2.587 0 .336-.013.668-.04.995a8.304 8.304 0 01-.093.782h-8.832zm10.408-8.012c.266-.052.518-.092.758-.119a7.04 7.04 0 01.785-.04 5.8 5.8 0 01.784.053c.257.036.51.08.758.133.054.089.102.217.147.385a10.711 10.711 0 01.212 1.088l.067.464c.39-.549.869-1.04 1.436-1.473.568-.433 1.277-.65 2.128-.65.178 0 .382.009.612.027.231.017.399.044.506.08.035.176.062.38.079.61.019.23.027.468.027.716 0 .3-.013.628-.04.981a6.98 6.98 0 01-.146 1.008 3.644 3.644 0 00-.652-.053h-.438c-.302 0-.639.031-1.012.093a2.33 2.33 0 00-1.064.491c-.337.266-.616.664-.838 1.194-.221.53-.332 1.273-.332 2.229v6.526a8.88 8.88 0 01-.958.106 16.703 16.703 0 01-1.849 0 9.926 9.926 0 01-.97-.106V9.213zm10.07 0a7.266 7.266 0 011.57-.159c.301 0 .567.013.798.04.23.027.469.067.718.12.053.088.102.216.146.384s.084.345.12.53c.035.187.066.368.093.544l.067.451a4.35 4.35 0 01.558-.795c.231-.265.505-.504.825-.717a4.238 4.238 0 012.421-.716c2.145 0 3.52.814 4.123 2.441a5.281 5.281 0 011.502-1.711c.648-.487 1.468-.73 2.462-.73 1.56 0 2.708.43 3.444 1.287.736.858 1.104 2.197 1.104 4.02v8.727a11.49 11.49 0 01-1.888.16c-.621 0-1.251-.054-1.889-.16v-7.747c0-.955-.12-1.688-.36-2.201-.239-.513-.722-.77-1.449-.77a3.07 3.07 0 00-.891.133 1.895 1.895 0 00-.798.49c-.24.24-.435.576-.586 1.009-.15.433-.226.995-.226 1.684v7.402a11.49 11.49 0 01-1.888.16c-.621 0-1.251-.054-1.889-.16v-7.747c0-.955-.12-1.688-.359-2.201-.24-.513-.723-.77-1.45-.77-.301 0-.603.045-.905.133a1.79 1.79 0 00-.811.517c-.239.256-.43.615-.572 1.075-.142.46-.213 1.06-.213 1.804v7.19a11.48 11.48 0 01-1.888.158c-.621 0-1.25-.053-1.889-.159V9.213zm27.644 11.17c.994 0 1.707-.368 2.142-1.102.434-.734.652-1.79.652-3.17s-.218-2.436-.652-3.17c-.435-.734-1.148-1.101-2.142-1.101-.975 0-1.68.367-2.114 1.1-.435.735-.652 1.792-.652 3.171 0 1.38.217 2.436.652 3.17.434.734 1.139 1.101 2.114 1.101zm0 2.864c-1.117 0-2.088-.18-2.912-.544a5.522 5.522 0 01-2.049-1.512 6.573 6.573 0 01-1.223-2.268 9.248 9.248 0 01-.413-2.812 9.51 9.51 0 01.413-2.838c.274-.885.682-1.65 1.223-2.295a5.658 5.658 0 012.049-1.526c.824-.371 1.795-.557 2.912-.557 1.118 0 2.093.186 2.927.557.833.372 1.524.88 2.075 1.526.549.645.957 1.41 1.223 2.295.266.884.399 1.83.399 2.838a9.538 9.538 0 01-.399 2.812 6.317 6.317 0 01-1.223 2.268 5.634 5.634 0 01-2.075 1.512c-.834.363-1.809.544-2.927.544zM152.1 16.96c-.993-.283-1.769-.703-2.327-1.26-.559-.557-.838-1.393-.838-2.507 0-1.345.483-2.396 1.45-3.157.966-.76 2.283-1.141 3.95-1.141.692 0 1.374.062 2.048.186.674.124 1.357.31 2.048.557-.035.46-.124.937-.266 1.433-.141.495-.31.928-.505 1.3a10.52 10.52 0 00-1.41-.465 6.483 6.483 0 00-1.623-.199c-.603 0-1.072.093-1.41.279-.336.186-.505.482-.505.888 0 .39.12.664.359.823.24.159.581.31 1.024.45l1.517.452a7.53 7.53 0 011.343.517c.399.204.741.456 1.024.756.284.3.506.672.665 1.114.16.443.24.982.24 1.619 0 .654-.138 1.264-.413 1.83a4.217 4.217 0 01-1.197 1.473c-.523.415-1.157.743-1.902.981-.745.24-1.587.358-2.527.358-.426 0-.815-.013-1.17-.04a9.338 9.338 0 01-1.024-.132 11.941 11.941 0 01-.971-.226c-.32-.088-.666-.203-1.038-.344.036-.478.12-.96.253-1.446s.306-.96.519-1.42c.585.23 1.139.403 1.662.518a7.603 7.603 0 001.636.172c.249 0 .519-.022.811-.066a2.98 2.98 0 00.812-.239c.248-.115.457-.265.625-.45.169-.187.252-.43.252-.73 0-.425-.128-.73-.385-.916-.257-.185-.616-.35-1.077-.49l-1.65-.478zm9.201-4.882h-1.729l-.133-.53 4.975-6.34h.611v4.005h3.219c.053.266.089.504.107.717.017.212.026.433.026.663a7.32 7.32 0 01-.133 1.485h-3.219v5.386c0 .548.045.99.133 1.327.089.335.218.6.386.795.169.195.377.328.625.398.248.071.542.107.878.107.266 0 .528-.023.785-.067.257-.044.483-.084.678-.12.124.337.213.686.266 1.049a6.641 6.641 0 01.067 1.459 5.049 5.049 0 01-.04.385c-.816.194-1.658.291-2.527.291-1.614 0-2.847-.376-3.698-1.127-.851-.752-1.277-1.977-1.277-3.674v-6.208zM36.647 5.014c.768-.107 1.508-.16 2.219-.16.749 0 1.489.053 2.219.16l4.755 9.842 4.899-9.842c.596-.107 1.258-.16 1.988-.16s1.431.053 2.104.16l.98 18.073c-.73.107-1.422.16-2.075.16-.654 0-1.297-.053-1.93-.16l-.52-13.067-4.207 9.032c-.27.035-.548.067-.836.093a9.25 9.25 0 01-.864.04c-.25 0-.5-.009-.75-.027a6.345 6.345 0 01-.778-.106l-3.919-9.22-.403 13.255c-.615.107-1.21.16-1.787.16-.615 0-1.25-.053-1.902-.16l.807-18.073zM18.795 11.44s.043 1.91-1.282 3.209c-1.325 1.298-2.952 1.179-4.01.82-1.06-.358-2.424-1.252-2.688-3.088-.264-1.836.93-3.327.93-3.327l2.605-3.238 1.516-1.85 1.302-1.611s.598-.8.768-.966a.385.385 0 01.102-.07l.025-.013.004-.002a.324.324 0 01.41.135l.008.013.007.015a.383.383 0 01.042.125c.034.234.023 1.233.023 1.233l.055 2.07.081 2.391.102 4.154zm3.37-8.768c4.817 3.505 7.025 9.866 5.017 15.816-2.472 7.322-10.395 11.248-17.696 8.77C2.184 24.777-1.731 16.833.74 9.511A13.965 13.965 0 0114.335.005l-1.91 2.263c-3.536.641-6.589 3.063-7.789 6.617-1.785 5.288 1.207 11.081 6.683 12.94 5.477 1.86 11.363-.92 13.148-6.208 1.196-3.543.248-7.312-2.154-9.973l-.147-2.972z" fill="#145DBF"/><path d="M198.691 7.402c-1.882 0-3.371.63-4.464 1.887-1.086 1.25-1.629 2.965-1.629 5.145 0 2.242.523 3.976 1.57 5.203 1.055 1.218 2.555 1.828 4.5 1.828 1.195 0 2.559-.215 4.09-.645v1.746c-1.188.446-2.653.668-4.395.668-2.523 0-4.472-.765-5.847-2.297-1.368-1.53-2.051-3.707-2.051-6.527 0-1.765.328-3.312.984-4.64.664-1.329 1.617-2.352 2.86-3.07 1.25-.72 2.718-1.079 4.406-1.079 1.797 0 3.367.328 4.711.984l-.844 1.711c-1.297-.609-2.594-.914-3.891-.914zM207.188 23h-1.945V4.766h1.945V23zm14.251-6.434c0 2.094-.527 3.73-1.582 4.91-1.054 1.172-2.511 1.758-4.371 1.758-1.148 0-2.168-.27-3.058-.808-.891-.54-1.578-1.313-2.063-2.32-.484-1.008-.726-2.188-.726-3.54 0-2.093.523-3.722 1.57-4.886 1.047-1.172 2.5-1.758 4.359-1.758 1.797 0 3.223.598 4.278 1.793 1.062 1.195 1.593 2.812 1.593 4.851zm-9.785 0c0 1.641.328 2.891.985 3.75.656.86 1.621 1.29 2.894 1.29 1.274 0 2.238-.426 2.895-1.278.664-.86.996-2.113.996-3.762 0-1.632-.332-2.87-.996-3.714-.657-.852-1.629-1.278-2.918-1.278-1.274 0-2.235.418-2.883 1.254-.649.836-.973 2.082-.973 3.738zm14.075-6.41v8.332c0 1.047.239 1.828.715 2.344.477.516 1.223.773 2.238.773 1.344 0 2.325-.367 2.942-1.101.625-.735.937-1.934.937-3.598v-6.75h1.946V23h-1.606l-.281-1.723h-.105a3.876 3.876 0 01-1.665 1.453c-.703.336-1.507.504-2.414.504-1.562 0-2.734-.37-3.515-1.113-.774-.742-1.16-1.93-1.16-3.562v-8.403h1.968zm20.697 11.121h-.106c-.898 1.305-2.242 1.957-4.031 1.957-1.68 0-2.988-.574-3.926-1.722-.93-1.149-1.394-2.782-1.394-4.899s.468-3.761 1.406-4.933c.937-1.172 2.242-1.758 3.914-1.758 1.742 0 3.078.633 4.008 1.898h.152l-.082-.925-.047-.903V4.766h1.945V23h-1.582l-.257-1.723zm-3.891.328c1.328 0 2.289-.359 2.883-1.078.601-.726.902-1.894.902-3.504v-.41c0-1.82-.305-3.117-.914-3.89-.601-.782-1.566-1.172-2.894-1.172-1.141 0-2.016.445-2.625 1.336-.602.883-.903 2.133-.903 3.75 0 1.64.301 2.879.903 3.715.601.835 1.484 1.253 2.648 1.253z" fill="#3D3C40" fill-opacity=".48"/><path stroke="#3D3C40" stroke-opacity=".32" d="M180.5 0v28"/></svg>