<svg width="32" height="40" fill="none" xmlns="http://www.w3.org/2000/svg"><path d="M1.595 10.357l8.898-8.78A2 2 0 0111.898 1H28a3 3 0 013 3v32a3 3 0 01-3 3H4a3 3 0 01-3-3V11.78a2 2 0 01.595-1.423z" stroke="#338AFF" stroke-width="2"/><path d="M11 2v9a1 1 0 01-1 1H2m21.59 20H8.49a.25.25 0 01-.203-.397l4.141-5.72a.25.25 0 01.345-.06l2.021 1.397a.08.08 0 00.11-.018l3.713-4.886a.25.25 0 01.421.037l4.775 9.283a.25.25 0 01-.223.364z" stroke="#338AFF" stroke-width="2"/><circle cx="11" cy="21" r="2" stroke="#338AFF" stroke-width="2"/></svg>