<svg width="329" height="273" fill="none" xmlns="http://www.w3.org/2000/svg"><g filter="url(#filter0_f)"><path fill-rule="evenodd" clip-rule="evenodd" d="M324.682 11.905a6.864 6.864 0 00-4.209-6.37A6.87 6.87 0 00317.846 5H12.836A6.874 6.874 0 006 11.905V216.65a6.832 6.832 0 006.836 6.835H126.93L123.5 253H206l-4.508-29.514H315c6.432.005 9.686-2.615 9.682-9.486V11.905z" fill="#3D3C40" fill-opacity=".08"/></g><path d="M160.507 260.921c81.744 0 148.011-2.27 148.011-5.072 0-2.801-66.267-5.072-148.011-5.072-81.745 0-148.012 2.271-148.012 5.072 0 2.802 66.267 5.072 148.012 5.072z" fill="#3D3C40" fill-opacity=".08"/><path opacity=".1" d="M202.208 253.482h-41.073l-41.156-.527.245-2.11h81.578l.406 2.637z" fill="#3D3C40"/><path d="M202.287 254.008l-82.308-1.053.245-2.11 3.977-34.819h72.284l5.317 34.819.406 2.637.079.526zM319.682 6.905a6.864 6.864 0 00-4.209-6.37A6.87 6.87 0 00312.846 0H7.836A6.874 6.874 0 001 6.905V191.76h318.682V6.905z" fill="#fff"/><path d="M202.287 254.008l-82.308-1.053.245-2.11 3.977-34.819h72.284l5.317 34.819.406 2.637.079.526z" fill="#3D3C40" fill-opacity=".24"/><path d="M215.479 251.371H106.26v2.637h109.219v-2.637z" fill="#fff"/><path d="M215.479 251.371H106.26v2.637h109.219v-2.637z" fill="#3D3C40" fill-opacity=".24"/><path opacity=".1" d="M169.048 218.4l32.837 32.971-5.039-32.971h-27.798z" fill="#3D3C40"/><path d="M319.682 6.905a6.864 6.864 0 00-4.209-6.37A6.87 6.87 0 00312.846 0H7.836A6.874 6.874 0 001 6.905V191.76h318.682V6.905z" fill="#3D3C40" fill-opacity=".72"/><path d="M1 189.914v21.651a6.832 6.832 0 006.836 6.835h305.01a6.823 6.823 0 006.836-6.835v-21.651H1z" fill="#fff"/><path d="M1 190v21.651a6.832 6.832 0 006.836 6.835h305.01a6.823 6.823 0 006.836-6.835V190H1z" fill="#3D3C40" fill-opacity=".24"/><path d="M308.074 11.606H14.192v166.176h293.882V11.606z" fill="#fff"/><circle cx="160.5" cy="204.5" r="7.5" fill="#3D3C40" fill-opacity=".16"/><ellipse cx="161" cy="95.5" rx="44" ry="43.5" fill="#fff"/><path fill-rule="evenodd" clip-rule="evenodd" d="M207 96.001a45.994 45.994 0 01-28.398 42.498 46.005 46.005 0 01-50.13-9.973 45.997 45.997 0 01-9.97-50.13A46 46 0 01207 96zm-33.034-20.976a3.5 3.5 0 014.95 0l3.536 3.536a3.501 3.501 0 010 4.95l-12.728 12.727 12.728 12.728a3.5 3.5 0 010 4.95l-3.536 3.536a3.502 3.502 0 01-4.95 0l-12.728-12.728-12.728 12.728a3.5 3.5 0 01-4.949 0l-3.536-3.536a3.5 3.5 0 010-4.95l12.728-12.728-12.728-12.728a3.502 3.502 0 010-4.95l3.536-3.535a3.5 3.5 0 014.95 0l12.727 12.728 12.728-12.728z" fill="#FD5960"/><defs><filter id="filter0_f" x="2" y="1" width="326.682" height="256" filterUnits="userSpaceOnUse" color-interpolation-filters="sRGB"><feFlood flood-opacity="0" result="BackgroundImageFix"/><feBlend in="SourceGraphic" in2="BackgroundImageFix" result="shape"/><feGaussianBlur stdDeviation="2" result="effect1_foregroundBlur"/></filter></defs></svg>