<svg width="186" height="133" fill="none" xmlns="http://www.w3.org/2000/svg"><g clip-path="url(#clip0)"><path d="M183.054 89.415c-4.314 8.89-13.074 14.836-22.151 18.757-12.222 5.28-25.68 7.374-38.953 6.488a88.096 88.096 0 01-6.958-.741 87.79 87.79 0 01-23.261-6.768 83.906 83.906 0 01-6.28-3.148 80.332 80.332 0 01-12.133-8.25c-.527-.435-1.05-.88-1.581-1.311-1.12-.91-2.273-1.775-3.56-2.422a12.69 12.69 0 00-1.19-.525c-4.073-1.548-8.769-.964-13.008.243-3.224.918-6.368 2.175-9.59 3.072a31.844 31.844 0 01-4.368.928 23.275 23.275 0 01-9.817-.861l-.271-.085a24.398 24.398 0 01-1.353-.468l-.27-.104a21.191 21.191 0 01-1.272-.537l-.271-.123a23.665 23.665 0 01-1.271-.638c-.15-.078-.298-.162-.444-.242a26.573 26.573 0 01-6.358-4.946c-.054-.053-.104-.108-.162-.162a25.08 25.08 0 01-1.87-2.266c-.041-.053-.08-.108-.12-.162a23.446 23.446 0 01-2.8-5.108 25.803 25.803 0 01-.593-1.698c-.073-.24-.143-.487-.204-.727a5.396 5.396 0 01-.059-.216c-.896-3.525-.998-7.19-.998-10.832v-1.274c.026-5.893.117-11.887.987-17.699 0-.04.011-.081.018-.12a55.237 55.237 0 011.187-5.81 42.842 42.842 0 011.998-5.889c2.002-4.704 4.913-8.985 8.146-12.953 8.143-9.984 18.821-18.365 31.32-21.502 13.468-3.38 28.437-.142 39.3 8.5 3.313 2.634 6.289 5.753 10.009 7.773 3.247 1.758 7.048 2.487 10.526 1.103 2.874-1.144 4.744-1.712 7.972-1.538a66.876 66.876 0 0119.542 4.09c.253.092.507.188.758.283 16.352 6.25 30.408 18.668 37.714 34.625.194.421.382.846.564 1.275 4.356 10.166 5.931 22.08 1.125 31.988z" fill="#166DE0" fill-opacity=".08"/><path opacity=".1" d="M19.533 120.523c7.916 0 14.333-1.03 14.333-2.3 0-1.271-6.417-2.301-14.333-2.301s-14.334 1.03-14.334 2.301c0 1.27 6.418 2.3 14.334 2.3z" fill="#6C63FF"/><g filter="url(#filter0_d)"><rect x="19" y="17" width="153" height="89" rx="4" fill="#fff"/><path fill="#1C58D9" d="M19 17h45.285v89H19z"/><ellipse cx="26.694" cy="25.151" rx="4.177" ry="4.186" fill="#fff" fill-opacity=".24"/><rect x="33.509" y="22.287" width="20.224" height="2.203" rx="1.101" fill="#fff" fill-opacity=".48"/><rect x="33.509" y="26.693" width="13.19" height="1.762" rx=".881" fill="#fff" fill-opacity=".32"/><rect x="23.396" y="35.065" width="13.19" height="1.762" rx=".881" fill="#fff" fill-opacity=".32"/><rect x="23.396" y="93.663" width="13.19" height="1.762" rx=".881" fill="#fff" fill-opacity=".32"/><ellipse cx="25.375" cy="42.334" rx="1.978" ry="1.983" fill="#fff" fill-opacity=".24"/><rect x="29.991" y="41.673" width="25.5" height="1.762" rx=".881" fill="#fff" fill-opacity=".32"/><ellipse cx="25.375" cy="64.805" rx="1.978" ry="1.983" fill="#fff" fill-opacity=".24"/><rect x="29.991" y="64.144" width="25.5" height="1.762" rx=".881" fill="#fff" fill-opacity=".32"/><ellipse cx="25.375" cy="49.825" rx="1.978" ry="1.983" fill="#fff" fill-opacity=".24"/><rect x="29.991" y="49.164" width="21.983" height="1.762" rx=".881" fill="#fff" fill-opacity=".32"/><ellipse cx="25.375" cy="72.295" rx="1.978" ry="1.983" fill="#fff" fill-opacity=".24"/><rect x="29.991" y="71.634" width="21.983" height="1.762" rx=".881" fill="#fff" fill-opacity=".32"/><ellipse cx="25.375" cy="57.314" rx="1.978" ry="1.983" fill="#fff" fill-opacity=".24"/><rect x="29.991" y="56.653" width="29.017" height="1.762" rx=".881" fill="#fff" fill-opacity=".32"/><ellipse cx="25.375" cy="79.785" rx="1.978" ry="1.983" fill="#fff" fill-opacity=".24"/><rect x="29.991" y="79.124" width="29.017" height="1.762" rx=".881" fill="#fff" fill-opacity=".32"/><ellipse cx="25.375" cy="100.933" rx="1.978" ry="1.983" fill="#fff" fill-opacity=".24"/><rect x="29.991" y="100.272" width="29.017" height="1.762" rx=".881" fill="#fff" fill-opacity=".32"/><ellipse cx="25.375" cy="87.275" rx="1.978" ry="1.983" fill="#fff" fill-opacity=".24"/><rect x="29.991" y="86.614" width="19.345" height="1.762" rx=".881" fill="#fff" fill-opacity=".32"/><rect x="64.285" y="29.337" width="82.655" height="24.673" rx="4" fill="#fff"/><ellipse cx="72.542" cy="37.612" rx="3.75" ry="3.758" fill="#3D3C40" fill-opacity=".24"/><rect x="79.627" y="34.41" width="17.78" height="1.67" rx=".835" fill="#3D3C40" fill-opacity=".48"/><rect x="79.674" y="38.149" width="53.638" height="1.322" rx=".661" fill="#3D3C40" fill-opacity=".24"/><rect x="79.674" y="41.233" width="43.965" height="1.322" rx=".661" fill="#3D3C40" fill-opacity=".24"/><rect x="79.674" y="43.877" width="60.233" height="1.322" rx=".661" fill="#3D3C40" fill-opacity=".24"/><rect x="79.674" y="46.961" width="31.655" height="1.322" rx=".661" fill="#3D3C40" fill-opacity=".24"/><rect x="64.285" y="50.926" width="82.655" height="24.673" rx="4" fill="#fff"/><ellipse cx="72.542" cy="59.201" rx="3.75" ry="3.758" fill="#3D3C40" fill-opacity=".24"/><rect x="79.627" y="55.999" width="17.78" height="1.67" rx=".835" fill="#3D3C40" fill-opacity=".48"/><rect x="79.674" y="59.738" width="53.638" height="1.322" rx=".661" fill="#3D3C40" fill-opacity=".24"/><rect x="79.674" y="62.822" width="43.965" height="1.322" rx=".661" fill="#3D3C40" fill-opacity=".24"/><rect x="79.674" y="65.465" width="60.233" height="1.322" rx=".661" fill="#3D3C40" fill-opacity=".24"/><rect x="79.674" y="68.55" width="31.655" height="1.322" rx=".661" fill="#3D3C40" fill-opacity=".24"/><rect x="64.285" y="74.277" width="82.655" height="24.673" rx="4" fill="#fff"/><ellipse cx="72.542" cy="82.552" rx="3.75" ry="3.758" fill="#3D3C40" fill-opacity=".24"/><rect x="79.627" y="79.351" width="17.78" height="1.67" rx=".835" fill="#3D3C40" fill-opacity=".48"/><rect x="79.674" y="83.089" width="53.638" height="1.322" rx=".661" fill="#3D3C40" fill-opacity=".24"/><rect x="79.674" y="86.173" width="43.965" height="1.322" rx=".661" fill="#3D3C40" fill-opacity=".24"/><rect x="79.674" y="88.817" width="60.233" height="1.322" rx=".661" fill="#3D3C40" fill-opacity=".24"/><rect x="79.674" y="91.901" width="31.655" height="1.322" rx=".661" fill="#3D3C40" fill-opacity=".24"/><rect x="65.603" y="18.322" width="104.638" height="13.477" rx="4" fill="#fff"/><ellipse cx="92.665" cy="24.074" rx="1.148" ry="1.151" fill="#3D3C40" fill-opacity=".32"/><ellipse cx="160.565" cy="25.06" rx="1.476" ry="1.479" fill="#3D3C40" fill-opacity=".32"/><ellipse cx="128.418" cy="25.06" rx="1.476" ry="1.479" fill="#3D3C40" fill-opacity=".32"/><ellipse cx="97.586" cy="24.074" rx="1.148" ry="1.151" fill="#3D3C40" fill-opacity=".32"/><ellipse cx="165.485" cy="25.06" rx="1.476" ry="1.479" fill="#3D3C40" fill-opacity=".32"/><rect x="70.195" y="23.252" width="19.025" height="1.315" rx=".657" fill="#3D3C40" fill-opacity=".48"/><rect x="132.19" y="23.581" width="24.601" height="2.958" rx="1.479" fill="#3D3C40" fill-opacity=".24"/><rect x="78.724" y="26.54" width="29.194" height=".657" rx=".329" fill="#3D3C40" fill-opacity=".24"/><ellipse cx="71.179" cy="26.869" rx=".984" ry=".986" fill="#3D3C40" fill-opacity=".32"/><ellipse cx="75.116" cy="26.869" rx=".984" ry=".986" fill="#3D3C40" fill-opacity=".32"/><rect x="18.5" y="16.5" width="154" height="90" rx="4.5" stroke="#3D3C40" stroke-opacity=".04"/></g><path opacity=".1" d="M140.348 73.492a3.74 3.74 0 01-.093.649c0-.06 0-.094-.013-.099-.049-.013.01-.261.106-.55z" fill="#000"/><path opacity=".1" d="M138.551 121.577s.649.811.373 1.184c-.276.373-.373-1.184-.373-1.184z" fill="#000" stroke="#6C63FF" stroke-miterlimit="10"/><path opacity=".1" d="M145.576 48.505c-.085.397-.365.848-.77.8-.125-.017-.238-.08-.362-.107-.339-.075-.541.243-.86.162a1.216 1.216 0 01-.744-.608 1.407 1.407 0 01-.151-.531c-.032.287.02.578.151.835a1.212 1.212 0 00.744.609c.324.074.521-.244.86-.163.119.042.24.077.362.106.405.05.685-.4.77-.798.066-.351.093-.709.078-1.066-.002.256-.028.51-.078.76zm-2.224-2.443a1.881 1.881 0 00-.107-.783 4.069 4.069 0 01-.187-.513.589.589 0 00-.016.083c-.028.255.115.487.203.735.056.154.092.315.107.478zm12.404-.854c-.077.46-.45.893-.488 1.378a1.159 1.159 0 000 .25c.082-.566.583-1.067.488-1.628zm.028 3.422a.382.382 0 01-.093.182c-.12.128-.324.137-.487.2-.394.152-.649.629-1.078.624a.544.544 0 01-.487-.377.97.97 0 00-.023.107.552.552 0 00.135.392.54.54 0 00.374.18c.423 0 .683-.471 1.078-.62.162-.064.36-.073.487-.201a.53.53 0 00.1-.44c-.001-.02-.004-.032-.006-.047zm-2.036-.135c-.041-.295-.398-.415-.587-.648a.888.888 0 01-.178-.532c-.013.301-.008.61.178.837.187.227.471.324.562.557a.519.519 0 00.025-.214z" fill="#000"/><g opacity=".1" fill="#000"><path opacity=".1" d="M144.997 48.495a1.246 1.246 0 01.938-1.163 3.902 3.902 0 012.189.099c1.541.51-.195 2.342-.195 2.342s-1.155 1.136-2.231.343a1.68 1.68 0 01-.628-.974 2.434 2.434 0 01-.073-.647z"/><path opacity=".1" d="M147.833 47.282v.076h2.814v-.09l-2.814.014zm.897.812h.09v-.258s.285-.222.759 0v.23h.163v-.15h-.08s.033-.313-.497-.263c0 0-.425-.04-.415.229h-.098l.078.212z"/></g><mask id="a" fill="#fff"><path d="M19.994 74.162h-.923V94.91h.922V74.162z"/></mask><path d="M19.994 74.162h-.923V94.91h.922V74.162z" fill="#535461"/><path d="M19.071 74.162v-1h-1v1h1zm.922 0h1v-1h-1v1zm0 20.747v1h1v-1h-1zm-.922 0h-1v1h1v-1zm0-19.747h.922v-2h-.922v2zm-.078-1V94.91h2V74.162h-2zm1 19.747h-.922v2h.922v-2zm.078 1V74.162h-2V94.91h2z" fill="#3D3C40" mask="url(#a)"/><path d="M25.291 94.813v.001l-.058.935h0l-.082 1.319h0l-.034.55h0l-.08 1.319v.002l-.037.548v.001l-.08 1.319h0l-.931 15h0a2.04 2.04 0 01-2.039 1.915h-4.835s0 0 0 0a2.042 2.042 0 01-2.037-1.915h0l-.935-15h0l-.082-1.319h0l-.034-.549h0l-.08-1.323v-.001l-.033-.55h0l-.082-1.319h0l-.058-.934s0 0 0 0a.814.814 0 01.816-.866h9.887a.816.816 0 01.814.867z" fill="#3F3D56" stroke="#3D3C40"/><path d="M25.732 95.78l-.081 1.32H13.413l-.081-1.32h12.4zm-.116 1.869l-.08 1.32H13.53l-.083-1.32h12.17zm-.117 1.87l-.081 1.319H13.646l-.083-1.319H25.5z" fill="#fff"/><path d="M11.924 81.939c5.37 3.881 7.608 9.954 7.608 9.954S13.06 91.671 7.68 87.79C2.3 83.907.07 77.834.07 77.834s6.48.223 11.853 4.105z" fill="#06D6A0"/><path d="M.08 77.835s6.718 3.73 8.872 6.812c2.155 3.082 10.58 7.248 10.58 7.248" stroke="#3D3C40" stroke-width="2" stroke-miterlimit="10"/><path d="M15.39 74.125c2.923 2.109 4.142 5.418 4.142 5.418s-3.523-.12-6.447-2.234c-2.925-2.114-4.14-5.418-4.14-5.418s3.523.112 6.445 2.234z" fill="#06D6A0"/><path d="M8.944 71.883s3.657 2.028 4.83 3.706c1.171 1.68 5.758 3.945 5.758 3.945" stroke="#3D3C40" stroke-width="2" stroke-miterlimit="10"/><path d="M23.782 79.368c-3.36 3.687-4.07 8.504-4.07 8.504s4.735-1.16 8.093-4.847c3.358-3.687 4.069-8.506 4.069-8.506s-4.735 1.16-8.092 4.849z" fill="#06D6A0"/><path d="M31.874 74.519s-4.374 3.78-5.486 6.385c-1.113 2.605-6.675 6.975-6.675 6.975" stroke="#3D3C40" stroke-width="2" stroke-miterlimit="10"/></g><defs><clipPath id="clip0"><path fill="#fff" d="M0 0h186v133H0z"/></clipPath><filter id="filter0_d" x="-14" y="4" width="219" height="155" filterUnits="userSpaceOnUse" color-interpolation-filters="sRGB"><feFlood flood-opacity="0" result="BackgroundImageFix"/><feColorMatrix in="SourceAlpha" values="0 0 0 0 0 0 0 0 0 0 0 0 0 0 0 0 0 0 127 0"/><feOffset dy="20"/><feGaussianBlur stdDeviation="16"/><feColorMatrix values="0 0 0 0 0 0 0 0 0 0 0 0 0 0 0 0 0 0 0.12 0"/><feBlend in2="BackgroundImageFix" result="effect1_dropShadow"/><feBlend in="SourceGraphic" in2="effect1_dropShadow" result="shape"/></filter></defs></svg>