<svg width="329" height="273" fill="none" xmlns="http://www.w3.org/2000/svg"><g filter="url(#filter0_f)"><path fill-rule="evenodd" clip-rule="evenodd" d="M324.682 11.905a6.864 6.864 0 00-4.209-6.37A6.87 6.87 0 00317.846 5H12.836A6.874 6.874 0 006 11.905V216.65a6.832 6.832 0 006.836 6.835H126.93L123.5 253H206l-4.508-29.514H315c6.432.005 9.686-2.615 9.682-9.486V11.905z" fill="#3D3C40" fill-opacity=".08"/></g><path d="M160.507 260.921c81.744 0 148.011-2.27 148.011-5.072 0-2.801-66.267-5.072-148.011-5.072-81.745 0-148.012 2.271-148.012 5.072 0 2.802 66.267 5.072 148.012 5.072z" fill="#3D3C40" fill-opacity=".08"/><path opacity=".1" d="M202.208 253.482h-41.073l-41.156-.527.245-2.11h81.578l.406 2.637z" fill="#3D3C40"/><path d="M202.287 254.008l-82.308-1.053.245-2.11 3.977-34.819h72.284l5.317 34.819.406 2.637.079.526zM319.682 6.905a6.864 6.864 0 00-4.209-6.37A6.87 6.87 0 00312.846 0H7.836A6.874 6.874 0 001 6.905V191.76h318.682V6.905z" fill="#fff"/><path d="M202.287 254.008l-82.308-1.053.245-2.11 3.977-34.819h72.284l5.317 34.819.406 2.637.079.526z" fill="#3D3C40" fill-opacity=".24"/><path d="M215.479 251.371H106.26v2.637h109.219v-2.637z" fill="#fff"/><path d="M215.479 251.371H106.26v2.637h109.219v-2.637z" fill="#3D3C40" fill-opacity=".24"/><path opacity=".1" d="M169.048 218.4l32.837 32.971-5.039-32.971h-27.798z" fill="#3D3C40"/><path d="M319.682 6.905a6.864 6.864 0 00-4.209-6.37A6.87 6.87 0 00312.846 0H7.836A6.874 6.874 0 001 6.905V191.76h318.682V6.905z" fill="#3D3C40" fill-opacity=".72"/><path d="M1 189.914v21.651a6.832 6.832 0 006.836 6.835h305.01a6.823 6.823 0 006.836-6.835v-21.651H1z" fill="#fff"/><path d="M1 190v21.651a6.832 6.832 0 006.836 6.835h305.01a6.823 6.823 0 006.836-6.835V190H1z" fill="#3D3C40" fill-opacity=".24"/><path d="M308.074 11.606H14.192v166.176h293.882V11.606z" fill="#fff"/><circle cx="160.5" cy="204.5" r="7.5" fill="#3D3C40" fill-opacity=".16"/><path d="M228.229 57.907H102.041c-4.371 0-7.915 3.548-7.915 7.922v74.532c0 4.373 3.544 7.921 7.915 7.921h126.188c4.37 0 7.914-3.548 7.914-7.921V65.829c0-4.374-3.544-7.922-7.914-7.922z" fill="#3D3C40" fill-opacity=".08"/><path d="M222.758 54H98.624A8.623 8.623 0 0090 62.623v72.647a8.624 8.624 0 008.624 8.623h124.134a8.624 8.624 0 008.624-8.623V62.623A8.623 8.623 0 00222.758 54z" fill="#fff"/><path opacity=".16" d="M222.758 54H98.624A8.623 8.623 0 0090 62.623v72.647a8.624 8.624 0 008.624 8.623h124.134a8.624 8.624 0 008.624-8.623V62.623A8.623 8.623 0 00222.758 54z" fill="#166DE0"/><path opacity=".3" d="M125.259 105h-18.042a2.218 2.218 0 00-2.217 2.217v3.191c0 1.224.993 2.217 2.217 2.217h18.042a2.218 2.218 0 002.218-2.217v-3.191a2.218 2.218 0 00-2.218-2.217zm30 0h-18.042a2.218 2.218 0 00-2.217 2.217v3.191c0 1.224.993 2.217 2.217 2.217h18.042a2.218 2.218 0 002.218-2.217v-3.191a2.218 2.218 0 00-2.218-2.217zm15.192 15h-15.234a2.218 2.218 0 00-2.217 2.217v1.182c0 1.224.993 2.217 2.217 2.217h15.234a2.217 2.217 0 002.217-2.217v-1.182a2.217 2.217 0 00-2.217-2.217zm14.808-15h-18.042a2.218 2.218 0 00-2.217 2.217v3.191c0 1.224.993 2.217 2.217 2.217h18.042a2.218 2.218 0 002.218-2.217v-3.191a2.218 2.218 0 00-2.218-2.217zm30 0h-18.042a2.218 2.218 0 00-2.217 2.217v3.191c0 1.224.993 2.217 2.217 2.217h18.042a2.218 2.218 0 002.218-2.217v-3.191a2.218 2.218 0 00-2.218-2.217z" fill="#166DE0"/><path d="M118.745 83.505h-12.527c-.752 0-1.363.61-1.363 1.362v12.525c0 .753.611 1.363 1.363 1.363h12.527c.753 0 1.363-.61 1.363-1.363V84.867c0-.752-.61-1.362-1.363-1.362z" fill="#166DE0"/><path d="M114.99 93.638h-4.813v-4.813h4.813v4.813zm-4.619-.199h4.416v-4.415h-4.416v4.415z" fill="#fff"/><path d="M112.68 83.505h-.199v5.417h.199v-5.417zm0 10.031h-.199v5.219h.199v-5.219zm-2.406-2.508h-5.419v.199h5.419v-.199zm9.838 0h-5.219v.199h5.219v-.199zm-9.908-2.032l-1.575-1.565h-3.774v-.203h3.857l1.636 1.625-.144.143zm4.753 0l-.134-.147 1.834-1.621h3.451v.203h-3.372l-1.779 1.565zm-6.24 6.494h-3.862v-.203h3.77l1.575-1.815.152.134-1.635 1.884zm11.39 0h-3.455l-1.834-1.88.144-.143 1.778 1.82h3.367v.203z" fill="#fff"/><path d="M145.601 60.923h-38.958a1.894 1.894 0 00-1.894 1.893v3.838c0 1.046.848 1.894 1.894 1.894h38.958a1.894 1.894 0 001.893-1.894v-3.838a1.894 1.894 0 00-1.893-1.893z" fill="#166DE0"/><path d="M91 257.109c8.284 0 15-.671 15-1.5 0-.828-6.716-1.5-15-1.5-8.284 0-15 .672-15 1.5 0 .829 6.716 1.5 15 1.5z" fill="#3D3C40" fill-opacity=".24"/><path d="M90.665 256.388c.96 0 1.737-1.017 1.737-2.272s-.777-2.272-1.737-2.272c-.959 0-1.736 1.017-1.736 2.272s.777 2.272 1.736 2.272z" fill="#3D3C40"/><path d="M90.665 253.613c.96 0 1.737-1.017 1.737-2.272s-.777-2.273-1.737-2.273c-.959 0-1.736 1.018-1.736 2.273 0 1.255.777 2.272 1.736 2.272z" fill="#3D3C40"/><path d="M90.665 250.832c.96 0 1.737-1.018 1.737-2.273 0-1.255-.777-2.272-1.737-2.272-.959 0-1.736 1.017-1.736 2.272s.777 2.273 1.736 2.273z" fill="#3D3C40"/><path d="M90.665 248.056c.96 0 1.737-1.017 1.737-2.272s-.777-2.272-1.737-2.272c-.959 0-1.736 1.017-1.736 2.272s.777 2.272 1.736 2.272z" fill="#3D3C40"/><path d="M90.665 245.276c.96 0 1.737-1.017 1.737-2.272s-.777-2.273-1.737-2.273c-.959 0-1.736 1.018-1.736 2.273 0 1.255.777 2.272 1.736 2.272z" fill="#3D3C40"/><path d="M90.665 242.501c.96 0 1.737-1.018 1.737-2.273 0-1.255-.777-2.272-1.737-2.272-.959 0-1.736 1.017-1.736 2.272s.777 2.273 1.736 2.273z" fill="#3D3C40"/><path d="M90.665 239.72c.96 0 1.737-1.017 1.737-2.272s-.777-2.272-1.737-2.272c-.959 0-1.736 1.017-1.736 2.272s.777 2.272 1.736 2.272z" fill="#3D3C40"/><path d="M97.165 218.438c.237-.301.453-.619.646-.951l-4.563-.748 4.933.037a8.343 8.343 0 00.162-6.591l-6.624 3.436 6.106-4.489a8.313 8.313 0 00-14.207-.272 8.314 8.314 0 00.475 9.578 8.46 8.46 0 00-.952 1.52l5.926 3.076-6.319-2.12a8.378 8.378 0 00-.438 2.669 8.258 8.258 0 001.782 5.141 8.31 8.31 0 002.128 12.182 8.318 8.318 0 008.822 0 8.31 8.31 0 002.127-12.182 8.315 8.315 0 00-.004-10.286z" fill="#06D6A0"/><path opacity=".1" d="M82.31 223.578a8.258 8.258 0 001.783 5.141 8.31 8.31 0 002.127 12.182 8.318 8.318 0 008.822 0 8.31 8.31 0 002.127-12.182c1.113-1.413-14.86-6.073-14.86-5.141z" fill="#3D3C40"/><path d="M217.88 272.454c23.61 0 42.75-2.87 42.75-6.41s-19.14-6.41-42.75-6.41-42.75 2.87-42.75 6.41 19.14 6.41 42.75 6.41z" fill="#3D3C40" fill-opacity=".08"/><path d="M238.648 180.266c-.028-.794-.125-1.589-.222-2.378-.356-2.965-.721-5.93-1.298-8.854a9.417 9.417 0 00-.462-1.672c-.208-.512-.494-.983-.711-1.491a.262.262 0 000-.056c.268-.129.531-.259.79-.397.187-.095.366-.205.536-.328.17-.123.313-.28.42-.462.462-.813-.056-1.847-.291-2.771-.25-.993-.194-2.184-.924-2.849-2.605-2.31-1.312-7.02-2.614-10.327-.231-.577-.495-1.146-.693-1.737-.153-.462-.259-.923-.37-1.385a452.58 452.58 0 00-2.919-11.495c-1.076-3.954-.961-8.073-2.31-11.934a12.779 12.779 0 00-.993-2.31 6.195 6.195 0 00-1.792-1.935c-1.968-1.358-3.949-2.517-6.259-3.011-2.309-.494-4.804-.416-7.159-.406a7.578 7.578 0 00-3.345-2.61l-.041-.12a8.201 8.201 0 01-.434-1.445 9.762 9.762 0 01-.116-1.478c0-.531-.023-1.067-.037-1.598l.129-.125c.31-.326.594-.675.85-1.044.248-.348.464-.717.647-1.104.207-.438.383-.89.527-1.353.28-.935.471-1.896.568-2.868.124-1.14.161-2.309.194-3.45V95.8a6.228 6.228 0 00-.859-3.362c-.836-1.247-2.268-1.848-3.65-2.346-2.771-.961-5.815-1.594-8.554-.564-2.176.822-3.912 2.614-6.06 3.524.049.082.094.167.134.254v.037c.037.083.069.162.097.245.069.187.12.38.152.577.062.373.062.754 0 1.127a3.852 3.852 0 01-2.069.305c.266.87.709 1.675 1.302 2.364.19.24.388.462.578.716l.291.36a7.48 7.48 0 011.196 1.936c.109.277.185.567.226.863.088.587.065 1.261.144 1.848.029.252.093.499.189.734a7.736 7.736 0 004.102 5.759c.3 1.826.3 3.689 0 5.514 0 .102-.037.204-.06.305-1.257 1.584-2.462 3.256-4.01 4.494a14.614 14.614 0 01-2.249 1.45 6.143 6.143 0 01-1.483.614c-.582.134-1.192.116-1.769.259a4.613 4.613 0 00-2.628 2.138c-.292.54-.616 1.061-.97 1.561-.324.402-.73.73-1.072 1.113-1.238 1.386-1.575 3.39-1.848 5.265a23.994 23.994 0 01-3.155 2.915c-.355.282-.75.511-1.173.679-1.09.364-2.286-.102-3.233-.804-.947-.702-1.686-1.626-2.601-2.346l-.24.355a1.86 1.86 0 01-.189-.217 4.607 4.607 0 01-.762-1.764c-.333-1.704.295-3.528-.194-5.186-.181-.601-.615-1.22-1.215-1.206-.601.014-.975.615-1.492.896-.832.462-1.848.042-2.67-.415-.822-.458-1.76-.97-2.661-.698a1.888 1.888 0 00.689 1.57 4.2 4.2 0 011.117 1.354c.135.573.187 1.162.153 1.75.092 1.349.924 2.508 1.727 3.561a66.844 66.844 0 003.132 3.722c-.131.23-.336.407-.582.504-.062.219-.062.45 0 .669.046.151.104.298.176.439.106.217.235.43.346.628l1.621 2.85.264.462c.11.194.221.378.337.568.382.663.836 1.283 1.353 1.847.258.271.543.516.85.73.2.143.412.27.633.378a3.701 3.701 0 001.487.402c.177.014.355.014.532 0a7.038 7.038 0 001.556-.402c3.09-1.085 5.926-2.817 8.864-4.29a4.93 4.93 0 011.289-.499c.152-.029.307-.041.462-.037.157.005.312.031.462.079.147.049.287.119.415.208.26.174.44.442.504.748.088.462.171.891.254 1.334.083.444.176.887.268 1.331.185.882.383 1.764.614 2.637.125.462.245.951.365 1.431.296 1.173.587 2.356.855 3.538.083.37.161.744.235 1.113.138.657.237 1.322.296 1.991a.177.177 0 010 .046 24.1 24.1 0 01.055 1.741v1.824l.047 5.385c0 .776-.416 1.261-.744 1.959-.065.143-.125.29-.176.438a4.933 4.933 0 00-.152.573c0 .06-.028.125-.037.185-.009.06 0 .143-.028.212-.027.069 0 .139-.023.203-.023.065 0 .139 0 .204v.822c0 .055.032.18.046.272l.028.139c.032.134.065.268.111.401.092.278.208.55.328.818.12.268.24.54.342.817a5.624 5.624 0 01.194.661c.037.143.069.286.097.434v.102c.027.157.05.318.069.461a.262.262 0 010 .056c0 .18.037.36.046.54a17.78 17.78 0 010 1.986l-.055 3.288v.102a.583.583 0 00.064.296.365.365 0 00.31.166 1.17 1.17 0 00.642-.25l1.469-1.066h.092c-1.159 1.898-2.088 3.99-2.268 6.221-.07 1.473.025 2.949.282 4.401 1.353 9.699 4.541 19.485 3.871 29.276-.263 3.856 1.335 7.616 1.325 11.477 0 1.501-.254 2.988-.318 4.484-.282 6.429 2.998 12.932 1.663 19.213.462 1.561 2.212 2.392 2.706 3.944.416 1.316-.184 2.716-.669 4.004a8.141 8.141 0 00-.402 1.386c-1.344 0-2.836.027-3.732.402-.249.081-.491.18-.726.295-.826.494-.882 1.847-.36 2.665.522.817 3.455 3.427 4.314 3.856l1.88.924c1.009.57 2.1.981 3.234 1.219a11.06 11.06 0 002.868-.055c.735-.079 1.548-.199 2.023-.799.67-.85.328-2.231-.129-3.459.169-.135.3-.312.379-.513.081-.322.123-.652.124-.984a7.434 7.434 0 01.656-1.847c.772-1.88.739-3.995.693-6.041a70.076 70.076 0 00-.683-9.943c-.231-1.386-.545-2.771-.813-4.157a68.726 68.726 0 01-1.261-15.241 12.237 12.237 0 00-.513-3.667 6.565 6.565 0 01-.12-2.092l.554-8.456a33.97 33.97 0 00.079-5.173c-.079-.924-.231-1.847-.324-2.771a42.112 42.112 0 01-.087-5.293c.05-1.898.138-3.934 1.224-5.459a.849.849 0 01.517-.401c.222-.033.286.268.203.462.116.351.236.697.356 1.048.037.101.069.198.106.295.06.181.125.361.189.541.065.18.093.249.134.374l.181.462c.05.138.106.272.157.406.05.134.115.291.175.434.06.143.12.287.185.43.065.143.111.263.171.397l.222.462c.055.115.11.235.17.351.06.115.181.337.273.503.051.097.102.194.157.287.148.258.3.508.462.757.314.462.651.924.924 1.418.096.162.182.33.258.503a12.4 12.4 0 01.606 1.968c.161.609.351 1.205.558 1.792.208.586.462 1.173.689 1.745a60.776 60.776 0 001.616 3.381 2.304 2.304 0 01.227.697c.017.154.017.309 0 .462a2.229 2.229 0 01-.162.702c-.568 1.298-.111 2.577.139 3.852.218 1.344.323 2.703.314 4.064 0 .462 0 .924.041 1.353 0 .564 0 1.123.033 1.686.032.564 0 1.21.032 1.815.01.606-.015 1.212-.074 1.815 0 .213-.055.421-.088.628-.101.624-.245 1.243-.369 1.848a36.774 36.774 0 00-.638 7.389c0 .995.033 1.991.097 2.988.056 1.003.134 2 .222 3.002.046.55.102 1.099.157 1.649.092.951.194 1.903.296 2.854.101.952.212 2 .309 2.993.097.993.185 1.986.254 2.974a2.48 2.48 0 01-.295 1.413 3.129 3.129 0 00-.333.929 3.988 3.988 0 00-.055.462c-.012.324.007.649.055.969.025.161.052.315.083.462.069.319.153.638.236.952.19.87.501 1.709.924 2.494.09.161.191.315.304.462.033.046.07.087.107.133.095.111.183.229.263.351.038.057.07.118.097.181.095.255.114.532.055.799-.05.277-.147.554-.221.817l.24.032c-.337 1.067-.494 2.162.074 2.878.462.6 1.289.72 2.023.799.949.146 1.914.167 2.868.06a11.292 11.292 0 003.234-1.22l1.88-.923c.859-.43 3.787-3.021 4.309-3.861.522-.841.462-2.166-.355-2.661a5.321 5.321 0 00-.725-.3c-.832-.346-2.176-.378-3.432-.397a14.836 14.836 0 01-.121-1.441 39.758 39.758 0 01.102-5.302c.106-1.251.268-2.498.254-3.75 0-1.672-.346-3.325-.526-4.988-.181-1.662-.199-3.288-.227-4.932-.041-2.42.67-4.725.979-7.117l.541-4.208a5.112 5.112 0 00.037-1.547c-.083-.462-.296-.923-.384-1.385-.189-1.049.287-2.088.435-3.145.171-1.215-.093-2.448-.264-3.667a47.657 47.657 0 01-.318-5.801c-.167-11.916-.504-24.099-4.532-35.248a23.685 23.685 0 00-.517-1.353c.081-.022.161-.048.24-.079.126-.046.245-.108.356-.184a.983.983 0 00.138-.102c.129-.128.223-.287.273-.462.054-.169.082-.345.083-.522a3.742 3.742 0 00-.134-.923l-.055-.19a17.802 17.802 0 00-.301-.923 18.462 18.462 0 00-.328-.887 10.904 10.904 0 01-.582-1.695c-.281-1.312 0-2.827-.789-3.893-1.746-2.393-.513-6.069-1.243-8.983-.24-.924-.591-1.848-.813-2.771-.138-.592-.226-1.197-.314-1.802a22.49 22.49 0 01-.342-3.962c0-.665.102-1.33.18-1.991l.555-4.581a13.657 13.657 0 011.311 3.768c.042.19.079.375.121.564a66.63 66.63 0 001.847 6.687c.421 1.326.836 2.647 1.289 3.958.134.374.263.753.383 1.136.118.383.211.774.277 1.169.051.314.074.637.097.956.024.319.042.647.074.965a9.084 9.084 0 001.34 3.838c.023.03.045.061.065.092.124.225.323.398.563.49.166.035.338.035.504 0h.027a18.902 18.902 0 00.836-.194c.111 1.432.536 2.859.573 4.304.046 2.102-.725 4.115-1.215 6.152a39.362 39.362 0 00-.827 5.644 2.5 2.5 0 00.07 1.127.794.794 0 00.84.568 1.019 1.019 0 00.596-.531c.55-.914.733-2.001.513-3.044.439.093.665.596.771 1.053a6.321 6.321 0 01-.194 3.575c-.272.766-.692 1.473-.923 2.263a1.182 1.182 0 000 .757c.231.531.96.494 1.487.3a7.476 7.476 0 003.922-3.694 11.34 11.34 0 001.15-5.367z" fill="#3D3C40" fill-opacity=".16"/><path d="M211.7 271.484c-.494.596-1.34.716-2.107.795a12 12 0 01-2.988.055 12.172 12.172 0 01-3.358-1.21l-1.959-.923c-.891-.43-3.94-3.007-4.485-3.843-.545-.836-.489-2.152.37-2.646a5.85 5.85 0 01.757-.296c1.441-.573 4.361-.282 5.894-.503a4.083 4.083 0 012.18.512c1.515.67 4.185 1.201 4.846 2.905.513 1.312 1.917 3.857.85 5.154zm10.878-1.265c.494.596 1.339.716 2.106.794a9.012 9.012 0 006.342-1.159l1.959-.924c.896-.429 3.944-3.006 4.489-3.842.545-.836.49-2.157-.374-2.646a4.925 4.925 0 00-.753-.296c-1.441-.573-4.36-.282-5.894-.503a4.06 4.06 0 00-2.184.512c-1.511.67-4.158 1.201-4.841 2.905-.527 1.316-1.936 3.861-.85 5.159z" fill="#3D3C40"/><path d="M227.34 176.834c.472.908.884 1.846 1.233 2.808 4.195 11.084 4.546 23.212 4.721 35.068a44.648 44.648 0 00.328 5.768c.176 1.215.462 2.439.273 3.653-.153 1.049-.647 2.083-.462 3.122.088.462.309.924.397 1.386a4.783 4.783 0 01-.042 1.538l-.558 4.184c-.324 2.383-1.063 4.674-1.021 7.08.027 1.64.055 3.279.235 4.91a48.53 48.53 0 01.55 4.96c0 1.247-.157 2.489-.268 3.731a38.539 38.539 0 00-.106 5.275c.064 1.353.221 2.771.924 3.911-.809 1.155-1.603 2.19-2.892 2.771-2.619 1.146-5.626.758-8.458.347.157-.522.398-1.113.171-1.612a3.02 3.02 0 00-.485-.66 7.867 7.867 0 01-1.261-2.929c-.341-1.251-.683-2.595 0-3.791.241-.42.349-.903.31-1.386-.587-7.851-2.337-15.998-.725-23.715.171-.822.374-1.644.462-2.48a30.44 30.44 0 00.046-3.612l.018-1.723c-.083-1.787 0-3.62-.369-5.389-.254-1.266-.735-2.54-.144-3.834a2.09 2.09 0 00-.087-1.847 34.153 34.153 0 01-2.984-6.886 11.971 11.971 0 00-.628-1.958 13.9 13.9 0 00-1.238-1.908c-1.386-2.036-2.245-4.396-3.067-6.724.087-.217 0-.513-.208-.462a.873.873 0 00-.541.402c-1.127 1.515-1.224 3.538-1.275 5.431a40.05 40.05 0 00.093 5.265c.092.924.254 1.848.337 2.771a32.494 32.494 0 01-.083 5.145l-.568 8.378a6.032 6.032 0 00.12 2.083c.37 1.178.551 2.408.536 3.644a65.49 65.49 0 001.33 15.139c.277 1.385.605 2.743.845 4.124.48 3.276.717 6.582.711 9.893.051 2.037.084 4.156-.72 6.004a6.893 6.893 0 00-.684 1.847c0 .331-.044.66-.129.979-.236.605-.924.864-1.575 1.002a12.829 12.829 0 01-3.635.259 2.032 2.032 0 01-.827-.185c-.462-.235-.693-.734-1.04-1.108-.743-.813-1.981-1.062-2.66-1.931-.85-1.09-.494-2.664 0-3.948.494-1.284 1.127-2.674.693-3.986-.513-1.538-2.31-2.369-2.818-3.921 1.386-6.253-2.023-12.719-1.732-19.116.069-1.491.328-2.969.332-4.461 0-3.843-1.649-7.584-1.385-11.417.697-9.74-2.624-19.466-4.028-29.133a18.8 18.8 0 01-.296-4.373c.208-2.42 1.331-4.67 2.679-6.688.97-1.445 2.134-2.863 3.737-3.538 1.321-.558 2.799-.554 4.231-.545 3.576.028 7.151.056 10.726.121a35.228 35.228 0 017.252.646c1.935.439 3.746 1.339 5.709 1.621z" fill="#3D3C40"/><path d="M169.578 132.429c-.346-1.695.31-3.51-.203-5.159-.185-.596-.638-1.215-1.261-1.201-.624.014-1.016.61-1.552.891-.864.462-1.917.042-2.772-.411-.854-.452-1.847-.969-2.771-.697-.111.591.286 1.15.72 1.561.477.364.872.823 1.16 1.349.217.545.115 1.154.161 1.741.097 1.339.924 2.498 1.797 3.542a63.624 63.624 0 004.356 4.826s2.31-2.882 2.277-3.385c-.032-.503-.822-.924-1.108-1.302a4.418 4.418 0 01-.804-1.755z" fill="#fff"/><path opacity=".72" d="M169.578 132.429c-.346-1.695.31-3.51-.203-5.159-.185-.596-.638-1.215-1.261-1.201-.624.014-1.016.61-1.552.891-.864.462-1.917.042-2.772-.411-.854-.452-1.847-.969-2.771-.697-.111.591.286 1.15.72 1.561.477.364.872.823 1.16 1.349.217.545.115 1.154.161 1.741.097 1.339.924 2.498 1.797 3.542a63.624 63.624 0 004.356 4.826s2.31-2.882 2.277-3.385c-.032-.503-.822-.924-1.108-1.302a4.418 4.418 0 01-.804-1.755z" fill="#3D3C40" fill-opacity=".72"/><path d="M238.892 167.898a8.88 8.88 0 01.462 1.663c.601 2.909.98 5.861 1.354 8.807.097.785.198 1.575.226 2.365a10.792 10.792 0 01-1.122 5.445 7.62 7.62 0 01-4.079 3.695c-.545.194-1.307.23-1.547-.296a1.131 1.131 0 010-.753c.217-.785.656-1.492.923-2.254a6.072 6.072 0 00.204-3.556c-.111-.462-.347-.956-.804-1.048a4.042 4.042 0 01-.536 3.03 1.051 1.051 0 01-.619.526.84.84 0 01-.877-.563 2.413 2.413 0 01-.07-1.123 37.77 37.77 0 01.859-5.616c.509-2.027 1.317-4.027 1.261-6.119-.046-1.894-.799-3.755-.586-5.635a.459.459 0 01.342-.461c.53-.218 1.075-.398 1.63-.541.328-.083 1.446-.462 1.76-.295.314.166.333.983.462 1.27.245.475.545.947.757 1.459z" fill="#fff"/><path opacity=".72" d="M238.893 167.898c.207.538.361 1.095.462 1.663.6 2.909.979 5.861 1.353 8.807.097.785.199 1.575.226 2.365a10.792 10.792 0 01-1.122 5.445 7.62 7.62 0 01-4.079 3.695c-.545.194-1.307.23-1.547-.296a1.131 1.131 0 010-.753c.217-.785.656-1.492.924-2.254a6.08 6.08 0 00.203-3.556c-.111-.462-.347-.956-.804-1.048a4.038 4.038 0 01-.536 3.03 1.051 1.051 0 01-.619.526.84.84 0 01-.877-.563 2.413 2.413 0 01-.069-1.123 37.64 37.64 0 01.859-5.616c.508-2.027 1.316-4.027 1.261-6.119-.047-1.894-.799-3.755-.587-5.635a.459.459 0 01.342-.461c.53-.218 1.075-.398 1.63-.541.328-.083 1.446-.462 1.76-.295.314.166.333.983.462 1.27.245.475.545.947.758 1.459z" fill="#3D3C40" fill-opacity=".72"/><path d="M201.51 111.784a7.736 7.736 0 100-15.472 7.736 7.736 0 100 15.472z" fill="#fff"/><path opacity=".72" d="M201.51 111.784a7.736 7.736 0 100-15.472 7.736 7.736 0 100 15.472z" fill="#3D3C40" fill-opacity=".72"/><path d="M208.443 109.646c-.003.494.036.986.116 1.473.107.493.262.974.462 1.437a8.36 8.36 0 001.081 2.124 3.168 3.168 0 001.958 1.275 55.645 55.645 0 01-16.735 4.835 7.051 7.051 0 002.217-2.369c.292-.609.49-1.258.587-1.926a16.16 16.16 0 00-.725-8.345c-.097-.259-.19-.582 0-.799a.798.798 0 01.277-.176 17.189 17.189 0 017.27-1.357c.638 0 1.275.032 1.913.078.342.028 1.094-.046 1.385.203.291.25.162 1.229.171 1.631l.023 1.916z" fill="#fff"/><path opacity=".72" d="M208.443 109.646c-.003.494.036.986.116 1.473.107.493.262.974.462 1.437a8.39 8.39 0 001.08 2.124 3.17 3.17 0 001.959 1.275 55.645 55.645 0 01-16.735 4.835 7.051 7.051 0 002.217-2.369 6.702 6.702 0 00.587-1.926 16.16 16.16 0 00-.725-8.345c-.097-.259-.19-.582 0-.799a.798.798 0 01.277-.176 17.189 17.189 0 017.27-1.357c.638 0 1.275.032 1.912.078.342.028 1.095-.046 1.386.203.291.25.162 1.229.171 1.631l.023 1.916z" fill="#3D3C40" fill-opacity=".72"/><path d="M212.536 115.289a8.287 8.287 0 00-9.903-2.466c-3.696 1.76-5.497 6.004-8.735 8.461a15.195 15.195 0 01-2.347 1.446 6.56 6.56 0 01-1.543.609c-.605.134-1.233.116-1.847.259a4.74 4.74 0 00-2.739 2.124 14.4 14.4 0 01-1.007 1.552c-.337.402-.758.73-1.113 1.113-1.289 1.386-1.64 3.372-1.931 5.238a24.858 24.858 0 01-3.289 2.895c-.37.285-.781.513-1.219.675-1.132.369-2.384-.097-3.349-.795-.966-.697-1.751-1.616-2.703-2.309a86.726 86.726 0 01-2.72 3.695c-.14.232-.355.408-.61.499-.175.591.245 1.2.559 1.727l1.686 2.836a14.408 14.408 0 002.037 2.854 4.776 4.776 0 003.099 1.454 6.117 6.117 0 002.176-.42c3.233-1.08 6.167-2.803 9.238-4.272a4.107 4.107 0 011.811-.531 1.463 1.463 0 011.432 1.03c.351 1.773.697 3.538 1.178 5.274a122.04 122.04 0 011.27 4.947 21.27 21.27 0 01.554 3.089c.051.591.056 1.183.065 1.778l.065 7.168c0 .776-.435 1.256-.776 1.949a4.616 4.616 0 00-.217 3.445c.189.559.489 1.077.702 1.631.508 1.334.489 2.803.462 4.23l-.061 3.27a.682.682 0 00.07.397c.198.31.679.13.984-.083l1.51-1.034c2.047.282 4.116.383 6.18.3 5.871-.083 11.747.148 17.604.559 1.958.138 3.977.286 5.825-.365.923-.333 1.801-.864 2.771-1.127a2.53 2.53 0 001.095-.462c.536-.494.392-1.386.175-2.06a22.91 22.91 0 00-.656-1.806 10.966 10.966 0 01-.609-1.685c-.291-1.303 0-2.813-.818-3.875-1.82-2.379-.531-6.041-1.298-8.937-.245-.924-.61-1.847-.841-2.771a18.5 18.5 0 01-.328-1.792 21.034 21.034 0 01-.355-3.944c0-.66.106-1.321.189-1.977l.578-4.563a14.52 14.52 0 011.487 4.314 63.318 63.318 0 001.94 6.655c.434 1.316.868 2.628 1.34 3.935.301.746.531 1.52.688 2.309.101.633.106 1.28.18 1.912a8.73 8.73 0 001.386 3.82c.141.266.374.473.656.582.187.041.381.041.568 0a22.614 22.614 0 005.875-2.033c.395-.165.737-.433.993-.775.499-.813-.06-1.825-.305-2.748-.244-.924-.198-2.176-.974-2.836-2.712-2.309-1.386-6.988-2.721-10.276-.24-.577-.517-1.136-.72-1.727a17.08 17.08 0 01-.388-1.386 339.93 339.93 0 00-3.04-11.44c-1.118-3.935-.998-8.031-2.406-11.874a12.59 12.59 0 00-1.03-2.309 6.324 6.324 0 00-1.848-1.926c-2.046-1.353-4.106-2.503-6.513-2.992-2.407-.49-5.021-.462-7.469-.435z" fill="#fff"/><path d="M212.536 115.289a8.287 8.287 0 00-9.903-2.466c-3.696 1.76-5.497 6.004-8.735 8.461a15.195 15.195 0 01-2.347 1.446 6.56 6.56 0 01-1.543.609c-.605.134-1.233.116-1.847.259a4.74 4.74 0 00-2.739 2.124 14.4 14.4 0 01-1.007 1.552c-.337.402-.758.73-1.113 1.113-1.289 1.386-1.64 3.372-1.931 5.238a24.858 24.858 0 01-3.289 2.895c-.37.285-.781.513-1.219.675-1.132.369-2.384-.097-3.349-.795-.966-.697-1.751-1.616-2.703-2.309a86.726 86.726 0 01-2.72 3.695c-.14.232-.355.408-.61.499-.175.591.245 1.2.559 1.727l1.686 2.836a14.408 14.408 0 002.037 2.854 4.776 4.776 0 003.099 1.454 6.117 6.117 0 002.176-.42c3.233-1.08 6.167-2.803 9.238-4.272a4.107 4.107 0 011.811-.531 1.463 1.463 0 011.432 1.03c.351 1.773.697 3.538 1.178 5.274a122.04 122.04 0 011.27 4.947 21.27 21.27 0 01.554 3.089c.051.591.056 1.183.065 1.778l.065 7.168c0 .776-.435 1.256-.776 1.949a4.616 4.616 0 00-.217 3.445c.189.559.489 1.077.702 1.631.508 1.334.489 2.803.462 4.23l-.061 3.27a.682.682 0 00.07.397c.198.31.679.13.984-.083l1.51-1.034c2.047.282 4.116.383 6.18.3 5.871-.083 11.747.148 17.604.559 1.958.138 3.977.286 5.825-.365.923-.333 1.801-.864 2.771-1.127a2.53 2.53 0 001.095-.462c.536-.494.392-1.386.175-2.06a22.91 22.91 0 00-.656-1.806 10.966 10.966 0 01-.609-1.685c-.291-1.303 0-2.813-.818-3.875-1.82-2.379-.531-6.041-1.298-8.937-.245-.924-.61-1.847-.841-2.771a18.5 18.5 0 01-.328-1.792 21.034 21.034 0 01-.355-3.944c0-.66.106-1.321.189-1.977l.578-4.563a14.52 14.52 0 011.487 4.314 63.318 63.318 0 001.94 6.655c.434 1.316.868 2.628 1.34 3.935.301.746.531 1.52.688 2.309.101.633.106 1.28.18 1.912a8.73 8.73 0 001.386 3.82c.141.266.374.473.656.582.187.041.381.041.568 0a22.614 22.614 0 005.875-2.033c.395-.165.737-.433.993-.775.499-.813-.06-1.825-.305-2.748-.244-.924-.198-2.176-.974-2.836-2.712-2.309-1.386-6.988-2.721-10.276-.24-.577-.517-1.136-.72-1.727a17.08 17.08 0 01-.388-1.386 339.93 339.93 0 00-3.04-11.44c-1.118-3.935-.998-8.031-2.406-11.874a12.59 12.59 0 00-1.03-2.309 6.324 6.324 0 00-1.848-1.926c-2.046-1.353-4.106-2.503-6.513-2.992-2.407-.49-5.021-.462-7.469-.435z" fill="#3D3C40" fill-opacity=".64"/><path d="M194.48 105.942c-1.04-.559-.767-2.083-.924-3.233-.365-2.406-3.076-3.829-3.695-6.175a4.157 4.157 0 002.152-.305 3.296 3.296 0 00-.434-2.254c2.231-.923 4.042-2.683 6.305-3.5 2.855-1.03 6.005-.397 8.906.559 1.436.461 2.928 1.094 3.797 2.332.951 1.362.923 3.15.886 4.812-.078 2.605-.184 5.302-1.344 7.634-1.473 2.97-5.654 5.718-9.109 4.914-1.432-.332-1.847-1.237-2.462-2.484-.378-.776-.517-1.677-1.385-2.083-.869-.407-1.848.235-2.693-.217z" fill="#3D3C40"/><path opacity=".1" d="M191.976 95.094a3.219 3.219 0 00-.425-1.132c.129-.052.259-.108.388-.166.1.425.113.867.037 1.298zm1.561 6.474c.176 1.169-.097 2.688.924 3.233.841.462 1.848-.189 2.675.208.826.397.988 1.307 1.385 2.083.605 1.247 1.03 2.148 2.462 2.485 3.455.803 7.636-1.949 9.109-4.919 1.16-2.332 1.266-5.03 1.344-7.634v-.383 1.51c-.078 2.605-.184 5.302-1.344 7.634-1.473 2.97-5.654 5.718-9.109 4.914-1.432-.332-1.847-1.238-2.462-2.485-.378-.776-.517-1.676-1.385-2.083-.869-.406-1.848.25-2.675-.203-1.039-.559-.767-2.083-.924-3.233-.365-2.406-3.076-3.828-3.695-6.174.167.022.335.033.504.032.993 1.713 2.891 3.034 3.191 5.015z" fill="#3D3C40"/><defs><filter id="filter0_f" x="2" y="1" width="326.682" height="256" filterUnits="userSpaceOnUse" color-interpolation-filters="sRGB"><feFlood flood-opacity="0" result="BackgroundImageFix"/><feBlend in="SourceGraphic" in2="BackgroundImageFix" result="shape"/><feGaussianBlur stdDeviation="2" result="effect1_foregroundBlur"/></filter></defs></svg>