<svg width="234" height="167" fill="none" xmlns="http://www.w3.org/2000/svg"><g clip-path="url(#clip0)"><path d="M230.294 112.273c-5.427 11.164-16.447 18.629-27.868 23.552-15.375 6.63-32.306 9.259-49.005 8.147a110.657 110.657 0 01-8.753-.931 110.62 110.62 0 01-29.265-8.497 105.45 105.45 0 01-7.901-3.954 101.172 101.172 0 01-15.262-10.359c-.664-.546-1.322-1.104-1.99-1.646-1.41-1.142-2.86-2.228-4.477-3.041a16.026 16.026 0 00-1.5-.659c-5.123-1.944-11.03-1.21-16.363.305-4.057 1.153-8.011 2.731-12.064 3.858a40.25 40.25 0 01-5.497 1.165A29.343 29.343 0 0138 119.131l-.34-.106a30.666 30.666 0 01-1.703-.588l-.34-.131a26.116 26.116 0 01-1.6-.674l-.341-.155a29.398 29.398 0 01-1.6-.8c-.187-.098-.373-.204-.557-.304a33.39 33.39 0 01-8-6.21c-.067-.067-.13-.136-.203-.203a31.782 31.782 0 01-2.354-2.846l-.149-.204a29.423 29.423 0 01-3.523-6.413c-.273-.7-.521-1.41-.746-2.133a20.77 20.77 0 01-.257-.913 6.804 6.804 0 01-.074-.27c-1.127-4.426-1.256-9.028-1.256-13.602v-1.6c.033-7.399.147-14.925 1.242-22.223 0-.05.014-.102.023-.15a69.217 69.217 0 011.493-7.296 53.728 53.728 0 012.514-7.394c2.519-5.907 6.181-11.282 10.248-16.264 10.244-12.536 23.678-23.06 39.403-27 16.944-4.242 35.775-.177 49.442 10.673 4.167 3.308 7.911 7.225 12.591 9.76 4.085 2.208 8.867 3.123 13.243 1.386 3.615-1.436 5.968-2.15 10.029-1.931a84.273 84.273 0 0124.585 5.134c.319.117.638.237.954.357 20.572 7.848 38.255 23.44 47.447 43.476.244.53.48 1.063.709 1.6 5.48 12.765 7.462 27.725 1.415 40.166z" fill="#166DE0" fill-opacity=".08"/><path opacity=".1" d="M24.573 151.333c9.96 0 18.033-1.293 18.033-2.888s-8.074-2.888-18.033-2.888c-9.959 0-18.032 1.293-18.032 2.888s8.073 2.888 18.032 2.888z" fill="#6C63FF"/><path d="M215.291 21.946H26.274a2.548 2.548 0 00-2.55 2.544v104.56a2.548 2.548 0 002.55 2.544h189.017a2.547 2.547 0 002.551-2.544V24.49a2.547 2.547 0 00-2.551-2.544z" fill="url(#paint0_linear)"/><path d="M215.005 23.488H26.583a2.548 2.548 0 00-2.551 2.544v102.653a2.548 2.548 0 002.551 2.544h188.422a2.548 2.548 0 002.552-2.544V26.032a2.548 2.548 0 00-2.552-2.544z" fill="#fff"/><path d="M215.005 23.488H26.583a2.548 2.548 0 00-2.551 2.544v102.653a2.548 2.548 0 002.551 2.544h188.422a2.548 2.548 0 002.552-2.544V26.032a2.548 2.548 0 00-2.552-2.544z" fill="#fff"/><path opacity=".04" d="M215.005 23.488H26.583a2.548 2.548 0 00-2.551 2.544v102.653a2.548 2.548 0 002.551 2.544h188.422a2.548 2.548 0 002.552-2.544V26.032a2.548 2.548 0 00-2.552-2.544z" fill="#fff"/><path d="M216.574 22.252H25.014a.984.984 0 00-.982.98v4.14h193.516v-4.14a.98.98 0 00-.974-.98z" fill="#3D3C40"/><path d="M27.897 26.136c.733 0 1.327-.593 1.327-1.324 0-.731-.594-1.324-1.327-1.324-.734 0-1.328.593-1.328 1.324 0 .731.594 1.324 1.328 1.324zm3.574 0c.734 0 1.328-.593 1.328-1.324 0-.731-.594-1.324-1.328-1.324-.733 0-1.327.593-1.327 1.324 0 .731.594 1.324 1.327 1.324zm3.575 0c.733 0 1.328-.593 1.328-1.324 0-.731-.595-1.324-1.328-1.324-.733 0-1.328.593-1.328 1.324 0 .731.595 1.324 1.328 1.324z" fill="#fff"/><path d="M91.905 37.003H39.971v4.395h51.934v-4.395zm109.778 17.584H40.036V122.2h161.647V54.587zm-.065-6.467h-16.362v3.85h16.362v-3.85z" fill="#166DE0" fill-opacity=".08"/><path opacity=".1" d="M176.567 92.28a4.764 4.764 0 01-.116.814c0-.075 0-.118-.017-.124-.061-.016.012-.328.133-.69z" fill="#000"/><path opacity=".1" d="M174.306 152.657s.817 1.019.469 1.487c-.347.469-.469-1.487-.469-1.487z" fill="#000" stroke="#6C63FF" stroke-miterlimit="10"/><path opacity=".1" d="M183.144 60.904c-.106.5-.46 1.066-.968 1.005-.157-.02-.3-.1-.456-.135-.427-.093-.68.306-1.082.204a1.532 1.532 0 01-.936-.764 1.765 1.765 0 01-.19-.666c-.041.36.026.725.19 1.049a1.528 1.528 0 00.936.764c.408.094.655-.306 1.082-.204.15.052.302.096.456.133.508.063.862-.504.968-1.003.084-.44.117-.89.098-1.338-.002.321-.035.64-.098.956zm-2.798-3.067a2.333 2.333 0 00-.135-.983 5.096 5.096 0 01-.235-.644.74.74 0 00-.02.104c-.035.32.145.61.255.922.071.194.117.396.135.601zm15.605-1.073c-.096.578-.565 1.122-.612 1.731a1.37 1.37 0 000 .314c.102-.711.733-1.34.612-2.045zm.035 4.298a.473.473 0 01-.116.228c-.151.16-.409.173-.613.252-.496.19-.817.788-1.356.782a.685.685 0 01-.613-.472 1.028 1.028 0 00-.029.134.672.672 0 00.382.653.68.68 0 00.258.066c.533 0 .86-.593 1.356-.78.204-.08.453-.091.613-.252a.675.675 0 00.126-.552c-.002-.025-.006-.041-.008-.06zm-2.561-.169c-.051-.37-.501-.522-.738-.815a1.119 1.119 0 01-.225-.668c-.016.379-.01.766.225 1.051.235.285.593.407.707.7a.663.663 0 00.031-.268z" fill="#000"/><g opacity=".1" fill="#000"><path opacity=".1" d="M182.415 60.892a1.566 1.566 0 011.18-1.46 4.918 4.918 0 012.754.124c1.938.64-.245 2.941-.245 2.941s-1.453 1.426-2.807.43a2.11 2.11 0 01-.79-1.222 3.05 3.05 0 01-.092-.813z"/><path opacity=".1" d="M185.983 59.369v.096h3.54v-.114l-3.54.018zm1.13 1.02h.112v-.324s.36-.279.956 0v.29h.204v-.19h-.1s.041-.393-.625-.33c0 0-.535-.05-.523.287h-.122l.098.267z"/></g><path d="M24.493 118.672v-25.05h.16v25.05h-.16z" fill="#535461" stroke="#3D3C40"/><path d="M31.947 119.059v.001l-.074 1.174h0l-.102 1.656h0l-.043.69v.001l-.102 1.656v.002l-.045.688v.002l-.102 1.656h0l-1.17 18.834h0a2.686 2.686 0 01-.845 1.794 2.7 2.7 0 01-1.85.731h-6.082s0 0 0 0a2.698 2.698 0 01-1.849-.731 2.684 2.684 0 01-.843-1.793v-.001l-1.176-18.834h0l-.103-1.656h0l-.042-.69v-.001l-.1-1.661v-.001l-.043-.69h0l-.103-1.656h0l-.073-1.173s0 0 0 0a1.151 1.151 0 011.155-1.223h12.438a1.155 1.155 0 011.154 1.225z" fill="#3F3D56" stroke="#3D3C40"/><path d="M32.372 120.266l-.102 1.656H16.875l-.102-1.656h15.6zm-.145 2.346l-.102 1.658H17.022l-.104-1.658h15.31zm-.147 2.348l-.102 1.656h-14.81l-.104-1.656H32.08z" fill="#fff"/><path d="M15.001 102.886c6.757 4.874 9.572 12.499 9.572 12.499s-8.144-.279-14.911-5.153C2.894 105.358.09 97.732.09 97.732s8.152.28 14.911 5.154z" fill="#06D6A0"/><path d="M.1 97.732s8.453 4.685 11.163 8.555c2.71 3.87 13.31 9.1 13.31 9.1" stroke="#3D3C40" stroke-width="2" stroke-miterlimit="10"/><path d="M19.362 93.074c3.677 2.648 5.211 6.803 5.211 6.803s-4.433-.15-8.111-2.804c-3.68-2.654-5.21-6.803-5.21-6.803s4.433.14 8.11 2.804z" fill="#06D6A0"/><path d="M11.253 90.259s4.6 2.546 6.075 4.654c1.475 2.108 7.245 4.953 7.245 4.953" stroke="#3D3C40" stroke-width="2" stroke-miterlimit="10"/><path d="M29.919 99.657c-4.227 4.63-5.12 10.679-5.12 10.679s5.957-1.456 10.181-6.086c4.225-4.63 5.12-10.68 5.12-10.68s-5.957 1.456-10.181 6.087z" fill="#06D6A0"/><path d="M40.1 93.57s-5.504 4.745-6.903 8.016c-1.4 3.271-8.397 8.758-8.397 8.758" stroke="#3D3C40" stroke-width="2" stroke-miterlimit="10"/><ellipse cx="120.75" cy="74.595" rx="25.826" ry="25.494" fill="#fff"/><path fill-rule="evenodd" clip-rule="evenodd" d="M147.75 74.89a26.93 26.93 0 01-4.551 14.977 26.993 26.993 0 01-12.117 9.93 27.046 27.046 0 01-15.6 1.533 27.018 27.018 0 01-13.825-7.379 26.95 26.95 0 01-7.388-13.804 26.923 26.923 0 011.537-15.577 26.969 26.969 0 019.944-12.098 27.032 27.032 0 0134.092 3.354 26.948 26.948 0 017.908 19.063zm-34.746-6.99h-1.94a3.215 3.215 0 00-2.279.96 3.296 3.296 0 00-.948 2.309v15.688c.002.866.343 1.696.948 2.309a3.215 3.215 0 002.279.96h19.371a3.22 3.22 0 002.28-.96 3.305 3.305 0 00.948-2.309V71.17a3.305 3.305 0 00-.948-2.309 3.219 3.219 0 00-2.28-.96h-1.936v-3.922a7.952 7.952 0 00-.606-3.022 7.875 7.875 0 00-1.708-2.555 7.756 7.756 0 00-2.545-1.694 7.689 7.689 0 00-2.994-.573c-4.252.066-7.642 3.645-7.642 7.95V67.9zm6.614 15.817v-5.621a2.597 2.597 0 01-1.196-1.222 2.639 2.639 0 01-.185-1.71 2.614 2.614 0 01.907-1.456 2.555 2.555 0 013.208 0c.456.367.776.88.907 1.455a2.639 2.639 0 01-.185 1.71 2.595 2.595 0 01-1.197 1.222v5.654a1.164 1.164 0 01-.35.83 1.13 1.13 0 01-.835.316 1.151 1.151 0 01-.766-.374 1.18 1.18 0 01-.308-.804zM126.24 67.9h-10.98l.005-3.922c0-1.473.578-2.887 1.607-3.929a5.453 5.453 0 013.88-1.627c1.456 0 2.851.585 3.881 1.627a5.593 5.593 0 011.607 3.93v3.92z" fill="#579EFF"/></g><defs><linearGradient id="paint0_linear" x1="120.782" y1="131.594" x2="120.782" y2="21.946" gradientUnits="userSpaceOnUse"><stop stop-color="gray" stop-opacity=".25"/><stop offset=".54" stop-color="gray" stop-opacity=".12"/><stop offset="1" stop-color="gray" stop-opacity=".1"/></linearGradient><clipPath id="clip0"><path fill="#fff" d="M0 0h234v167H0z"/></clipPath></defs></svg>