<svg width="234" height="148" fill="none" xmlns="http://www.w3.org/2000/svg"><g clip-path="url(#clip0)"><ellipse cx="194.625" cy="139.211" rx="10.125" ry="1.114" fill="#3D3C40" fill-opacity=".08"/><ellipse cx="222.375" cy="140.325" rx="11.625" ry="1.485" fill="#3D3C40" fill-opacity=".08"/><path d="M122.194 36.135h-4.173c.395.017.789-.043 1.159-.178a2.94 2.94 0 00.994-.608 2.84 2.84 0 00.668-.94 2.775 2.775 0 000-2.24 2.837 2.837 0 00-.668-.939 2.94 2.94 0 00-.994-.608 2.991 2.991 0 00-1.159-.178H84.224a2.957 2.957 0 00-1.98.878 2.81 2.81 0 00-.81 1.967c0 .733.29 1.438.81 1.968s1.228.844 1.98.878h4.172a2.995 2.995 0 00-1.159.178c-.37.135-.707.342-.993.607a2.848 2.848 0 00-.668.94 2.786 2.786 0 000 2.24c.155.353.382.673.668.939.285.266.624.473.993.608.37.135.765.195 1.16.178h-5.84a2.993 2.993 0 00-1.16.178c-.37.135-.708.342-.993.608a2.846 2.846 0 00-.669.94 2.786 2.786 0 000 2.239c.156.354.383.673.669.94.285.265.623.472.993.607s.764.196 1.16.178h33.797c.394.018.789-.043 1.159-.178.369-.135.707-.342.993-.608a2.83 2.83 0 00.668-.94 2.775 2.775 0 000-2.239 2.836 2.836 0 00-.668-.94 2.946 2.946 0 00-.993-.607 2.996 2.996 0 00-1.159-.178h5.84c.394.017.789-.043 1.159-.178s.708-.342.993-.608c.286-.266.513-.586.669-.94a2.79 2.79 0 00-.669-3.178 2.927 2.927 0 00-.993-.608 2.998 2.998 0 00-1.159-.178zM64.853 11.566h-1.685a1.193 1.193 0 00.87-.323 1.168 1.168 0 00.364-.845 1.159 1.159 0 00-.365-.846 1.183 1.183 0 00-.87-.322H49.512c-.303.013-.59.142-.8.36a1.163 1.163 0 000 1.615c.21.218.496.347.8.36h1.686a1.193 1.193 0 00-.87.323 1.17 1.17 0 00-.365.846 1.16 1.16 0 00.365.845 1.182 1.182 0 00.87.322h-2.36a1.193 1.193 0 00-.87.323 1.17 1.17 0 00-.365.845 1.16 1.16 0 00.366.846 1.184 1.184 0 00.87.322h13.655a1.192 1.192 0 00.87-.322 1.169 1.169 0 00.364-.846 1.158 1.158 0 00-.365-.845 1.184 1.184 0 00-.87-.322h2.36a1.192 1.192 0 00.87-.323 1.169 1.169 0 00.365-.845 1.158 1.158 0 00-.365-.846 1.184 1.184 0 00-.87-.322zm162.943-8.975h-1.686a1.191 1.191 0 00.869-.323 1.167 1.167 0 00.366-.845 1.172 1.172 0 00-.366-.845 1.181 1.181 0 00-.869-.323h-13.655a1.188 1.188 0 00-.801.36 1.163 1.163 0 000 1.616c.21.217.497.346.801.36h1.685a1.194 1.194 0 00-.869.323 1.15 1.15 0 00-.365.845 1.155 1.155 0 00.365.845 1.181 1.181 0 00.869.323h-2.359a1.188 1.188 0 00-1.14.708 1.155 1.155 0 000 .92 1.179 1.179 0 001.14.708h13.655c.304-.014.59-.143.8-.36a1.163 1.163 0 000-1.616 1.185 1.185 0 00-.8-.36h2.36a1.194 1.194 0 00.869-.323 1.15 1.15 0 00.365-.845 1.155 1.155 0 00-.365-.845 1.182 1.182 0 00-.869-.323z" fill="#166DE0" fill-opacity=".08"/><path d="M222.974 60.398V44.874h-9.311v15.524h-11.026V36.384h-8.086v-17.95h-6.616V0h-13.721v18.435h-6.616v17.95h-7.841V14.796h-4.41V3.881h-2.696v10.915H136.97v68.888h-12.007v-7.276h-7.35v7.276h-12.007V60.398H84.044V44.874h-9.311v15.524h-.49v29.836h-9.801V72.769H52.68v17.465h-9.8v-53.85h-7.596v-17.95H7.35v17.95H0v94.843h234V60.398h-11.026z" fill="#fff"/><path opacity=".3" d="M222.974 60.398V44.874h-9.311v15.524h-11.026V36.384h-8.086v-17.95h-6.616V0h-13.721v18.435h-6.616v17.95h-7.841V14.796h-4.41V3.881h-2.696v10.915H136.97v68.888h-12.007v-7.276h-7.35v7.276h-12.007V60.398H84.044V44.874h-9.311v15.524h-.49v29.836h-9.801V72.769H52.68v17.465h-9.8v-53.85h-7.596v-17.95H7.35v17.95H0v94.843h234V60.398h-11.026z" fill="#166DE0"/><path opacity=".4" d="M14.946 41.963H4.656v5.821h10.29v-5.821zm12.742 5.822H37.98v-5.821H27.688v5.821zm-12.742 5.578H4.656v5.822h10.29v-5.822zm12.742 5.822H37.98v-5.821H27.688v5.822zm-12.742 5.579H4.656v5.821h10.29v-5.821zm12.742 5.822H37.98v-5.822H27.688v5.822zm-12.742 5.578H4.656v5.822h10.29v-5.822zm12.742 5.822H37.98v-5.821H27.688v5.821zm-12.742 5.58H4.656v5.822h10.29v-5.822zm12.742 5.821H37.98v-5.822H27.688v5.822zm-12.742 5.58H4.656v5.821h10.29v-5.821zm12.742 5.82H37.98v-5.821H27.688v5.821zm-12.742 5.58H4.656v5.822h10.29v-5.822zm12.742 5.821H37.98v-5.822H27.688v5.822zm42.879-20.133H46.555v2.91h24.012v-2.91zm0 4.367H46.555v2.911h24.012v-2.911zm0 4.365H46.555v2.911h24.012v-2.911zm62.727-7.277h-24.013v2.911h24.013V97.51zm0 4.367h-24.013v2.911h24.013v-2.911zm0 4.365h-24.013v2.911h24.013v-2.911zm-62.727 2.912H46.555v2.911h24.012v-2.911zm0 4.366H46.555v2.91h24.012v-2.91zm0 4.367H46.555v2.91h24.012v-2.91zm15.437-51.91H79.39v8.49h6.615v-8.49zm7.841 8.49h6.616v-8.49h-6.616v8.49zm-7.841 5.093H79.39v8.49h6.615v-8.49zm7.841 8.49h6.616v-8.489h-6.616v8.49zm-7.841 5.094H79.39v8.49h6.615v-8.49zm7.841 8.491h6.616v-8.49h-6.616v8.49zm-7.841 5.094H79.39v8.489h6.615v-8.489zm7.841 8.488h6.616v-8.49h-6.616v8.49zm51.946-94.842h-8.821v11.158h8.821V20.375zm0 16.01h-8.821v11.158h8.821V36.385zm0 16.01h-8.821v11.157h8.821V52.395zm0 16.007h-8.821V79.56h8.821V68.402zm0 16.01h-8.821V95.57h8.821V84.412zm0 16.01h-8.821v11.158h8.821v-11.158zm51.823-57.246H164.78v9.46h32.834v-9.46zm.122 20.374h-32.834v9.46h32.834v-9.46zm.123 20.378h-32.834v9.46h32.834v-9.46zm.122 20.375h-32.834v9.46h32.834v-9.46zM11.761 23.53h-4.41v9.217h4.41v-9.218zM234 65.977h-11.026v14.068H234V65.977zm0 20.376h-11.026v14.069H234V86.353zm0 20.376h-11.026v14.068H234v-14.068z" fill="#fff"/><ellipse cx="35.625" cy="145.893" rx="13.875" ry="1.856" fill="#3D3C40" fill-opacity=".08"/><path d="M29.337 146.237s-6.045-20.317 1.134-35.271c3.014-6.275 4.014-13.322 2.622-20.133a53.572 53.572 0 00-2.88-9.46" stroke="#3D3C40" stroke-width="2" stroke-miterlimit="10"/><path d="M34.67 71.934c0 2.491-4.554 9.703-4.554 9.703s-4.555-7.221-4.555-9.703a4.48 4.48 0 011.296-3.256 4.54 4.54 0 011.49-1.004 4.595 4.595 0 015.026 1.004c.424.43.757.94.98 1.499.222.559.33 1.156.315 1.757h.003zm7.538 13.792c-1.367 2.09-9.154 5.7-9.154 5.7s.142-8.511 1.51-10.602a4.558 4.558 0 012.862-1.876 4.593 4.593 0 013.373.636 4.51 4.51 0 011.966 2.786 4.47 4.47 0 01-.557 3.353v.003zm-.331 23.571c-2.247 1.121-10.809.347-10.809.347s4.462-7.277 6.71-8.398a4.602 4.602 0 013.437-.203 4.543 4.543 0 012.599 2.238 4.468 4.468 0 01.273 3.399 4.522 4.522 0 01-2.208 2.617h-.002zm-4.305 17.777c-2.022 1.479-10.595 2.149-10.595 2.149s3.155-7.917 5.177-9.399a4.583 4.583 0 016.4.922 4.482 4.482 0 01.84 3.366 4.518 4.518 0 01-1.823 2.962zM23.49 91.91c1.803 1.734 10.21 3.532 10.21 3.532s-2.058-8.265-3.862-10.001a4.558 4.558 0 00-1.493-1.002 4.594 4.594 0 00-5.025 1.018 4.47 4.47 0 00-.883 5.002c.251.547.61 1.04 1.055 1.448l-.002.003zm-4.769 20.852c2.247 1.12 10.809.347 10.809.347s-4.462-7.277-6.71-8.398a4.602 4.602 0 00-3.437-.203 4.543 4.543 0 00-2.6 2.238 4.468 4.468 0 00-.272 3.399 4.522 4.522 0 002.208 2.617h.002zm-1.824 20.9c2.021 1.479 10.595 2.149 10.595 2.149s-3.156-7.92-5.18-9.399a4.589 4.589 0 00-6.342.964 4.477 4.477 0 00.924 6.286h.003z" fill="#166DE0"/><path d="M218.019 140.991s-6.045-20.317 1.135-35.271c3.013-6.275 4.013-13.322 2.621-20.133a53.51 53.51 0 00-2.879-9.46" stroke="#3D3C40" stroke-width="2" stroke-miterlimit="10"/><path d="M223.611 66.688c0 2.491-4.555 9.703-4.555 9.703s-4.555-7.222-4.555-9.703a4.48 4.48 0 011.296-3.256 4.59 4.59 0 016.516 0 4.5 4.5 0 011.296 3.256h.002zm7.543 12.388c-1.367 2.091-9.154 5.7-9.154 5.7s.142-8.511 1.509-10.602a4.568 4.568 0 012.876-2.042 4.601 4.601 0 013.484.612 4.514 4.514 0 011.991 2.897 4.481 4.481 0 01-.706 3.433v.002zm-.592 24.975c-2.247 1.12-10.808.347-10.808.347s4.462-7.277 6.709-8.398a4.597 4.597 0 013.438-.203 4.541 4.541 0 012.599 2.238 4.467 4.467 0 01.273 3.399 4.523 4.523 0 01-2.209 2.617h-.002zm-4.305 17.777c-2.021 1.479-10.595 2.149-10.595 2.149s3.156-7.917 5.178-9.399a4.587 4.587 0 016.341.964 4.476 4.476 0 01-.924 6.286zm-14.084-35.172c1.804 1.735 10.21 3.532 10.21 3.532s-2.058-8.264-3.861-10a4.58 4.58 0 00-3.24-1.275 4.579 4.579 0 00-3.202 1.366 4.487 4.487 0 00-1.288 3.208 4.493 4.493 0 001.381 3.17zm-4.759 20.86c2.247 1.121 10.808.347 10.808.347s-4.462-7.277-6.708-8.397a4.598 4.598 0 00-3.428-.188 4.54 4.54 0 00-2.587 2.235 4.465 4.465 0 00-.276 3.387 4.517 4.517 0 002.191 2.616z" fill="#166DE0"/><path d="M208.817 128.416c2.021 1.479 10.595 2.149 10.595 2.149s-3.156-7.917-5.177-9.4a4.594 4.594 0 00-3.372-.81 4.566 4.566 0 00-2.97 1.775 4.47 4.47 0 00-.845 3.331 4.501 4.501 0 001.769 2.955z" fill="#166DE0"/><path d="M190.753 139.013s-3.25-10.915.61-18.954a17.093 17.093 0 001.409-10.818 28.793 28.793 0 00-1.547-5.077" stroke="#3D3C40" stroke-width="2" stroke-miterlimit="10"/><path d="M193.625 99.082c0 1.339-2.45 5.217-2.45 5.217s-2.45-3.881-2.45-5.217c0-.643.258-1.26.717-1.715a2.464 2.464 0 013.465 0c.46.455.718 1.072.718 1.715zm4.045 7.414c-.735 1.123-4.92 3.063-4.92 3.063s.076-4.575.811-5.698a2.465 2.465 0 014.148-.129 2.407 2.407 0 01-.039 2.764zm-.177 12.663c-1.208.602-5.809.187-5.809.187s2.398-3.91 3.604-4.512a2.472 2.472 0 011.825-.076 2.443 2.443 0 011.372 1.194c.284.559.34 1.204.155 1.802a2.436 2.436 0 01-1.147 1.408v-.003zm-2.315 9.555c-1.088.795-5.695 1.154-5.695 1.154s1.696-4.254 2.784-5.05a2.469 2.469 0 013.33.575 2.408 2.408 0 01-.419 3.321zm-7.566-18.895c.98.931 5.486 1.899 5.486 1.899s-1.105-4.441-2.076-5.373a2.472 2.472 0 00-2.731-.58 2.454 2.454 0 00-1.344 1.37 2.39 2.39 0 00.073 1.907c.142.297.343.562.592.779v-.002zm-2.563 11.205c1.208.602 5.809.187 5.809.187s-2.398-3.91-3.604-4.511a2.472 2.472 0 00-1.825-.077 2.438 2.438 0 00-1.371 1.194 2.4 2.4 0 00-.156 1.802 2.433 2.433 0 001.147 1.408v-.003zm-.98 11.233c1.087.796 5.694 1.155 5.694 1.155s-1.705-4.257-2.784-5.053a2.47 2.47 0 00-3.348.564 2.407 2.407 0 00.438 3.334z" fill="#06D6A0"/><path opacity=".1" d="M122.868 110.153s-2.45-1.439-2.347-3.881l-3.016-14.494s2.94-2.804 1.294-6.306c-.084-.18-.18-.36-.29-.544-1.083-1.824-3.641-2.27-5.986-2.243 2.25.02 4.617.507 5.651 2.243.109.183.206.364.289.544 1.639 3.512-1.294 6.306-1.294 6.306l3.016 14.501c-.112 2.426 2.348 3.881 2.348 3.881 2.347 3.097 10.727 25.886 10.727 25.886l-10.443 1.662v.053l10.781-1.715s-8.382-22.796-10.73-25.893z" fill="#3D3C40"/><path opacity=".1" d="M107.069 80.85c5.54.066 12.44 3.367 12.44 3.367-.789 4.49-3.457 5.689-8.821 10.89-5.364 5.2-10.73 18.473-10.73 18.473.336 2.425-3.575 18.143-5.253 19.691-1.47 1.349-1.309 3.617-1.247 4.184l.353.131s-.447-2.765 1.225-4.315c1.67-1.55 5.594-17.266 5.258-19.691 0 0 5.364-13.276 10.727-18.476 5.364-5.2 8.035-6.4 8.821-10.889.003.014-7.182-3.432-12.773-3.364z" fill="#3D3C40"/><path opacity=".05" d="M107.049 21.93l-3.071-.594-.022.11 3.071.593.022-.11z" fill="#3D3C40"/></g><defs><clipPath id="clip0"><path fill="#fff" d="M0 0h234v147.75H0z"/></clipPath></defs></svg>