<svg width="234" height="157" fill="none" xmlns="http://www.w3.org/2000/svg"><g clip-path="url(#clip0)"><path d="M157.091 9.42c-8.339-6.192-20.845-6.763-32.114-5.509C89.581 7.853 58.571 26.167 32.024 46.34c-9.61 7.303-19.032 15.119-24.967 24.703-12.07 19.522-6.484 45.143 12.937 59.351 6.609 4.835 14.47 8.361 22.506 11.421 14.286 5.439 29.585 9.559 45.437 9.998 11.302.313 22.614-1.253 33.702-3.401 30.953-6.01 61.019-16.847 85.727-33.688 10.841-7.385 20.926-16.35 24.879-27.437 3.953-11.086.11-24.556-11.796-30.206-4.925-2.336-9.264-3.955-14.903-4.72-8.301-1.124-12.329-2.499-19.939-5.377-7.859-2.972-17.33-9.087-16.307-16.844 1.098-8.315-3.882-14.545-12.209-20.718z" fill="#166DE0" fill-opacity=".04"/><path opacity=".1" d="M187.112 146.695c9.98 0 18.071-.833 18.071-1.861s-8.091-1.861-18.071-1.861c-9.98 0-18.071.833-18.071 1.861s8.091 1.861 18.071 1.861z" fill="#3D3C40"/><path d="M165.297 59.937s1.145-6.063 4.83-6.095l2.694 5.594-1.796 1.25s-3.901.125-5.728-.75z" fill="#166DE0"/><path opacity=".1" d="M172.821 59.435l-1.796 1.251s-2.746.089-4.709-.4a5.6 5.6 0 01-1.019-.35s0-.034.021-.097v-.023c.169-.761.402-1.506.697-2.227.115-.273.243-.553.381-.834.54-1.057 1.297-2.075 2.335-2.584.384-.19.802-.3 1.229-.323h.163l.059.124.91 1.889 1.729 3.574z" fill="#3D3C40"/><path d="M203.412 84.626s3.872-.374 4.211-.093c.339.28 2.539 1.717 3.84.81 1.302-.905.434-4.062.434-4.186 0-.125-.124-4.595-.124-4.595l-2.323-3.156-2.909-5.531-5.944-.596.155 8.784-.032 4.5 2.692 4.063z" fill="#166DE0"/><path opacity=".1" d="M203.412 84.626s3.872-.374 4.211-.093c.339.28 2.539 1.717 3.84.81 1.302-.905.434-4.062.434-4.186 0-.125-.124-4.595-.124-4.595l-2.323-3.156-2.909-5.531-5.944-.596.155 8.784-.032 4.5 2.692 4.063z" fill="#3D3C40"/><path d="M169.352 53.68s-.309 3.814-2.662 3.875c0 0-.668-.405-1.566-1.081-2.067-1.561-5.347-4.563-4.441-7.356 1.3-4 7.617 3.38 7.617 3.38l.483.55.569.633z" fill="#fff"/><path d="M169.352 53.68s-.309 3.814-2.662 3.875c0 0-.668-.405-1.566-1.081-2.067-1.561-5.347-4.563-4.441-7.356 1.3-4 7.617 3.38 7.617 3.38l.483.55.569.633z" fill="#3D3C40" fill-opacity=".24"/><path opacity=".1" d="M169.352 53.68s-.309 3.814-2.662 3.875c0 0-.667-.405-1.565-1.081l-.199-.26c.399.21.839.33 1.289.35.354.014.704-.08 1.003-.272.299-.191.533-.47.671-.799.248-.49.465-.995.651-1.512.115-.302.196-.615.243-.934l.569.634z" fill="#3D3C40"/><path d="M168.331 60.593l-.529-.69-1.783-2.323-.909-1.185c.399.211.84.33 1.29.35.592.015 1.255-.21 1.674-1.068.247-.492.464-.998.651-1.515.293-.845.289-1.268.184-1.422-.105-.154.657.566 1.024.917l.012.013.172.162.063.127.897 1.81v.077c.088.58.392 4.229-2.746 4.747z" fill="#fff"/><path d="M186.879 141.038s-2.602 1.72-3.901 1.479c-1.3-.241-2.633.439-2.633.439a7.839 7.839 0 01-3.284 2.157c-2.093.718-5.044.435-6.717-.127-.791-.266-.856-.608-.475-1.033.419-.473 1.394-1.041 2.512-1.717 2.137-1.28 4.427-3.803 4.427-3.803s.031-.634.403-.904c.23-.199.44-.42.628-.659.333-.397.645-.811.645-.811l7.652.224s.13.555.232 1.123c.088.369.123.748.107 1.126a1.022 1.022 0 00.209.78l.138 1.267.057.459zm16.007 2.157a17.467 17.467 0 00-.253 1.358l-.027.173s-.628 1.375-4.054 1.876c-3.426.501-3.437-1.158-3.437-1.158l.034-.445c.06-.731.184-2.132.276-2.43.121-.405-.094-2.188-.094-2.188l-.036-1.862-.027-1.292 5.699-.596c.035.43.097.858.184 1.28.035.235.12.459.249.657.31.344.494 1.876.494 1.876s1.116 2.25.992 2.751z" fill="#166DE0"/><path opacity=".1" d="M186.137 136.283s.13.555.232 1.124c-.827.154-4.439.785-5.341.344-1.024-.501-3.221-.782-3.221-.782l.035-.127c.333-.397.645-.811.645-.811l7.65.252zm15.014 1.628c-1.444-.247-4.604.351-5.86.608l-.027-1.292 5.699-.596c.036.43.099.858.188 1.28z" fill="#3D3C40"/><path d="M204.364 90.533l-.124 4.407s.155 6.72-.309 7.782c-.465 1.063-.465 5.345-.465 5.345s.31 2.03-.031 2.468c-.342.437-.092 2.062.154 2.907.247.845.032 2.938.032 2.938l-.063 11.814s-.339 3.061-.774 3.5a1.027 1.027 0 00-.247.999s-.371 1.75-.279 2.064c.092.315.279 1.031-.433 1.374-.712.342-.527 1.438-.527 1.438-1.702-.407-6.533.689-6.533.689a29.606 29.606 0 01-1.362-3.346 1.747 1.747 0 01.108-1.423 1.726 1.726 0 011.131-.857c.649-.095-.465-1.25-.465-1.25s.124-.157-.186-1.281c-.31-1.124.061-4.014.155-4.753l.557-4.375s-.247-4.593-.061-4.781c.186-.188.804-2 .496-2.594-.308-.594-.808-4.5-.808-4.72 0-.219-.4-5.281-.4-5.281s-.372-3.532-.278-4.282c.094-.75-.249-3.53-.249-3.53 0-2.324-1.331-4.815-1.331-4.815l-.034.091-2.869 7.63s-.465 2.312-.867 3.624a23.949 23.949 0 00-.605 2.714l-.027.167c0 .07-.021.129-.027.176l-.019.126s.21 1.657-.125 2.189c-.335.532-.712 2.125-.712 2.563 0 .437.031 2.125.031 2.125s.124 3.344-.209 3.72c-.333.376-.157.687-.157.687s.557 2.535.31 3.187c-.247.653-.061 2.187-.061 2.187s-.496 4.846-.557 5.096c-.06.249-.403 2.188-.031 2.344.373.157 1.082 1.093 1.082 1.093s.157 4.096-.402 4.406c-.559.311-.249 1.902-.249 1.902s-4.487.874-5.509.374c-1.021-.501-3.221-.782-3.221-.782l.308-1.027c-.019.036-.224.37-.37-.91-.153-1.344 1.147-.689 1.147-.689s1.021.252-.628-1.373c-1.65-1.625-.838-3.283-.743-3.283.094 0 .312-2.404.312-2.404s.278-1.439.06-2.565c-.217-1.126-.402-4.626-.402-4.626s.155-2.656-.123-3.623c-.279-.968.184-2.721.278-3.127.094-.406-.289-4.115-.289-4.115s.31-1.749.124-3.03c-.186-1.28.186-6.001.186-6.001l.557-5.438s.402-1.69.341-2.377c-.061-.686.467-3.093.467-3.093a3.405 3.405 0 01.247-1.5c.31-.633.433-2.687.433-2.687l2.974-6.876 1.465-6.063 19.66-.188s.073.526.192 1.479c.119.952.287 2.368.473 4.115.172 1.586.36 3.452.542 5.528.595 6.63-.661 7.817-.661 7.817z" fill="#3D3C40"/><path d="M202.545 35.808l-4.584 4.939s-5.881-2.377-5.261-3.188c.238-.315.209-1.308.062-2.402-.209-1.732-.682-3.724-.682-3.724s10.279-1.69 9.419.06c-.317.635-.262 1.387-.065 2.077a7.847 7.847 0 001.111 2.238z" fill="#fff"/><path d="M202.545 35.808l-4.584 4.939s-5.881-2.377-5.261-3.188c.238-.315.209-1.308.062-2.402-.209-1.732-.682-3.724-.682-3.724s10.279-1.69 9.419.06c-.317.635-.262 1.387-.065 2.077a7.847 7.847 0 001.111 2.238z" fill="#3D3C40" fill-opacity=".24"/><path opacity=".1" d="M201.492 31.5c-.316.633-.467.7-.27 1.391-1.343 1.452-3.053 3.045-5.18 3.045a7.284 7.284 0 01-3.28-.776c-.209-1.732-.682-3.724-.682-3.724s10.279-1.69 9.412.063z" fill="#3D3C40"/><path opacity=".1" d="M201.492 31.5c-.316.633-.467.7-.27 1.391-1.343 1.452-3.053 3.045-5.18 3.045a7.284 7.284 0 01-3.28-.776c-.209-1.732-.682-3.724-.682-3.724s10.279-1.69 9.412.063z" fill="#3D3C40"/><path d="M203.414 28.306a7.479 7.479 0 01-2.202 5.18 7.338 7.338 0 01-5.169 2.135 7.337 7.337 0 01-5.168-2.135 7.47 7.47 0 01-2.202-5.18V28.2a7.473 7.473 0 012.195-5.244 7.37 7.37 0 012.402-1.595 7.315 7.315 0 018.02 1.67 7.438 7.438 0 011.581 2.424c.364.905.548 1.874.541 2.85h.002z" fill="#fff"/><path d="M203.414 28.306a7.479 7.479 0 01-2.202 5.18 7.338 7.338 0 01-5.169 2.135 7.337 7.337 0 01-5.168-2.135 7.47 7.47 0 01-2.202-5.18V28.2a7.473 7.473 0 012.195-5.244 7.37 7.37 0 012.402-1.595 7.315 7.315 0 018.02 1.67 7.438 7.438 0 011.581 2.424c.364.905.548 1.874.541 2.85h.002z" fill="#3D3C40" fill-opacity=".24"/><path opacity=".1" d="M204.479 77.38c-.975 0-4.226.035-7.859.092h-.044l-1.199.021h-.038c-4.307.07-8.554-.78-10.256-.619-3.62.343 1.302-3.38 1.302-3.38 2.7.662 5.477.947 8.253.845l1.046-.055c3.291-.188 6.6-.5 8.328-1.024.116.967.281 2.372.467 4.12z" fill="#3D3C40"/><path d="M204.479 77.192c-.975 0-4.226.036-7.859.093h-.044l-1.199.02h-.038c-4.307.07-8.554-.779-10.256-.618-3.62.344 1.302-3.38 1.302-3.38 2.7.662 5.477.946 8.253.845l1.046-.055c3.291-.188 6.6-.501 8.328-1.023.116.968.281 2.366.467 4.118z" fill="#166DE0"/><path opacity=".1" d="M194.062 37.87l-5.697 2.69-4.395 34.314s2.599-1.188 4.087-.438c1.488.75 6.07.064 6.07.064s3.349-.188 3.841.188c.491.376 6.312-1.572 6.312-1.572s1.047-2.374.247-2.746c-.8-.372.255-4.059.255-4.059l-.502-24.753-.992-3.187-2.662-1.625-2.721 2.187-1.3.188-2.543-1.251z" fill="#3D3C40"/><path d="M194.062 37.497l-5.697 2.687-4.395 34.317s2.599-1.187 4.087-.438c1.488.75 6.07.062 6.07.062s3.349-.186 3.841.188c.491.374 6.316-1.564 6.316-1.564s1.047-2.374.247-2.746c-.799-.372.251-4.069.251-4.069l-.502-24.75-.992-3.186-2.662-1.627-2.721 2.189-1.3.188-2.543-1.25z" fill="#fff"/><path opacity=".1" d="M193.968 39.09s1.641 1.968 1.612 2.376c-.03.408-.095 1.375-.095 1.375l-1.239 2.535s-.68 3.157-.68 3.814-1.084 6.337-1.084 6.337l-1.304 8.753-1.641 11.471 1.675 2.905 1.98-1.69 2.633-20.441.556-4.031s.588-7.25.588-8-.339-2.72-.339-2.72.402-1.875 2.074-2.323c1.673-.448-.123-.095-.123-.095l-.961-.78-.837.342s-2.319-.703-2.815.172z" fill="#3D3C40"/><path d="M193.782 38.903s1.643 1.969 1.612 2.375c-.032.405-.094 1.375-.094 1.375l-1.237 2.535s-.683 3.156-.683 3.813-1.084 6.338-1.084 6.338l-1.3 8.75-1.641 11.471 1.675 2.907 1.982-1.69 2.631-20.439.559-4.029s.588-7.25.588-8-.339-2.719-.339-2.719.402-1.876 2.074-2.313c1.672-.437-.124-.093-.124-.093l-.96-.782-.838.345s-2.325-.72-2.821.156z" fill="#579EFF"/><path opacity=".1" d="M192.7 35.621s-.249.188-.31 1.439c-.06 1.25-.929 4.062-.929 4.062s3.221-2.25 4.831-2l-3.592-3.5z" fill="#3D3C40"/><path d="M192.7 35.246s-.249.186-.31 1.437c-.06 1.25-.929 4.062-.929 4.062s3.221-2.25 4.831-1.998l-3.592-3.5z" fill="#fff"/><path opacity=".1" d="M201.492 34.621l-5.082 4.5s4.274 2.562 4.831 3.188c.557.625 1.113-6.127 1.113-6.127l-.862-1.56z" fill="#3D3C40"/><path d="M201.679 34.244l-5.077 4.502s4.271 2.563 4.832 3.188c.561.625 1.114-6.127 1.114-6.127l-.869-1.563z" fill="#fff"/><path opacity=".1" d="M192.884 35.621s-.557-.28-1.082.532c-.387.53-.913.942-1.518 1.188 0 0-5.636.906-5.86 1.656l-2.633.156s-.929.125-1.022 2.094c-.092 1.969-.588 2.157-.588 2.157s-1.084 1.937-.99 2.936c.094 1-.837 1.502-.837 1.502L182.224 58s.126 4.187-.588 5.718c-.714 1.532-2.043 8.313-2.043 8.313s.557-.124.525.25c-.031.373-.661 4.47-.661 4.47s-.186 1.624-.496 2.188c-.31.564-.341 3.499-.341 3.499l-.494 2.125s1.176 2.658 2.972 2.282c1.796-.376 5.046-7.468 5.046-7.468l2.076-7.658 1.61-7.563.465-5.126.743-11.344 1.084-7.502s1.197-4.037.762-4.563z" fill="#3D3C40"/><path d="M192.699 35.246s-.558-.28-1.084.53a3.498 3.498 0 01-1.517 1.188s-5.634.906-5.86 1.656l-2.633.156s-.928.127-1.022 2.096c-.094 1.969-.588 2.155-.588 2.155s-1.084 1.94-.99 2.938c.094 1-.837 1.5-.837 1.5l3.872 10.158s.123 4.187-.588 5.718c-.712 1.532-2.045 8.315-2.045 8.315s.557-.126.527.25c-.029.376-.682 4.468-.682 4.468s-.186 1.627-.496 2.188c-.31.562-.339 3.5-.339 3.5l-.496 2.126s1.176 2.656 2.972 2.282c1.796-.374 5.052-7.47 5.052-7.47l2.075-7.656 1.609-7.563.465-5.127.743-11.345 1.084-7.5s1.212-4.032.778-4.563z" fill="#166DE0"/><path opacity=".1" d="M172.821 59.434l-1.796 1.251s-2.746.089-4.709-.4l-.998-.447-.21-.089.21.066c1.036.31 1.846.304 2.48.088 2.541-.864 2.26-5.1 2.162-6.056 0-.098-.017-.159-.021-.182v-.013l.015.026a1.388 1.388 0 00.23.287l.898 1.81v.077l1.739 3.582z" fill="#3D3C40"/><path d="M179.039 47.217l-.868.25-.124 1.78s-1.021-.156-1.299 1.056c-.279 1.213-.775 1.783-.775 1.783s-1.704 1.437-1.796 2.656l-1.046.657s-2.447-.564-3.004-1.563c0 0 1.116 8.063-4.83 6.094 0 0 6.658 2.937 6.967 3.344.31.408 2.353 1.593 4.211.594 1.859-1 2.261-2.535 2.261-2.535s1.796-2.535 1.856-2.907c.061-.372 1.465-.813 1.465-.813l2.663-6.5-5.681-3.896z" fill="#166DE0"/><path opacity=".1" d="M200.781 38.37l.898-4.126s.402 1.344.806 1.656l1.331 1.033s1.331.624 1.796.624c.464 0 2.972.657 3.281 1.001.31.344 1.549.093 1.549.093s1.022.344 1.919.562c.898.218 1.332 1.72 1.145 2.324a1.822 1.822 0 00.434 1.69c.372.376.558 1.595.558 1.595.454.15.83.477 1.047.906.31.687.209 2.187.209 2.187l-4.604 6.563s.06 2.535-.124 3.095.649 10.126.649 10.126l.961 16.438s-1.271 1.094-1.549 1.219c-.279.124-.557-5.812-.557-6.032 0-.22-7.152-10.814-7.152-10.814s-.96-1.561-.96-1.901c0-.34-.898-3.5-.898-3.5l-1.363-6.096.624-18.643z" fill="#3D3C40"/><path d="M216.149 47.553v.36l-4.604 6.548s.063 2.535-.122 3.093c-.108.328.128 3.69.348 6.454.155 1.992.301 3.672.301 3.672l.408 6.971.551 9.465s-1.268 1.094-1.547 1.219c-.278.124-.557-5.812-.557-6.032 0-.22-7.153-10.812-7.153-10.812s-.961-1.565-.961-1.901c0-.336-.898-3.5-.898-3.5l-1.36-6.096.617-18.626.507-4.124s.774 1.346 1.176 1.656l1.331 1.031s1.331.634 1.796.634c.464 0 2.974.655 3.284 1 .309.344 1.546.092 1.546.092s1.022.345 1.92.562c.897.218 1.333 1.72 1.147 2.324a1.8 1.8 0 00.433 1.69c.37.374.557 1.593.557 1.593.453.152.829.479 1.046.908.222.455.243 1.323.234 1.82z" fill="#166DE0"/><path opacity=".1" d="M178.303 130.818c.153 0 6.655.25 6.532 1.312-.124 1.063-6.532-1.312-6.532-1.312zm1.454 1.782s4.366.718 3.219 1.375c-1.147.657-3.219-1.375-3.219-1.375zm16.235-2.469s7.246.634 6.162 1.439c-1.084.804-3.654.935-3.767.967-.113.032-2.395-2.406-2.395-2.406zm-.877 3.219s4.025.686 4.149 1.478c.123.793-4.149-1.478-4.149-1.478zm2.23-18.815s3.683.875 3.901 1.479l-3.901-1.479zm-14.214 2.688s-1.919.562-.061 1.69c1.859 1.128.061-1.69.061-1.69zm8.516-30.036c.21 0 3.592-1.124 4.768-.634a7.78 7.78 0 002.631.505l-7.399.13zm.433 3.563l-.033.311-2.878 7.63s-.465 2.312-.867 3.624a23.966 23.966 0 00-.605 2.715l2.556-15.997 1.827 1.718z" fill="#3D3C40"/><path d="M196.576 77.284l-1.199.02h-.038l-.703-3.15 1.046-.056.894 3.186z" fill="#3D3C40"/><path d="M211.185 73.47l-.772.633-2.573 2.14s-6.967 3.752-8.887.188c-1.691-3.14 6.208-5.38 8.111-5.869.257-.065.404-.1.404-.1l3.717 3.007z" fill="#fff"/><path d="M211.185 73.47l-.772.633-2.573 2.14s-6.967 3.752-8.887.188c-1.691-3.14 6.208-5.38 8.111-5.869.257-.065.404-.1.404-.1l3.717 3.007z" fill="#3D3C40" fill-opacity=".24"/><path opacity=".1" d="M181.43 42.746s1.362.634 1.674 1.5c.312.866-1.674-1.5-1.674-1.5zm-4.211 9.375s-1.982 2.438-1.177 3.38c.806.942 1.177-3.38 1.177-3.38zm35.421-8s-1.859.188-1.919 1.813l1.919-1.813zm-17.215 25.627c.184-.188 4.458-6.564 5.442-6l-5.442 6zm7.989-41.442a7.443 7.443 0 01-.873 3.51l-.054-.01c-.467-.099-.71-.648-1.068-.99a1.444 1.444 0 00-1.674-.237 1.71 1.71 0 00-.636.684 1.732 1.732 0 00-.185.92c-.236-1.002-.161-2.065-.391-3.068-.23-1.003-.923-2.018-1.873-2.034-.419 0-.886.15-1.183-.159-.178-.186-.209-.48-.347-.708-.678-1.107-2.744-.547-3.588.021-.843.569-1.821 1.48-2.869 1.965a7.473 7.473 0 012.195-5.244 7.37 7.37 0 012.402-1.595 7.315 7.315 0 018.02 1.67 7.437 7.437 0 011.581 2.424c.364.905.548 1.874.541 2.85h.002z" fill="#3D3C40"/><path d="M195.132 26.029c.134.226.17.52.348.705.295.31.774.15 1.182.159.95.017 1.643 1.03 1.873 2.034.23 1.004.155 2.066.392 3.068a1.715 1.715 0 01.822-1.604 1.44 1.44 0 011.675.237c.357.342.6.891 1.067.99.467.1.917-.352 1.086-.844.17-.493.157-1.042.268-1.557.209-.974.837-1.775 1.189-2.702a4.936 4.936 0 00-.031-3.49c-.233-.588-.578-1.116-.815-1.701-.355-.892-.448-1.901-.883-2.746-.728-1.422-2.444-2.132-3.857-1.597-.672.253-1.256.747-1.94.97-.915.297-1.895.073-2.841-.06-.946-.133-1.994-.146-2.756.482-.877.724-1.116 2.085-1.94 2.88-.346.333-.775.546-1.139.844-.364.298-.68.767-.628 1.268.055.646.683 1.234.45 1.834-.083.173-.2.33-.343.458a6.565 6.565 0 00-1.499 2.573c1.656.524 3.45-1.32 4.747-2.193.831-.555 2.895-1.117 3.573-.008z" fill="#3D3C40"/><path opacity=".1" d="M211.185 73.47l-.772.633c-.681-1.141-3.471-3.422-3.471-3.422l.122-.119c.257-.065.404-.1.404-.1l3.717 3.007z" fill="#3D3C40"/><path d="M211.928 72.312s-.278.697-.563 1.297c-.285.6-.599 1.15-.613.704-.032-.875-3.623-3.813-3.623-3.813l.488-.478.563-.553 3.748 2.843z" fill="#fff"/><path opacity=".1" d="M212.052 67.685l.408 6.972c-.963-1.51-3.604-5.38-5.302-5.256l4.113-4.777a5.71 5.71 0 00.473-.61c.155 1.992.308 3.671.308 3.671z" fill="#3D3C40"/><path opacity=".1" d="M211.929 72.31s-.279.698-.563 1.298c-1.08-1.494-2.564-3.258-3.749-3.592l.563-.553 3.749 2.848z" fill="#3D3C40"/><path d="M215.023 47.027l1.116.875s1.856.032 2.043 1.595c.186 1.563 1.883 2.282 1.883 2.282s1.269 1.28 1.269 1.873c0 .594.96 1.657.96 1.752 0 .095.93 2 .804 2.342-.126.343.992 1.845.651 2.407-.28.505-.528 1.027-.743 1.563 0 0-1.455 2.814-2.198 3.344-.743.53-4.15 5-4.15 5s-3.652 4.251-3.652 5.563c0 0-3.558-6-5.668-5.843l4.119-4.783s.711-.78.743-1.249c.031-.469 1.982-2.626 2.911-2.719 0 0 .153-1.282-.249-1.314-.402-.031-.743-1.03-.743-1.03s-2.721-3.25-2.756-5.314c-.036-2.064 3.66-6.344 3.66-6.344z" fill="#166DE0"/><path opacity=".1" d="M216.665 49.996s-2.6 1.94-2.043 2.563c.557.623 2.043-2.563 2.043-2.563zm.123 8.004s4.831-1.564 5.327 0h-5.327zm-29.909 83.038s-2.602 1.72-3.901 1.479c-1.3-.241-2.633.44-2.633.44a7.858 7.858 0 01-3.284 2.157c-2.093.718-5.044.435-6.717-.127-.791-.266-.856-.609-.475-1.033 1.819.365 5.882 1.094 6.976.564 1.423-.689 3.468-2.189 3.468-2.189s2.665-.374 3.035-.374c.264 0 2.321-.857 3.483-1.348l.048.431zm15.754 3.515l-.027.173s-.628 1.375-4.054 1.876c-3.426.501-3.437-1.158-3.437-1.158l.034-.446c1.088.417 3.461.881 7.484-.445zm-19.918-94.93s0 7.126-.605 7.83c-.605.703.605-7.83.605-7.83zm27.911 2.295l.898 2.548s.358-2.502-.898-2.548zM192.671 9.916c.259-.668-.421-1.322-.51-2.04-.09.203-.129.425-.112.645.045.54.44 1.042.546 1.542a.992.992 0 00.076-.147zm11.759 7.662c-.254-1.12-.18-2.308-.439-3.431-.258-1.123-1.056-2.297-2.141-2.316-.479 0-1.015.173-1.353-.178-.206-.212-.239-.548-.4-.806-.776-1.262-3.137-.622-4.104.025-1.437.962-3.439 2.989-5.297 2.532-.089.214-.17.433-.24.656 1.894.597 3.947-1.503 5.431-2.496.958-.644 3.329-1.284 4.105-.021.153.257.194.591.398.803.337.353.886.17 1.353.18 1.087.02 1.879 1.174 2.143 2.316.263 1.142.177 2.352.448 3.491a1.954 1.954 0 01.096-.755zm5.325-1.332c-.191.563-.697 1.082-1.243.962-.546-.12-.812-.738-1.219-1.13a1.669 1.669 0 00-1.915-.267 1.94 1.94 0 00-.942 1.722c.144-.435.441-.8.836-1.03a1.654 1.654 0 011.916.27c.409.39.687 1.015 1.221 1.128.534.113 1.049-.402 1.243-.962.101-.333.166-.675.194-1.022a2.683 2.683 0 01-.091.33zm1.667-4.849c-.397 1.055-1.121 1.964-1.36 3.075a6.969 6.969 0 00-.103.683c.239-1.106.958-2.012 1.358-3.066a5.52 5.52 0 00.328-1.474 5.431 5.431 0 01-.223.782z" fill="#3D3C40"/><path d="M160.226 37.16a.087.087 0 00.088-.087.088.088 0 10-.175 0c0 .048.039.088.087.088z" fill="#E6E8EC"/><ellipse cx="96.159" cy="136.012" rx="96.159" ry="3.656" fill="#3D3C40" fill-opacity=".08"/><path fill="#fff" d="M15.459 36.563h157.116v98.719H15.459z"/><path opacity=".24" fill="#166DE0" d="M15.459 36.563h157.116v98.719H15.459z"/><path fill="#fff" d="M21.02 42.125h145.993v86.9H21.02z"/><rect opacity=".08" x="26.325" y="103.838" width="136.013" height="19.744" rx="3" fill="#06D6A0"/><rect opacity=".16" x="32.144" y="54.639" width="84.815" height="4.171" rx="2.086" fill="#166DE0"/><rect opacity=".16" x="139.9" y="54.639" width="15.294" height="4.171" rx="2.086" fill="#166DE0"/><rect opacity=".16" x="32.144" y="67.152" width="84.815" height="4.171" rx="2.086" fill="#166DE0"/><rect opacity=".16" x="139.9" y="67.152" width="15.294" height="4.171" rx="2.086" fill="#166DE0"/><rect opacity=".16" x="32.144" y="79.666" width="84.815" height="4.171" rx="2.086" fill="#166DE0"/><rect opacity=".16" x="139.9" y="79.666" width="15.294" height="4.171" rx="2.086" fill="#166DE0"/><rect opacity=".16" x="32.144" y="92.18" width="84.815" height="4.171" rx="2.086" fill="#166DE0"/><rect opacity=".24" x="32.144" y="111.15" width="84.815" height="4.171" rx="2.086" fill="#06D6A0"/><rect opacity=".16" x="139.9" y="92.178" width="15.294" height="4.171" rx="2.086" fill="#166DE0"/><rect x="130.167" y="110.254" width="25.723" height="6.952" rx="3.476" fill="#06D6A0"/><ellipse cx="46.434" cy="143.691" rx="13.528" ry="1.828" fill="#3D3C40" fill-opacity=".08"/><path d="M40.303 144.029s-5.893-20.01 1.107-34.739c2.938-6.18 3.913-13.12 2.556-19.828a53.16 53.16 0 00-2.807-9.318" stroke="#3D3C40" stroke-width="2" stroke-miterlimit="10"/><path d="M45.505 70.849c0 2.453-4.442 9.556-4.442 9.556s-4.44-7.112-4.44-9.556a4.443 4.443 0 016.163-4.196 4.439 4.439 0 012.716 4.196h.003zm7.348 13.584c-1.333 2.06-8.925 5.614-8.925 5.614s.138-8.383 1.471-10.442a4.441 4.441 0 017.454 4.825v.003zm-.323 23.214c-2.19 1.104-10.538.342-10.538.342s4.35-7.167 6.541-8.271a4.442 4.442 0 014 7.929h-.003zm-4.197 17.509c-1.97 1.457-10.33 2.116-10.33 2.116s3.077-7.797 5.048-9.257a4.446 4.446 0 013.31-.846 4.451 4.451 0 012.93 1.754 4.438 4.438 0 01.222 4.952 4.44 4.44 0 01-1.18 1.281zm-13.73-34.634c1.758 1.708 9.955 3.479 9.955 3.479s-2.007-8.14-3.765-9.85a4.441 4.441 0 10-6.188 6.369l-.002.002zm-4.649 20.539c2.19 1.104 10.538.342 10.538.342s-4.35-7.167-6.541-8.271a4.443 4.443 0 00-5.886 2.004 4.442 4.442 0 001.886 5.925h.003zm-1.78 20.584c1.971 1.457 10.33 2.116 10.33 2.116s-3.077-7.8-5.05-9.257a4.442 4.442 0 00-5.282 7.141h.002z" fill="#166DE0"/></g><defs><clipPath id="clip0"><path fill="#fff" d="M0 0h234v156.234H0z"/></clipPath></defs></svg>