<svg width="234" height="143" fill="none" xmlns="http://www.w3.org/2000/svg"><g clip-path="url(#clip0)"><path opacity=".1" d="M141.431 48.225a6.491 6.491 0 00-3.759.41 5.544 5.544 0 01-4.534-.02 6.342 6.342 0 00-5.307.102 3.29 3.29 0 01-1.529.383c-2.152 0-3.943-2.163-4.315-5.018a4.15 4.15 0 001.076-1.158c1.262-2.03 3.217-3.331 5.411-3.331 2.194 0 4.124 1.286 5.379 3.295a4.157 4.157 0 003.586 1.96h.056c1.72.008 3.203 1.38 3.936 3.377zm58.2 21.415a8.616 8.616 0 00-4.947.534 7.366 7.366 0 01-5.969-.026 8.423 8.423 0 00-6.986.134c-.62.326-1.31.497-2.012.499-2.832 0-5.19-2.82-5.679-6.542a5.447 5.447 0 001.416-1.51c1.661-2.646 4.233-4.343 7.122-4.343 2.888 0 5.428 1.677 7.08 4.296a5.443 5.443 0 002.021 1.891 5.515 5.515 0 002.7.664h.074c2.263.011 4.216 1.8 5.18 4.404z" fill="#166DE0"/><path opacity=".1" d="M147.976 39.265l-3.478 2.204 2.111-3.834a3.455 3.455 0 00-2.105-.75h-.056a4.077 4.077 0 01-.721-.051l-1.175.745.507-.917a4.186 4.186 0 01-2.062-1.566l-2.112 1.342 1.345-2.418c-1.235-1.479-2.898-2.387-4.727-2.387-2.194 0-4.149 1.304-5.411 3.333a4.03 4.03 0 01-3.586 1.924h-.119c-2.423 0-4.386 2.742-4.386 6.122s1.963 6.123 4.386 6.123a3.304 3.304 0 001.529-.38 6.336 6.336 0 015.308-.105 5.544 5.544 0 004.514.01 6.35 6.35 0 015.262.101 3.29 3.29 0 001.511.374c2.423 0 4.387-2.74 4.387-6.123a7.762 7.762 0 00-.922-3.747zm60.665 18.358l-4.634 2.94 2.813-5.116a4.6 4.6 0 00-2.804-1h-.075a5.426 5.426 0 01-.961-.069l-1.565.994.675-1.223a5.578 5.578 0 01-2.747-2.09l-2.813 1.791 1.792-3.227c-1.645-1.973-3.861-3.184-6.297-3.184-2.924 0-5.527 1.74-7.208 4.447a5.377 5.377 0 01-4.778 2.567h-.158c-3.228 0-5.843 3.66-5.843 8.17s2.615 8.17 5.843 8.17a4.393 4.393 0 002.036-.508 8.427 8.427 0 017.071-.14 7.377 7.377 0 006.014.015 8.447 8.447 0 017.01.134 4.38 4.38 0 002.013.499c3.228 0 5.843-3.657 5.843-8.17a10.365 10.365 0 00-1.227-5z" fill="#166DE0"/><path d="M116.238 32.452a1.719 1.719 0 00-.186-.584 1.318 1.318 0 00-.273-.286 1.795 1.795 0 00-.583-.363.73.73 0 00-.672.076.88.88 0 00-.292.607 1.5 1.5 0 00.157.92c.179.31.489.518.747.766.189.18.353.384.488.607.062.116.137.225.224.324a.425.425 0 00.352.139.604.604 0 00.287-.168c.105-.092.392-.26.401-.407.009-.148-.224-.39-.271-.501a5.63 5.63 0 01-.379-1.13z" fill="#06D6A0"/><path d="M117 142.863c64.617 0 117-2.303 117-5.145 0-2.841-52.383-5.145-117-5.145-64.617 0-117 2.304-117 5.145 0 2.842 52.383 5.145 117 5.145z" fill="#3D3C40" fill-opacity=".16"/><path d="M112.612 139.395c14.135 0 25.594-.817 25.594-1.824 0-1.008-11.459-1.825-25.594-1.825-14.135 0-25.593.817-25.593 1.825 0 1.007 11.458 1.824 25.593 1.824z" fill="#3D3C40" fill-opacity=".16"/><path d="M114.273 137.508a5.16 5.16 0 01-5.812-3.243 5.132 5.132 0 01-.298-2.367c.587-5.181 2.414-13.528 7.41-26.057 5.791-14.527 3.702-18.037-2.504-28.454-2.004-3.367-4.277-7.181-6.724-12.08-6.312-12.586-3.914-22.285-.798-28.189 3.313-6.283 8.051-9.574 8.58-9.93l4.891 8.076-.449.447c-.011 0 .224 0 .565.62a19.526 19.526 0 00-4.633 5.921c-2.712 5.42-2.353 11.633 1.065 18.449 2.288 4.568 4.458 8.212 6.372 11.426 3.438 5.772 6.153 10.33 7.051 16.087.931 5.957-.224 12.366-3.83 21.43-4.754 11.921-6.276 19.381-6.74 23.385a5.159 5.159 0 01-4.14 4.474l-.006.005z" fill="#3D3C40" fill-opacity=".16"/><path d="M91.673 20.703L112.417 0l20.946 20.703h-14.235v15.832h-13.22V20.803l-14.235-.1z" fill="#166DE0"/><path d="M157.95 137.206c7.269 0 13.162-.49 13.162-1.095 0-.604-5.893-1.094-13.162-1.094-7.27 0-13.163.49-13.163 1.094 0 .605 5.893 1.095 13.163 1.095z" fill="#3D3C40" fill-opacity=".16"/><path d="M158.71 136.383a2.7 2.7 0 01-3.035-1.692 2.683 2.683 0 01-.155-1.236c.305-2.705 1.26-7.062 3.869-13.603 3.023-7.586 1.932-9.418-1.307-14.858-1.047-1.756-2.241-3.749-3.517-6.309-3.29-6.57-2.039-11.632-.412-14.715a14.964 14.964 0 014.483-5.185l2.553 4.217-.238.224s.121 0 .296.324c-1 .864-1.823 1.914-2.421 3.091-1.414 2.83-1.226 6.072.558 9.633 1.195 2.385 2.327 4.288 3.327 5.966 1.793 3.013 3.211 5.393 3.682 8.4.484 3.109-.114 6.456-2.001 11.185-2.482 6.223-3.277 10.118-3.519 12.209a2.686 2.686 0 01-2.161 2.338l-.002.011z" fill="#3D3C40" fill-opacity=".16"/><path d="M146.909 75.396l10.831-10.81 10.937 10.81h-7.432v8.266h-6.903V75.45l-7.433-.054z" fill="#166DE0"/><path d="M67.275 136.476c7.27 0 13.162-.491 13.162-1.095 0-.605-5.893-1.095-13.162-1.095-7.27 0-13.163.49-13.163 1.095 0 .604 5.893 1.095 13.163 1.095z" fill="#3D3C40" fill-opacity=".16"/><path d="M66.325 136.383a2.698 2.698 0 002.337-.659 2.686 2.686 0 00.852-2.269c-.304-2.705-1.26-7.062-3.868-13.603-3.024-7.586-1.932-9.418 1.307-14.858 1.046-1.756 2.241-3.749 3.516-6.309 3.29-6.57 2.04-11.632.413-14.715a14.97 14.97 0 00-4.483-5.185l-2.553 4.217.238.224s-.121 0-.296.324c1 .864 1.822 1.914 2.42 3.091 1.415 2.83 1.227 6.072-.558 9.633-1.194 2.385-2.326 4.288-3.326 5.966-1.793 3.013-3.212 5.393-3.682 8.4-.485 3.109.114 6.456 2.001 11.185 2.481 6.223 3.277 10.118 3.52 12.209a2.684 2.684 0 002.16 2.338l.002.011z" fill="#3D3C40" fill-opacity=".16"/><path d="M78.126 75.396l-10.83-10.81-10.939 10.81h7.433v8.266h6.903V75.45l7.433-.054z" fill="#166DE0"/><path d="M197.51 136.018h-9.521a1.977 1.977 0 01-1.975-1.971 1.977 1.977 0 011.975-1.971 1.975 1.975 0 01-2.041-1.969 1.956 1.956 0 01.602-1.417 1.97 1.97 0 011.439-.553h.435c.249-1.696 2.165-3.016 4.496-3.018 2.331-.002 4.259 1.315 4.503 3.009h.087a1.975 1.975 0 012.042 1.97 1.973 1.973 0 01-2.042 1.969 1.971 1.971 0 110 3.942v.009z" fill="#06D6A0"/><path opacity=".1" d="M199.483 130.105a1.977 1.977 0 01-1.973 1.971h-9.519l9.459-3.948h.058a1.977 1.977 0 011.975 1.977zm-13.41 3.962a1.974 1.974 0 001.974 1.969h9.522l-9.466-3.931h-.051a1.985 1.985 0 00-1.394.575 1.972 1.972 0 00-.585 1.387z" fill="#3D3C40" fill-opacity=".48"/><path d="M139.638 133.665h-5.404a1.12 1.12 0 01-.792-1.91c.21-.209.495-.327.792-.327a1.12 1.12 0 01-.792-1.91c.21-.209.495-.327.792-.327h.249c.139-.962 1.228-1.712 2.55-1.712 1.323 0 2.412.745 2.556 1.707h.049a1.12 1.12 0 01.792 1.91c-.21.209-.495.327-.792.327a1.12 1.12 0 01.792 1.91c-.21.209-.495.327-.792.327v.005z" fill="#06D6A0"/><path opacity=".1" d="M140.759 130.309a1.118 1.118 0 01-1.121 1.118h-5.404l5.38-2.237h.024a1.12 1.12 0 011.121 1.119zm-7.61 2.244a1.12 1.12 0 001.121 1.119h5.402l-5.379-2.237h-.034a1.122 1.122 0 00-1.11 1.118z" fill="#3D3C40" fill-opacity=".48"/><path d="M38.429 140.011H26.998a2.375 2.375 0 01-1.723-.665 2.363 2.363 0 011.722-4.061 2.376 2.376 0 01-2.254-1.442 2.363 2.363 0 012.255-3.285h.52c.298-2.033 2.6-3.617 5.395-3.62 2.795-.002 5.099 1.578 5.401 3.609h.103a2.362 2.362 0 010 4.727 2.368 2.368 0 012.297 2.363A2.362 2.362 0 0138.417 140l.012.011z" fill="#06D6A0"/><path opacity=".1" d="M40.793 132.919a2.366 2.366 0 01-.694 1.669 2.38 2.38 0 01-1.67.696H26.996l11.346-4.738h.07a2.39 2.39 0 011.682.694 2.371 2.371 0 01.698 1.679zm-16.089 4.743a2.37 2.37 0 002.372 2.36h11.43l-11.357-4.715h-.069a2.378 2.378 0 00-2.376 2.355z" fill="#3D3C40" fill-opacity=".48"/><path opacity=".1" d="M61.862 34.24a4.563 4.563 0 00-2.642.281 3.877 3.877 0 01-3.16 0 4.445 4.445 0 00-3.717.072 2.31 2.31 0 01-1.069.268c-1.506 0-2.76-1.514-3.02-3.514.302-.22.557-.494.754-.81.883-1.42 2.241-2.33 3.786-2.33 1.544 0 2.889.894 3.772 2.305a2.912 2.912 0 002.501 1.372h.04c1.2-.003 2.237.957 2.755 2.355z" fill="#166DE0"/><path opacity=".1" d="M66.439 27.97l-2.434 1.54 1.477-2.684a2.399 2.399 0 00-1.473-.526h-.038a2.696 2.696 0 01-.504-.035l-.827.52.354-.641a2.942 2.942 0 01-1.444-1.094l-1.481.937.932-1.693c-.863-1.034-2.028-1.669-3.308-1.669-1.535 0-2.914.91-3.788 2.33a2.833 2.833 0 01-2.504 1.343h-.074c-1.694 0-3.07 1.92-3.07 4.286 0 2.367 1.376 4.286 3.07 4.286.373 0 .74-.093 1.07-.268a4.445 4.445 0 013.716-.072 3.882 3.882 0 003.158.007 4.443 4.443 0 013.682.072c.327.17.69.26 1.058.261 1.697 0 3.071-1.92 3.071-4.286a5.439 5.439 0 00-.643-2.615zM29.726 58.847a4.564 4.564 0 012.631.282 3.87 3.87 0 003.158 0 4.445 4.445 0 013.716.071c.33.174.697.266 1.07.268 1.506 0 2.76-1.514 3.02-3.514a2.862 2.862 0 01-.752-.81c-.883-1.42-2.253-2.33-3.788-2.33-1.536 0-2.887.894-3.77 2.306a2.912 2.912 0 01-2.51 1.369h-.039c-1.192 0-2.232.96-2.736 2.358z" fill="#166DE0"/><path opacity=".1" d="M25.134 52.576l2.435 1.541-1.48-2.684a2.4 2.4 0 011.473-.526h.04c.17.004.338-.008.505-.036l.824.521-.354-.642a2.947 2.947 0 001.446-1.093l1.477.935-.935-1.694c.865-1.033 2.029-1.669 3.31-1.669 1.536 0 2.903.91 3.789 2.331a2.831 2.831 0 002.503 1.343h.081c1.697 0 3.07 1.919 3.07 4.286 0 2.366-1.373 4.286-3.07 4.286a2.296 2.296 0 01-1.07-.269 4.446 4.446 0 00-3.715-.071 3.866 3.866 0 01-3.156.007 4.447 4.447 0 00-3.685.071c-.326.171-.69.26-1.058.262-1.694 0-3.07-1.92-3.07-4.286a5.44 5.44 0 01.64-2.613z" fill="#166DE0"/></g><defs><clipPath id="clip0"><path fill="#fff" d="M0 0h234v142.863H0z"/></clipPath></defs></svg>