<svg width="32" height="40" fill="none" xmlns="http://www.w3.org/2000/svg"><path d="M1.595 10.357l8.898-8.78A2 2 0 0111.898 1H28a3 3 0 013 3v32a3 3 0 01-3 3H4a3 3 0 01-3-3V11.78a2 2 0 01.595-1.423z" stroke="#338AFF" stroke-width="2"/><path d="M11 2v9a1 1 0 01-1 1H2" stroke="#338AFF" stroke-width="2"/><path fill-rule="evenodd" clip-rule="evenodd" d="M19 17.828l4.243 4.243-2.829 2.828-4.242-4.242L19 17.828zM11.929 24.9L9.1 27.727l4.242 4.243 2.829-2.829-4.243-4.242zm5.657-8.486a2 2 0 012.828 0l4.243 4.243a2 2 0 010 2.828l-9.9 9.9a2 2 0 01-2.828 0l-4.243-4.243a2 2 0 010-2.828l9.9-9.9zm-2.298 7.248a1 1 0 101.414-1.414 1 1 0 00-1.414 1.414zm-.354 1.768a1 1 0 11-1.414-1.415 1 1 0 011.414 1.415zm2.475.353a1 1 0 101.414-1.414 1 1 0 00-1.414 1.414zm-.354 1.768a1 1 0 11-1.414-1.414 1 1 0 011.414 1.414z" fill="#338AFF"/></svg>