<svg width="234" height="200" fill="none" xmlns="http://www.w3.org/2000/svg"><path d="M71.8 8.017C79.69.982 92.075-.45 103.347.11c35.407 1.759 67.368 18.846 95.015 38.175 10.008 6.997 19.861 14.544 26.364 24.174 13.226 19.615 9.302 46.79-9.087 62.949-6.257 5.499-13.842 9.713-21.629 13.451-13.844 6.643-28.779 11.974-44.495 13.493-11.206 1.081-22.541.199-33.69-1.308-31.124-4.22-61.675-13.548-87.282-29.515-11.236-7.002-21.822-15.707-26.451-27.04-4.63-11.333-1.667-25.68 9.8-32.385 4.744-2.773 8.951-4.756 14.504-5.933 8.173-1.73 12.087-3.437 19.463-6.956 7.618-3.634 16.636-10.664 15.128-18.709C59.37 21.881 63.921 15.031 71.8 8.017z" fill="#166DE0" fill-opacity=".04"/><path d="M166.893 43.807H74.618a5.79 5.79 0 00-5.788 5.792v54.502a5.79 5.79 0 005.788 5.792h92.275a5.79 5.79 0 005.787-5.792V49.599a5.79 5.79 0 00-5.787-5.792z" fill="#3D3C40" fill-opacity=".08"/><path d="M162.892 40.95H72.119a6.306 6.306 0 00-6.306 6.304v53.124a6.306 6.306 0 006.306 6.305h90.773a6.305 6.305 0 006.306-6.305V47.255a6.305 6.305 0 00-6.306-6.306z" fill="#fff"/><path opacity=".16" d="M162.892 40.95H72.119a6.306 6.306 0 00-6.306 6.304v53.124a6.306 6.306 0 006.306 6.305h90.773a6.305 6.305 0 006.306-6.305V47.255a6.305 6.305 0 00-6.306-6.306z" fill="#166DE0"/><path opacity=".3" d="M91.282 78.242H78.368c-.876 0-1.587.666-1.587 1.488v2.143c0 .822.71 1.488 1.587 1.488h12.914c.876 0 1.587-.666 1.587-1.488V79.73c0-.822-.71-1.488-1.587-1.488zm21.937 0h-12.913c-.877 0-1.587.666-1.587 1.488v2.143c0 .822.71 1.488 1.587 1.488h12.913c.877 0 1.587-.666 1.587-1.488V79.73c0-.822-.71-1.488-1.587-1.488zm11.638 10.968H113.53c-.911 0-1.649.776-1.649 1.733v.924c0 .956.738 1.731 1.649 1.731h11.327c.911 0 1.649-.775 1.649-1.731v-.924c0-.957-.738-1.732-1.649-1.732zm10.959-10.968h-13.501c-.916 0-1.659.666-1.659 1.488v2.143c0 .822.743 1.488 1.659 1.488h13.501c.916 0 1.659-.666 1.659-1.488V79.73c0-.822-.743-1.488-1.659-1.488zm21.937 0h-13.5c-.916 0-1.659.666-1.659 1.488v2.143c0 .822.743 1.488 1.659 1.488h13.5c.917 0 1.659-.666 1.659-1.488V79.73c0-.822-.742-1.488-1.659-1.488z" fill="#166DE0"/><path d="M86.833 62.523h-9.16a.996.996 0 00-.997.997v9.159c0 .55.446.996.996.996h9.16c.55 0 .997-.446.997-.996v-9.16a.996.996 0 00-.996-.996z" fill="#166DE0"/><path d="M84.087 69.933h-3.52v-3.519h3.52v3.52zm-3.378-.145h3.23v-3.229h-3.23v3.229z" fill="#fff"/><path d="M82.397 62.523h-.145v3.962h.145v-3.962zm0 7.337h-.145v3.816h.145v-3.817zm-1.759-1.835h-3.962v.146h3.962v-.146zm7.194 0h-3.816v.146h3.816v-.146zm-7.245-1.485l-1.152-1.145h-2.76v-.149h2.821l1.196 1.189-.105.105zm3.476 0l-.098-.109 1.34-1.185h2.524v.149h-2.466l-1.3 1.145zM79.5 71.286h-2.824v-.148h2.756l1.152-1.328.111.099-1.195 1.377zm8.328.002h-2.526l-1.341-1.375.105-.104 1.3 1.33h2.462v.149z" fill="#fff"/><path d="M106.47 46.012H77.983c-.765 0-1.385.62-1.385 1.384v2.807c0 .765.62 1.384 1.385 1.384h28.487c.765 0 1.385-.62 1.385-1.384v-2.807c0-.764-.62-1.384-1.385-1.384z" fill="#166DE0"/><path d="M159.324 199.233c17.265 0 31.261-2.099 31.261-4.688 0-2.589-13.996-4.688-31.261-4.688s-31.261 2.099-31.261 4.688c0 2.589 13.996 4.688 31.261 4.688z" fill="#3D3C40" fill-opacity=".08"/><path d="M174.512 131.82a20.36 20.36 0 00-.163-1.739c-.26-2.168-.526-4.336-.949-6.474a6.841 6.841 0 00-.337-1.223c-.152-.374-.362-.719-.521-1.09a.14.14 0 000-.041c.196-.094.389-.189.578-.29.137-.07.268-.15.392-.24.125-.09.229-.205.307-.338.338-.594-.04-1.351-.213-2.026-.182-.726-.142-1.598-.675-2.084-1.905-1.689-.959-5.133-1.912-7.551-.169-.423-.361-.838-.507-1.27-.111-.338-.189-.676-.27-1.013a325.322 325.322 0 00-2.135-8.406c-.787-2.891-.702-5.904-1.688-8.727a9.425 9.425 0 00-.727-1.689 4.533 4.533 0 00-1.31-1.415c-1.439-.993-2.888-1.84-4.577-2.202-1.689-.361-3.513-.304-5.236-.297a5.544 5.544 0 00-2.445-1.908l-.03-.088a6.003 6.003 0 01-.318-1.057 7.241 7.241 0 01-.084-1.08c0-.389-.017-.78-.027-1.169l.094-.091c.226-.239.434-.494.622-.763.181-.255.339-.525.473-.808.151-.32.28-.65.385-.99.205-.683.344-1.386.415-2.096.091-.835.118-1.689.142-2.523v-1.077a4.553 4.553 0 00-.628-2.46c-.612-.911-1.659-1.35-2.669-1.715-2.026-.702-4.252-1.165-6.255-.412-1.591.601-2.861 1.912-4.432 2.577.036.06.069.122.098.186a.122.122 0 010 .027 1.9 1.9 0 01.071.179c.051.136.088.278.112.422.045.273.045.551 0 .824a2.82 2.82 0 01-1.514.223 4.81 4.81 0 00.953 1.729c.138.176.284.338.422.523l.213.264c.362.424.657.901.875 1.415.08.203.135.415.165.632.064.428.047.922.105 1.35.022.185.068.365.138.537a5.662 5.662 0 003 4.212 12.457 12.457 0 010 4.032c0 .075-.027.149-.044.223-.919 1.159-1.8 2.381-2.932 3.286a10.65 10.65 0 01-1.645 1.06 4.49 4.49 0 01-1.084.45c-.426.098-.872.084-1.294.189a3.382 3.382 0 00-1.922 1.563c-.213.395-.45.776-.709 1.142-.237.294-.534.534-.784.814-.905 1.013-1.151 2.479-1.351 3.85a17.614 17.614 0 01-2.307 2.13 3.33 3.33 0 01-.858.497c-.797.267-1.672-.074-2.364-.587-.693-.514-1.233-1.189-1.902-1.716l-.175.26a1.406 1.406 0 01-.139-.158 3.377 3.377 0 01-.557-1.29c-.243-1.247.216-2.58-.142-3.793-.132-.44-.449-.892-.888-.882-.44.01-.713.45-1.091.655-.608.338-1.352.03-1.953-.303-.601-.335-1.287-.71-1.945-.51a1.382 1.382 0 00.503 1.148c.339.268.618.606.817.99.099.418.137.85.112 1.28.067.985.675 1.833 1.263 2.603.73.934 1.493 1.842 2.29 2.722a.84.84 0 01-.425.368.887.887 0 000 .49c.033.11.076.218.128.321.078.159.172.314.253.459l1.186 2.084.192.338c.081.141.163.277.247.415.279.485.611.938.99 1.351a4 4 0 00.621.533c.146.106.301.198.463.277.226.116.467.199.716.247.122.026.247.042.371.047.13.01.26.01.389 0a5.148 5.148 0 001.138-.294c2.26-.793 4.334-2.06 6.482-3.137.296-.165.613-.288.942-.365.112-.021.225-.03.338-.027.115.004.229.023.338.058.108.036.21.087.304.152a.87.87 0 01.368.547l.186.976c.061.324.128.648.196.972.135.645.28 1.29.449 1.929.091.337.179.695.267 1.047.216.858.429 1.722.625 2.587.061.27.118.543.172.814.101.48.173.966.216 1.455a.097.097 0 010 .034c.034.425.037.848.041 1.273v1.334l.034 3.938c0 .567-.304.922-.544 1.432a3.839 3.839 0 00-.129.321 3.784 3.784 0 00-.111.418c0 .044-.02.092-.027.136-.007.043 0 .104-.02.155-.021.051 0 .101-.017.149-.017.047 0 .101 0 .148v.601c0 .041.023.132.034.2l.02.101c.023.098.047.196.081.294.067.202.152.402.24.597.088.196.175.396.25.598a4.127 4.127 0 01.142.483c.027.105.05.21.07.318v.074c.021.115.038.233.051.338a.134.134 0 010 .04c0 .132.027.264.034.395.03.48.024.97 0 1.452l-.041 2.405v.074a.425.425 0 00.048.216.264.264 0 00.226.122.854.854 0 00.469-.182l1.075-.78h.067c-.848 1.388-1.527 2.917-1.658 4.549a14.518 14.518 0 00.206 3.218c.989 7.092 3.32 14.249 2.83 21.408-.192 2.82.976 5.569.97 8.393 0 1.097-.186 2.185-.233 3.279-.206 4.701 2.192 9.456 1.216 14.049.337 1.142 1.617 1.75 1.979 2.884.304.963-.135 1.986-.49 2.928a5.97 5.97 0 00-.294 1.014c-.983 0-2.074.02-2.729.293a4.01 4.01 0 00-.53.217c-.605.361-.645 1.35-.264 1.948.382.598 2.527 2.506 3.155 2.82l1.375.676a8.266 8.266 0 002.364.891 8.098 8.098 0 002.098-.04c.537-.058 1.131-.146 1.479-.585.49-.621.24-1.631-.094-2.529a.912.912 0 00.277-.375c.059-.235.09-.477.091-.719.099-.47.26-.924.479-1.351.565-1.375.541-2.922.507-4.418a51.272 51.272 0 00-.5-7.271c-.169-1.013-.398-2.026-.594-3.039a50.269 50.269 0 01-.922-11.145 8.952 8.952 0 00-.375-2.682 4.791 4.791 0 01-.088-1.529l.405-6.184c.116-1.258.135-2.522.058-3.783-.058-.675-.169-1.351-.237-2.026a30.85 30.85 0 01-.064-3.87c.037-1.388.101-2.878.895-3.992a.619.619 0 01.378-.294c.163-.024.21.196.149.338.084.256.172.51.26.766.027.075.051.146.078.217.044.131.091.263.138.395.048.131.068.182.098.273l.132.338c.037.101.078.199.115.297.037.098.084.213.128.318.044.104.088.209.135.314.048.104.081.192.125.29l.162.338c.041.084.081.172.125.257.044.084.132.246.2.368.037.071.074.141.114.209.109.189.22.372.338.554.23.338.477.675.676 1.037.07.118.133.241.189.368.187.466.335.948.442 1.438.119.446.257.882.409 1.311.152.429.338.858.503 1.276a44.443 44.443 0 001.183 2.473 1.759 1.759 0 01.165.51 1.46 1.46 0 010 .337 1.611 1.611 0 01-.118.514c-.416.949-.081 1.884.101 2.816.16.983.237 1.977.23 2.972 0 .338 0 .676.03.99 0 .412 0 .82.024 1.232.024.412 0 .885.024 1.328.007.443-.011.886-.054 1.327 0 .155-.041.307-.065.459-.074.456-.179.909-.27 1.351a26.907 26.907 0 00-.466 5.404c0 .727.024 1.455.071 2.185.041.732.098 1.462.162 2.195a246.107 246.107 0 00.331 3.293c.074.695.156 1.462.226 2.188.071.726.136 1.452.186 2.175.032.358-.043.718-.216 1.033a2.377 2.377 0 00-.284 1.017c-.008.237.006.474.041.709.018.117.038.23.061.338.05.233.111.466.172.696.139.636.367 1.25.675 1.823.066.118.141.231.223.338.024.034.051.064.078.098.07.081.134.167.193.257a.868.868 0 01.071.131c.069.187.083.39.04.585-.037.202-.108.405-.162.597l.176.024c-.247.78-.362 1.581.054 2.104.337.439.942.527 1.479.584.694.108 1.4.122 2.098.044a8.277 8.277 0 002.364-.891l1.375-.676c.628-.314 2.77-2.209 3.151-2.823.382-.615.338-1.584-.26-1.946a3.888 3.888 0 00-.53-.219c-.608-.253-1.591-.277-2.51-.29a11.065 11.065 0 01-.088-1.054 29.166 29.166 0 01.075-3.877c.077-.915.196-1.827.185-2.743 0-1.222-.253-2.431-.385-3.647-.131-1.216-.145-2.404-.165-3.607-.031-1.769.49-3.455.716-5.204l.395-3.077a3.73 3.73 0 00.027-1.131c-.061-.338-.216-.675-.28-1.013-.139-.767.209-1.527.317-2.3.125-.888-.067-1.79-.192-2.682a34.735 34.735 0 01-.233-4.241c-.122-8.714-.368-17.623-3.314-25.775a17.3 17.3 0 00-.378-.99c.059-.016.118-.035.176-.057a1.235 1.235 0 00.361-.21.772.772 0 00.199-.337c.04-.124.06-.252.061-.382a2.705 2.705 0 00-.098-.675l-.04-.139c-.068-.23-.142-.456-.22-.675-.074-.22-.155-.433-.24-.649a7.842 7.842 0 01-.425-1.239c-.206-.959 0-2.067-.578-2.847-1.277-1.75-.375-4.438-.909-6.569-.175-.675-.432-1.351-.594-2.026a15.687 15.687 0 01-.23-1.317 16.47 16.47 0 01-.25-2.898c0-.486.075-.973.132-1.456l.405-3.35c.453.867.776 1.795.96 2.756l.087.412a49.21 49.21 0 001.351 4.89c.308.97.612 1.935.943 2.895.098.273.192.55.28.83.086.28.154.566.203.855.037.229.054.466.071.699.017.233.03.473.054.706a6.64 6.64 0 00.979 2.806.829.829 0 01.048.068.798.798 0 00.412.358.912.912 0 00.368 0h.02a13.35 13.35 0 00.612-.142c.081 1.047.391 2.09.418 3.147.034 1.537-.53 3.01-.888 4.499a28.855 28.855 0 00-.605 4.127c-.046.275-.028.557.051.824a.588.588 0 00.615.415.744.744 0 00.436-.388 3.092 3.092 0 00.375-2.226c.32.068.486.436.564.77a4.629 4.629 0 01-.142 2.614c-.2.561-.507 1.078-.676 1.655a.861.861 0 000 .554c.169.388.703.361 1.088.219a5.471 5.471 0 002.868-2.701 8.302 8.302 0 00.841-3.925z" fill="#3D3C40" fill-opacity=".16"/><path d="M154.805 198.523c-.361.436-.979.524-1.54.581a8.78 8.78 0 01-2.185.041 8.914 8.914 0 01-2.456-.885l-1.432-.676c-.652-.314-2.881-2.198-3.28-2.809-.398-.612-.358-1.574.27-1.936.18-.084.365-.156.554-.216 1.054-.418 3.189-.206 4.31-.368a2.992 2.992 0 011.595.375c1.107.49 3.06.878 3.543 2.124.375.959 1.402 2.82.621 3.769zm7.955-.924c.362.436.98.524 1.541.581a6.587 6.587 0 004.637-.848l1.433-.675c.655-.314 2.884-2.199 3.283-2.81.398-.611.358-1.577-.274-1.935a3.62 3.62 0 00-.551-.216c-1.053-.419-3.188-.206-4.309-.368a2.97 2.97 0 00-1.598.375c-1.105.489-3.04.878-3.54 2.124-.385.962-1.415 2.823-.622 3.772z" fill="#3D3C40"/><path d="M166.243 129.31a17.1 17.1 0 01.901 2.053c3.067 8.106 3.324 16.974 3.452 25.644a32.686 32.686 0 00.24 4.218c.129.888.338 1.783.199 2.671-.111.767-.472 1.523-.337 2.283.064.338.226.676.29 1.013.051.374.041.754-.03 1.125l-.409 3.06c-.236 1.742-.777 3.417-.746 5.177.02 1.199.04 2.398.172 3.59.196 1.201.33 2.412.402 3.627 0 .912-.115 1.82-.196 2.729a28.212 28.212 0 00-.078 3.857c.048.989.162 2.026.676 2.86-.591.844-1.172 1.601-2.115 2.026-1.915.838-4.114.554-6.184.254.115-.382.29-.814.125-1.179a2.212 2.212 0 00-.355-.483 5.739 5.739 0 01-.922-2.141c-.25-.915-.5-1.898 0-2.773.176-.307.255-.66.226-1.013-.429-5.741-1.709-11.699-.53-17.342.125-.601.274-1.202.338-1.813.063-.879.075-1.761.033-2.641l.014-1.26c-.061-1.307 0-2.648-.27-3.941-.186-.926-.537-1.858-.105-2.803a1.542 1.542 0 00-.064-1.351 24.984 24.984 0 01-2.182-5.036 8.717 8.717 0 00-.46-1.432 10.046 10.046 0 00-.905-1.394c-1.013-1.49-1.641-3.216-2.243-4.918.065-.158 0-.375-.152-.337a.624.624 0 00-.395.293c-.824 1.108-.895 2.587-.932 3.972a29.272 29.272 0 00.068 3.85c.067.675.185 1.351.246 2.026a23.76 23.76 0 01-.061 3.763l-.415 6.126a4.41 4.41 0 00.088 1.523c.271.862.403 1.761.392 2.665a47.9 47.9 0 00.972 11.07c.203 1.013.443 2.006.618 3.016.351 2.395.525 4.813.521 7.234.037 1.489.06 3.039-.527 4.39a5.018 5.018 0 00-.5 1.351 2.788 2.788 0 01-.095.716c-.172.443-.675.632-1.152.733-.872.189-1.767.253-2.658.189a1.487 1.487 0 01-.605-.135c-.337-.172-.506-.537-.76-.81-.543-.595-1.449-.777-1.945-1.412-.622-.797-.361-1.949 0-2.888.361-.939.824-1.955.507-2.914-.375-1.125-1.689-1.733-2.061-2.867 1.013-4.573-1.479-9.301-1.266-13.979.05-1.091.239-2.171.243-3.262 0-2.81-1.206-5.545-1.014-8.349.51-7.122-1.918-14.235-2.945-21.303a13.768 13.768 0 01-.216-3.198c.152-1.77.973-3.415 1.959-4.89.709-1.058 1.56-2.094 2.733-2.587.966-.409 2.046-.406 3.094-.399 2.614.02 5.228.041 7.843.088a25.786 25.786 0 015.303.473c1.415.321 2.739.979 4.175 1.185z" fill="#3D3C40"/><path d="M124.004 96.84c-.253-1.24.226-2.568-.148-3.773-.136-.436-.467-.888-.923-.878-.456.01-.743.446-1.135.652-.631.337-1.401.03-2.026-.301-.625-.331-1.351-.71-2.027-.51-.081.432.21.84.527 1.141.348.266.637.602.848.987.159.398.084.844.118 1.273.071.98.676 1.827 1.314 2.59a46.475 46.475 0 003.185 3.529s1.689-2.107 1.666-2.475c-.024-.368-.602-.676-.811-.953a3.234 3.234 0 01-.588-1.283z" fill="#fff"/><path opacity=".72" d="M124.004 96.84c-.253-1.24.226-2.568-.148-3.773-.136-.436-.467-.888-.923-.878-.456.01-.743.446-1.135.652-.631.337-1.401.03-2.026-.301-.625-.331-1.351-.71-2.027-.51-.081.432.21.84.527 1.141.348.266.637.602.848.987.159.398.084.844.118 1.273.071.98.676 1.827 1.314 2.59a46.475 46.475 0 003.185 3.529s1.689-2.107 1.666-2.475c-.024-.368-.602-.676-.811-.953a3.234 3.234 0 01-.588-1.283z" fill="#3D3C40" fill-opacity=".72"/><path d="M174.691 122.776c.151.394.264.801.337 1.216.44 2.128.716 4.286.99 6.441.071.574.145 1.151.166 1.729a7.903 7.903 0 01-.821 3.981 5.57 5.57 0 01-2.983 2.702c-.398.142-.956.169-1.131-.216a.824.824 0 010-.55c.158-.575.479-1.091.675-1.648.309-.833.36-1.739.149-2.601-.081-.338-.253-.699-.588-.767a2.953 2.953 0 01-.392 2.216.76.76 0 01-.452.385.61.61 0 01-.642-.412 1.77 1.77 0 01-.051-.821c.106-1.383.316-2.755.629-4.106.371-1.483.962-2.945.922-4.475-.034-1.385-.585-2.746-.429-4.12a.338.338 0 01.25-.338 9.094 9.094 0 011.192-.395c.24-.061 1.057-.338 1.287-.216.23.121.243.719.338.928.179.348.398.693.554 1.067z" fill="#fff"/><path opacity=".72" d="M174.691 122.776c.151.394.264.801.337 1.216.44 2.128.716 4.286.99 6.441.071.574.145 1.151.166 1.729a7.903 7.903 0 01-.821 3.981 5.57 5.57 0 01-2.983 2.702c-.398.142-.956.169-1.131-.216a.824.824 0 010-.55c.158-.575.479-1.091.675-1.648.309-.833.36-1.739.149-2.601-.081-.338-.253-.699-.588-.767a2.953 2.953 0 01-.392 2.216.76.76 0 01-.452.385.61.61 0 01-.642-.412 1.77 1.77 0 01-.051-.821c.106-1.383.316-2.755.629-4.106.371-1.483.962-2.945.922-4.475-.034-1.385-.585-2.746-.429-4.12a.338.338 0 01.25-.338 9.094 9.094 0 011.192-.395c.24-.061 1.057-.338 1.287-.216.23.121.243.719.338.928.179.348.398.693.554 1.067z" fill="#3D3C40" fill-opacity=".72"/><path d="M147.354 81.743a5.657 5.657 0 10-5.658-5.656 5.657 5.657 0 005.658 5.656z" fill="#fff"/><path opacity=".72" d="M147.354 81.743a5.657 5.657 0 10-5.658-5.656 5.657 5.657 0 005.658 5.656z" fill="#3D3C40" fill-opacity=".72"/><path d="M152.425 80.18c-.003.36.026.72.084 1.077.079.36.192.712.338 1.05.188.553.454 1.076.79 1.553.341.483.854.816 1.433.933a40.701 40.701 0 01-12.238 3.535 5.152 5.152 0 001.621-1.732c.214-.445.358-.92.429-1.408.363-2.046.18-4.15-.53-6.103-.071-.19-.138-.425 0-.584a.578.578 0 01.203-.129 12.567 12.567 0 015.316-.992c.466 0 .932.023 1.399.057.25.02.8-.034 1.013.149.213.182.118.898.125 1.192l.017 1.401z" fill="#fff"/><path opacity=".72" d="M152.425 80.18c-.003.36.026.72.084 1.077.079.36.192.712.338 1.05.188.553.454 1.076.79 1.553.341.483.854.816 1.433.933a40.701 40.701 0 01-12.238 3.535 5.152 5.152 0 001.621-1.732c.214-.445.358-.92.429-1.408.363-2.046.18-4.15-.53-6.103-.071-.19-.138-.425 0-.584a.578.578 0 01.203-.129 12.567 12.567 0 015.316-.992c.466 0 .932.023 1.399.057.25.02.8-.034 1.013.149.213.182.118.898.125 1.192l.017 1.401z" fill="#3D3C40" fill-opacity=".72"/><path d="M155.417 84.307a6.061 6.061 0 00-7.242-1.804c-2.702 1.287-4.019 4.39-6.387 6.187-.539.404-1.113.758-1.716 1.058a4.803 4.803 0 01-1.128.445c-.443.098-.902.085-1.351.19a3.47 3.47 0 00-2.003 1.553c-.221.394-.467.773-.737 1.135-.246.294-.554.533-.814.814-.942 1.013-1.199 2.465-1.411 3.83a18.198 18.198 0 01-2.405 2.117 3.393 3.393 0 01-.892.493c-.828.27-1.743-.071-2.449-.58-.706-.51-1.28-1.183-1.976-1.69a62.993 62.993 0 01-1.989 2.702.853.853 0 01-.446.365c-.129.432.179.878.408 1.263l1.233 2.074c.41.753.91 1.454 1.49 2.087a3.497 3.497 0 002.266 1.064 4.487 4.487 0 001.591-.308c2.365-.79 4.509-2.05 6.756-3.124.405-.23.858-.363 1.324-.388a1.071 1.071 0 011.047.753c.257 1.297.51 2.587.861 3.857.336 1.202.645 2.408.929 3.617.19.742.326 1.497.405 2.259.037.432.041.865.048 1.3l.047 5.242c0 .567-.318.918-.568 1.425a3.378 3.378 0 00-.158 2.519c.138.409.358.787.513 1.193.372.976.358 2.05.338 3.093l-.044 2.391c-.013.1.005.201.051.291.145.226.496.094.719-.061l1.105-.757a25.48 25.48 0 004.519.22c4.293-.061 8.59.108 12.873.409 1.432.101 2.908.209 4.259-.267.675-.243 1.317-.632 2.026-.824.29-.048.565-.164.801-.338.392-.361.287-1.013.128-1.506a16.79 16.79 0 00-.479-1.321 8.054 8.054 0 01-.446-1.232c-.213-.953 0-2.057-.598-2.834-1.331-1.739-.388-4.417-.949-6.535-.179-.675-.446-1.351-.615-2.026a13.248 13.248 0 01-.24-1.311 15.409 15.409 0 01-.26-2.884c0-.483.078-.966.139-1.445l.422-3.337a10.66 10.66 0 011.088 3.155 46.28 46.28 0 001.418 4.866c.318.963.635 1.922.98 2.877.22.546.389 1.112.503 1.689.074.463.078.936.132 1.398.113.998.46 1.955 1.013 2.793a.922.922 0 00.48.426c.137.03.278.03.415 0a16.523 16.523 0 004.297-1.486c.288-.121.539-.317.726-.568.365-.594-.044-1.334-.223-2.009-.179-.676-.145-1.591-.713-2.074-1.983-1.688-1.013-5.109-1.989-7.514-.176-.422-.379-.831-.527-1.263-.115-.338-.2-.675-.284-1.013a247.48 247.48 0 00-2.222-8.366c-.818-2.877-.73-5.873-1.76-8.682a9.22 9.22 0 00-.753-1.689 4.612 4.612 0 00-1.352-1.408c-1.496-.99-3.002-1.83-4.762-2.189-1.76-.358-3.672-.337-5.462-.317z" fill="#fff"/><path d="M155.417 84.307a6.061 6.061 0 00-7.242-1.804c-2.702 1.287-4.019 4.39-6.387 6.187-.539.404-1.113.758-1.716 1.058a4.803 4.803 0 01-1.128.445c-.443.098-.902.085-1.351.19a3.47 3.47 0 00-2.003 1.553c-.221.394-.467.773-.737 1.135-.246.294-.554.533-.814.814-.942 1.013-1.199 2.465-1.411 3.83a18.198 18.198 0 01-2.405 2.117 3.393 3.393 0 01-.892.493c-.828.27-1.743-.071-2.449-.58-.706-.51-1.28-1.183-1.976-1.69a62.993 62.993 0 01-1.989 2.702.853.853 0 01-.446.365c-.129.432.179.878.408 1.263l1.233 2.074c.41.753.91 1.454 1.49 2.087a3.497 3.497 0 002.266 1.064 4.487 4.487 0 001.591-.308c2.365-.79 4.509-2.05 6.756-3.124.405-.23.858-.363 1.324-.388a1.071 1.071 0 011.047.753c.257 1.297.51 2.587.861 3.857.336 1.202.645 2.408.929 3.617.19.742.326 1.497.405 2.259.037.432.041.865.048 1.3l.047 5.242c0 .567-.318.918-.568 1.425a3.378 3.378 0 00-.158 2.519c.138.409.358.787.513 1.193.372.976.358 2.05.338 3.093l-.044 2.391c-.013.1.005.201.051.291.145.226.496.094.719-.061l1.105-.757a25.48 25.48 0 004.519.22c4.293-.061 8.59.108 12.873.409 1.432.101 2.908.209 4.259-.267.675-.243 1.317-.632 2.026-.824.29-.048.565-.164.801-.338.392-.361.287-1.013.128-1.506a16.79 16.79 0 00-.479-1.321 8.054 8.054 0 01-.446-1.232c-.213-.953 0-2.057-.598-2.834-1.331-1.739-.388-4.417-.949-6.535-.179-.675-.446-1.351-.615-2.026a13.248 13.248 0 01-.24-1.311 15.409 15.409 0 01-.26-2.884c0-.483.078-.966.139-1.445l.422-3.337a10.66 10.66 0 011.088 3.155 46.28 46.28 0 001.418 4.866c.318.963.635 1.922.98 2.877.22.546.389 1.112.503 1.689.074.463.078.936.132 1.398.113.998.46 1.955 1.013 2.793a.922.922 0 00.48.426c.137.03.278.03.415 0a16.523 16.523 0 004.297-1.486c.288-.121.539-.317.726-.568.365-.594-.044-1.334-.223-2.009-.179-.676-.145-1.591-.713-2.074-1.983-1.688-1.013-5.109-1.989-7.514-.176-.422-.379-.831-.527-1.263-.115-.338-.2-.675-.284-1.013a247.48 247.48 0 00-2.222-8.366c-.818-2.877-.73-5.873-1.76-8.682a9.22 9.22 0 00-.753-1.689 4.612 4.612 0 00-1.352-1.408c-1.496-.99-3.002-1.83-4.762-2.189-1.76-.358-3.672-.337-5.462-.317z" fill="#3D3C40" fill-opacity=".64"/><path d="M142.214 77.47c-.76-.409-.561-1.523-.676-2.364-.267-1.76-2.249-2.8-2.702-4.515a3.041 3.041 0 001.574-.223 2.41 2.41 0 00-.318-1.648c1.632-.676 2.956-1.962 4.611-2.56 2.087-.753 4.391-.29 6.512.409 1.051.337 2.142.8 2.777 1.705.696.996.675 2.303.648 3.519-.057 1.905-.135 3.877-.983 5.583-1.077 2.171-4.134 4.18-6.66 3.593-1.048-.243-1.352-.905-1.801-1.817-.277-.567-.378-1.226-1.013-1.523-.635-.297-1.351.172-1.969-.159z" fill="#3D3C40"/><path opacity=".1" d="M140.383 69.537a2.365 2.365 0 00-.311-.828c.095-.038.189-.078.284-.121.073.311.082.634.027.949zm1.141 4.734c.129.855-.07 1.966.676 2.364.615.338 1.351-.138 1.956.152.604.29.723.956 1.013 1.523.442.912.753 1.57 1.8 1.817 2.527.588 5.584-1.425 6.661-3.596.848-1.706.926-3.678.983-5.583v-.28 1.104c-.057 1.905-.135 3.877-.983 5.583-1.077 2.171-4.134 4.18-6.661 3.593-1.047-.243-1.351-.905-1.8-1.817-.277-.567-.378-1.226-1.013-1.523-.635-.297-1.351.182-1.956-.148-.76-.41-.561-1.524-.676-2.365-.266-1.76-2.249-2.8-2.702-4.515.122.017.245.024.368.024.727 1.253 2.115 2.219 2.334 3.667z" fill="#3D3C40"/></svg>