<svg width="16" height="16" fill="none" xmlns="http://www.w3.org/2000/svg"><path d="M8 .494A7.331 7.331 0 004.22 1.52a7.657 7.657 0 00-2.7 2.7A7.331 7.331 0 00.494 8c0 1.356.342 2.616 1.026 3.78a7.657 7.657 0 002.7 2.7A7.331 7.331 0 008 15.506a7.331 7.331 0 003.78-1.026 7.657 7.657 0 002.7-2.7A7.331 7.331 0 0015.506 8a7.331 7.331 0 00-1.026-3.78 7.657 7.657 0 00-2.7-2.7A7.331 7.331 0 008 .494zm0 13.5a5.851 5.851 0 01-3.024-.828 5.913 5.913 0 01-2.142-2.142A5.851 5.851 0 012.006 8c0-1.08.276-2.088.828-3.024a5.913 5.913 0 012.142-2.142A5.851 5.851 0 018 2.006c1.08 0 2.088.276 3.024.828a5.913 5.913 0 012.142 2.142c.552.936.828 1.944.828 3.024s-.276 2.088-.828 3.024a5.913 5.913 0 01-2.142 2.142A5.851 5.851 0 018 13.994zm.378-5.238h-.756l-.378-4.5h1.512l-.378 4.5zm.378 2.25a.685.685 0 01-.234.522.711.711 0 01-.522.216.772.772 0 01-.54-.216.711.711 0 01-.216-.522c0-.204.072-.378.216-.522A.742.742 0 018 10.25c.204 0 .378.078.522.234a.685.685 0 01.234.522z" fill="#579EFF"/></svg>