<svg width="267" height="163" fill="none" xmlns="http://www.w3.org/2000/svg"><path opacity=".1" d="M161.376 55.022a7.402 7.402 0 00-4.288.467 6.336 6.336 0 01-5.174-.023 7.241 7.241 0 00-6.056.118 3.75 3.75 0 01-1.744.436c-2.456 0-4.499-2.468-4.924-5.725a4.738 4.738 0 001.228-1.322c1.44-2.315 3.67-3.8 6.174-3.8 2.504 0 4.706 1.467 6.138 3.76a4.736 4.736 0 004.092 2.235h.064c1.961.01 3.654 1.575 4.49 3.854zm66.408 24.434a9.832 9.832 0 00-5.645.61 8.401 8.401 0 01-6.81-.03 9.612 9.612 0 00-7.972.153 4.973 4.973 0 01-2.296.569c-3.231 0-5.921-3.218-6.48-7.464a6.211 6.211 0 001.616-1.724c1.895-3.018 4.831-4.955 8.126-4.955 3.296 0 6.194 1.914 8.08 4.902a6.205 6.205 0 002.305 2.158c.943.51 2.005.771 3.081.757h.084c2.582.013 4.81 2.053 5.911 5.024z" fill="#145DBF"/><path opacity=".1" d="M168.845 44.8l-3.97 2.514 2.409-4.374a3.943 3.943 0 00-2.401-.855h-.064a4.644 4.644 0 01-.823-.06l-1.341.85.578-1.046a4.777 4.777 0 01-2.352-1.786l-2.41 1.531 1.535-2.759c-1.409-1.687-3.307-2.723-5.394-2.723-2.504 0-4.734 1.488-6.173 3.803a4.604 4.604 0 01-4.092 2.195h-.136c-2.765 0-5.005 3.129-5.005 6.985 0 3.857 2.24 6.986 5.005 6.986a3.77 3.77 0 001.744-.434 7.231 7.231 0 016.056-.12 6.333 6.333 0 005.151.013 7.249 7.249 0 016.005.115 3.752 3.752 0 001.724.426c2.764 0 5.005-3.127 5.005-6.986a8.866 8.866 0 00-1.051-4.275zm69.22 20.945l-5.288 3.355 3.209-5.838a5.245 5.245 0 00-3.199-1.14h-.085a6.194 6.194 0 01-1.097-.079l-1.785 1.134.77-1.396a6.368 6.368 0 01-3.135-2.384l-3.209 2.043 2.044-3.681c-1.877-2.251-4.405-3.634-7.185-3.634-3.336 0-6.307 1.986-8.225 5.074a6.13 6.13 0 01-5.451 2.93h-.18c-3.683 0-6.668 4.175-6.668 9.32 0 5.147 2.985 9.322 6.668 9.322a5.016 5.016 0 002.323-.579 9.617 9.617 0 018.068-.16 8.422 8.422 0 006.861.017 9.646 9.646 0 018 .153 4.991 4.991 0 002.296.569c3.683 0 6.668-4.172 6.668-9.321.02-1.99-.462-3.951-1.4-5.705z" fill="#145DBF"/><path d="M132.631 37.026a2.002 2.002 0 00-.212-.666 1.53 1.53 0 00-.312-.327 2.05 2.05 0 00-.665-.413.833.833 0 00-.768.087 1.005 1.005 0 00-.332.691c-.054.36.009.728.179 1.05.205.354.558.592.852.875.216.205.403.437.557.691.071.133.157.258.256.37a.478.478 0 00.401.159.694.694 0 00.328-.192c.12-.104.447-.296.458-.464.01-.169-.256-.444-.31-.572a6.44 6.44 0 01-.432-1.289z" fill="#06D6A0"/><path d="M133.5 163c73.73 0 133.5-2.628 133.5-5.87s-59.77-5.87-133.5-5.87c-73.73 0-133.5 2.628-133.5 5.87S59.77 163 133.5 163z" fill="#3D3C40" fill-opacity=".16"/><path d="M128.494 159.043c16.129 0 29.203-.932 29.203-2.081 0-1.15-13.074-2.082-29.203-2.082-16.128 0-29.203.932-29.203 2.082 0 1.149 13.075 2.081 29.203 2.081z" fill="#3D3C40" fill-opacity=".16"/><path d="M130.387 156.89a5.882 5.882 0 01-2.725-.114 5.879 5.879 0 01-3.906-3.586 5.852 5.852 0 01-.34-2.702c.67-5.911 2.754-15.433 8.455-29.729 6.608-16.574 4.225-20.579-2.857-32.465-2.286-3.841-4.88-8.193-7.672-13.782-7.202-14.36-4.466-25.426-.911-32.162 3.78-7.17 9.187-10.924 9.79-11.33l5.581 9.214-.512.51c-.013 0 .256 0 .645.708a22.27 22.27 0 00-5.287 6.756c-3.094 6.184-2.685 13.272 1.215 21.049 2.611 5.211 5.087 9.369 7.271 13.037 3.923 6.585 7.02 11.786 8.046 18.353 1.061 6.797-.256 14.109-4.371 24.451-5.424 13.601-7.161 22.113-7.69 26.682a5.886 5.886 0 01-4.724 5.105l-.008.005z" fill="#3D3C40" fill-opacity=".16"/><path d="M104.601 23.622L128.27 0l23.9 23.622h-16.243v18.062h-15.084V23.736l-16.242-.114z" fill="#145DBF"/><path d="M180.225 156.545c8.294 0 15.019-.559 15.019-1.249 0-.69-6.725-1.249-15.019-1.249-8.295 0-15.019.559-15.019 1.249 0 .69 6.724 1.249 15.019 1.249z" fill="#3D3C40" fill-opacity=".16"/><path d="M181.092 155.606a3.076 3.076 0 01-3.462-1.93 3.054 3.054 0 01-.177-1.411c.347-3.085 1.437-8.057 4.414-15.52 3.45-8.655 2.204-10.745-1.491-16.953-1.194-2.003-2.558-4.277-4.013-7.197-3.754-7.496-2.327-13.272-.47-16.79a17.067 17.067 0 015.115-5.915l2.913 4.81-.272.256s.139 0 .338.37a11.621 11.621 0 00-2.762 3.527c-1.614 3.229-1.399 6.927.637 10.991 1.363 2.72 2.654 4.892 3.795 6.807 2.046 3.437 3.665 6.153 4.202 9.583.552 3.548-.13 7.366-2.284 12.762-2.831 7.1-3.739 11.544-4.015 13.93a3.068 3.068 0 01-.794 1.738 3.073 3.073 0 01-1.672.929l-.002.013z" fill="#3D3C40" fill-opacity=".16"/><path d="M167.627 86.023l12.358-12.333 12.48 12.333h-8.48v9.43h-7.877v-9.369l-8.481-.06z" fill="#145DBF"/><path d="M76.763 155.713c8.294 0 15.019-.559 15.019-1.249 0-.69-6.724-1.249-15.02-1.249-8.294 0-15.018.559-15.018 1.249 0 .69 6.724 1.249 15.019 1.249z" fill="#3D3C40" fill-opacity=".16"/><path d="M75.678 155.606a3.067 3.067 0 003.64-3.341c-.348-3.085-1.438-8.057-4.415-15.52-3.45-8.655-2.204-10.745 1.491-16.953 1.195-2.003 2.558-4.277 4.013-7.197 3.754-7.496 2.327-13.272.47-16.79a17.08 17.08 0 00-5.114-5.915L72.85 94.7l.27.256s-.137 0-.337.37a11.612 11.612 0 012.762 3.527c1.614 3.229 1.4 6.927-.636 10.991-1.364 2.72-2.655 4.892-3.796 6.807-2.046 3.437-3.665 6.153-4.202 9.583-.552 3.548.13 7.366 2.284 12.762 2.831 7.1 3.74 11.544 4.015 13.93a3.062 3.062 0 002.466 2.667l.002.013z" fill="#3D3C40" fill-opacity=".16"/><path d="M89.143 86.023L76.785 73.69l-12.48 12.333h8.48v9.43h7.877v-9.369l8.48-.06z" fill="#145DBF"/><path d="M225.364 155.19H214.5a2.252 2.252 0 01-2.253-2.249 2.251 2.251 0 012.253-2.248 2.266 2.266 0 01-1.642-.631 2.254 2.254 0 01-.687-1.617 2.249 2.249 0 012.329-2.247h.496c.284-1.935 2.471-3.441 5.13-3.443 2.66-.003 4.86 1.501 5.138 3.433h.1a2.248 2.248 0 011.642.63 2.254 2.254 0 01.687 1.617 2.245 2.245 0 01-1.444 2.099 2.247 2.247 0 01-.885.148 2.252 2.252 0 012.253 2.249 2.251 2.251 0 01-2.253 2.248v.011z" fill="#06D6A0"/><path opacity=".1" d="M227.615 148.445a2.25 2.25 0 01-2.25 2.248h-10.862l10.792-4.505h.067c.598.002 1.172.24 1.594.663.423.423.66.996.659 1.594zm-15.302 4.519a2.258 2.258 0 002.254 2.246h10.864l-10.8-4.484h-.059a2.262 2.262 0 00-2.259 2.238z" fill="#3D3C40" fill-opacity=".48"/><path d="M159.331 152.505h-6.167a1.275 1.275 0 110-2.552 1.278 1.278 0 01-.904-2.178c.24-.24.565-.374.904-.374h.284c.159-1.098 1.402-1.953 2.911-1.953 1.509 0 2.752.85 2.915 1.948h.057a1.275 1.275 0 110 2.552 1.278 1.278 0 01.904 2.178c-.24.24-.565.374-.904.374v.005z" fill="#06D6A0"/><path opacity=".1" d="M160.609 148.677a1.28 1.28 0 01-1.279 1.276h-6.166l6.138-2.553h.028a1.28 1.28 0 011.279 1.277zm-8.682 2.559a1.278 1.278 0 001.278 1.276h6.164l-6.138-2.552h-.038a1.278 1.278 0 00-1.266 1.276z" fill="#3D3C40" fill-opacity=".48"/><path d="M43.848 159.746H30.805a2.72 2.72 0 01-1.965-.76 2.71 2.71 0 01-.821-1.937 2.689 2.689 0 01.82-1.937 2.702 2.702 0 011.966-.759 2.72 2.72 0 01-1.965-.76 2.71 2.71 0 01-.821-1.937 2.689 2.689 0 01.82-1.937 2.702 2.702 0 011.966-.759h.593c.34-2.32 2.967-4.127 6.156-4.13 3.19-.002 5.818 1.799 6.164 4.117h.117a2.696 2.696 0 010 5.393 2.696 2.696 0 010 5.393l.013.013z" fill="#06D6A0"/><path opacity=".1" d="M46.546 151.655a2.703 2.703 0 01-2.698 2.698H30.805l12.946-5.406h.079a2.724 2.724 0 011.92.793 2.706 2.706 0 01.796 1.915zm-18.357 5.411a2.705 2.705 0 002.705 2.692h13.043l-12.958-5.38h-.08a2.715 2.715 0 00-1.91.787 2.704 2.704 0 00-.8 1.901z" fill="#3D3C40" fill-opacity=".48"/><path opacity=".1" d="M70.586 39.065a5.206 5.206 0 00-3.015.322 4.425 4.425 0 01-3.606 0 5.073 5.073 0 00-4.24.081 2.635 2.635 0 01-1.22.307c-1.72 0-3.149-1.728-3.445-4.01a3.32 3.32 0 00.859-.924c1.008-1.62 2.557-2.66 4.32-2.66 1.762 0 3.296 1.022 4.304 2.632a3.322 3.322 0 002.854 1.565h.046c1.368-.003 2.552 1.092 3.143 2.687z" fill="#145DBF"/><path opacity=".1" d="M75.809 31.91l-2.778 1.76 1.686-3.063a2.737 2.737 0 00-1.68-.6h-.044a3.071 3.071 0 01-.575-.04l-.944.594.404-.733a3.358 3.358 0 01-1.647-1.248l-1.69 1.07 1.063-1.932c-.984-1.18-2.314-1.904-3.775-1.904-1.751 0-3.324 1.038-4.322 2.659a3.232 3.232 0 01-2.856 1.531h-.085c-1.933 0-3.504 2.19-3.504 4.89 0 2.7 1.57 4.89 3.504 4.89a2.606 2.606 0 001.22-.306 5.072 5.072 0 014.24-.081 4.5 4.5 0 001.814.388 4.432 4.432 0 001.79-.38 5.07 5.07 0 014.202.081c.372.195.786.297 1.207.299 1.936 0 3.504-2.19 3.504-4.89a6.205 6.205 0 00-.734-2.984zM33.917 67.14a5.206 5.206 0 013.002.322 4.417 4.417 0 003.604 0 5.072 5.072 0 014.24.082 2.66 2.66 0 001.22.306c1.719 0 3.151-1.728 3.448-4.01a3.27 3.27 0 01-.86-.924c-1.007-1.62-2.57-2.66-4.322-2.66-1.752 0-3.294 1.022-4.302 2.632a3.322 3.322 0 01-2.864 1.562h-.043c-1.36 0-2.548 1.095-3.123 2.69z" fill="#145DBF"/><path opacity=".1" d="M28.68 59.987l2.777 1.758-1.688-3.063a2.742 2.742 0 011.68-.6h.047c.192.005.385-.008.575-.04l.941.594-.404-.732a3.363 3.363 0 001.65-1.248l1.685 1.067-1.066-1.932c.987-1.18 2.314-1.904 3.777-1.904 1.752 0 3.312 1.038 4.322 2.66a3.23 3.23 0 002.857 1.53h.092c1.936 0 3.504 2.19 3.504 4.89 0 2.701-1.568 4.891-3.504 4.891a2.62 2.62 0 01-1.22-.306 5.073 5.073 0 00-4.24-.082 4.41 4.41 0 01-3.6.008 5.076 5.076 0 00-4.206.081 2.616 2.616 0 01-1.207.299c-1.933 0-3.504-2.19-3.504-4.89a6.205 6.205 0 01.732-2.981z" fill="#145DBF"/></svg>